<?xml version="1.0" encoding="utf-8"?>
<!-- Generator: Adobe Illustrator 26.0.3, SVG Export Plug-In . SVG Version: 6.00 Build 0)  -->
<svg version="1.1" id="Calque_1" xmlns="http://www.w3.org/2000/svg" xmlns:xlink="http://www.w3.org/1999/xlink" x="0px" y="0px"
	 viewBox="0 0 1920 1080" style="enable-background:new 0 0 1920 1080;" xml:space="preserve">
<style type="text/css">
	.st0{fill:#A6C8FF;}
	.st1{fill:#FF0037;}
	.st2{fill:#FFFFFF;}
</style>
<g>
	<rect class="st0" width="1920" height="1080"/>
</g>
<path class="st1" d="M866,1698"/>
<path class="st2" d="M897,0c0.91-0.74,2.55-0.09,2.93,0.04c0,0,0,0,119.51,1.78c37.15,0.55,55.72,0.83,55.72,0.83
	c2.81,0.02,7.09,0.01,12.34-0.16c6.13-0.2,8.25-0.45,10,1c1.5,1.24,2.33,3.4,2,11c-0.44,10.14-2.27,14.56-3,23
	c-0.46,5.33-0.1,7.83,0,13c0,0,0.25,12.61-3.5,34.5c-16.76,97.93-72,185-72,185c-27.85,42.99-78.89,121.8-176,173
	c-68.1,35.9-142.25,49.49-216,63c-20.66,3.78-37.95,6.35-50,8c0-61.73,0-123.47,0-185.2c0-2.75,0-5.5,0-8.25
	c21.84-0.57,56.02-3.49,95.5-16.05c69.6-16.5,140.62-66.86,179-134c0,0,27.46-48.46,38-108c1.19-6.73,5.63-37.88,6-41
	c0,0,0.39-3.31,0.39-3.31c0.15-0.96,0.34-2.51,0.35-4.41C898.27,6.16,895.28,1.41,897,0z"/>
</svg>
