<?xml version="1.0" encoding="utf-8"?>
<!-- Generator: Adobe Illustrator 21.0.2, SVG Export Plug-In . SVG Version: 6.00 Build 0)  -->
<!DOCTYPE svg PUBLIC "-//W3C//DTD SVG 1.1//EN" "http://www.w3.org/Graphics/SVG/1.1/DTD/svg11.dtd">
<svg version="1.1" id="Layer_1" xmlns="http://www.w3.org/2000/svg" xmlns:xlink="http://www.w3.org/1999/xlink" x="0px" y="0px"
	 viewBox="0 0 50 50" style="enable-background:new 0 0 50 50;" xml:space="preserve">
<style type="text/css">
	.st0{fill:#fff;}
</style>
<path class="st0" d="M33.8,17.5c-0.9,0-1.2-0.2-1.2-1.2c0-5,0-9.9,0-14.9c0-0.3,0-0.9,0-1.2c-5.2,0-10.4,0-15.6,0c0,0.5,0,0.9,0,1.4
	c0,4.8,0,9.9,0,14.7c0,0.9-0.3,1-1,1c-5,0-9.9,0-14.9,0c-0.3,0-0.9,0-1.2,0c0,5.2,0,10.4,0,15.6c0.5,0,0.9,0,1.4,0
	c4.8,0,9.9,0,14.7,0c0.9,0,1,0.2,1,1c0,5,0,9.9,0,14.9c0,0.3,0,0.9,0,1.2c5.2,0,10.4,0,15.6,0c0-0.5,0-0.9,0-1.4c0-4.8,0-9.9,0-14.7
	c0-0.9,0.3-1.2,1.2-1.2c4.8,0,9.9,0,14.7,0l1.4,0c0-5.2,0-10,0-15.2c-0.5,0-0.9,0-1.4,0C43.6,17.5,38.6,17.5,33.8,17.5z"/>
</svg>
