<?xml version="1.0" encoding="utf-8"?>
<!-- Generator: Adobe Illustrator 22.1.0, SVG Export Plug-In . SVG Version: 6.00 Build 0)  -->
<!DOCTYPE svg PUBLIC "-//W3C//DTD SVG 1.1//EN" "http://www.w3.org/Graphics/SVG/1.1/DTD/svg11.dtd">
<svg version="1.1" id="Layer_1" xmlns="http://www.w3.org/2000/svg" xmlns:xlink="http://www.w3.org/1999/xlink" x="0px" y="0px"
	 viewBox="0 0 800 800" style="enable-background:new 0 0 800 800;" xml:space="preserve">
<g id="Background">
</g>
<g>
	<path d="M766.5,244.5c-20-47.4-48.8-89.9-85.2-126.4s-79-65.2-126.4-85.2c-49.1-20.8-101.3-31.3-155-31.3
		c-53.6,0-105.7,10.5-154.8,31.3c-47.4,20-89.9,48.7-126.4,85.2c-36.6,36.5-65.2,79-85.2,126.4C12.6,293.7,2.1,345.7,2.1,399.4
		s10.5,105.8,31.2,155c20,47.4,48.7,89.9,85.2,126.4c36.5,36.6,79,65.2,126.4,85.2c49.1,20.7,101.2,31.2,154.9,31.2
		s105.8-10.5,154.9-31.3c47.4-20,89.9-48.8,126.4-85.2c36.6-36.5,65.2-79,85.2-126.4c20.7-49.1,31.2-101.2,31.2-154.9
		S787.3,293.6,766.5,244.5z M623.4,622.9c-59.7,59.6-139,92.5-223.5,92.5s-163.8-32.8-223.5-92.5c-59.6-59.7-92.5-139-92.5-223.5
		s32.8-163.8,92.5-223.5c59.7-59.6,139-92.5,223.5-92.5s163.9,32.9,223.5,92.5c59.6,59.7,92.5,139,92.5,223.5
		S683.2,563.3,623.4,622.9z"/>
	<g>
		<path d="M378,616.9c1.4-31.6,2.1-103.8,2.1-147.3v-33c0-38.6-0.7-60.3-2.1-88.4l-57.5-6.3v-24.6l105.9-42.1l10.5,7l-2.1,94.7v92.6
			c0,43.5,0.7,115.7,2.1,147.3H378z M486,592.3v24.6H324.7v-24.6l77.2-14h14L486,592.3z M360.4,196.9c0-26.7,20.3-44.2,46.3-44.2
			c26,0,46.3,17.5,46.3,44.2c0,26-20.3,44.2-46.3,44.2C380.8,241.1,360.4,222.8,360.4,196.9z"/>
	</g>
</g>
</svg>
