<?xml version="1.0" encoding="iso-8859-1"?>
<!-- Generator: Adobe Illustrator 18.0.0, SVG Export Plug-In . SVG Version: 6.00 Build 0)  -->
<!DOCTYPE svg PUBLIC "-//W3C//DTD SVG 1.1//EN" "http://www.w3.org/Graphics/SVG/1.1/DTD/svg11.dtd">
<svg version="1.1" id="Capa_1" xmlns="http://www.w3.org/2000/svg" xmlns:xlink="http://www.w3.org/1999/xlink" x="0px" y="0px"
	 viewBox="0 0 320 320" style="enable-background:new 0 0 320 320;" xml:space="preserve">
<path d="M311.336,8.666c-5.612-5.615-13.243-8.734-21.178-8.664L194.28,0.847c-7.755,0.068-15.172,3.18-20.656,8.664L8.664,174.472
	c-11.552,11.549-11.552,30.279,0,41.832l95.031,95.029c11.552,11.555,30.281,11.555,41.834,0l164.961-164.957
	c5.483-5.486,8.594-12.902,8.662-20.658l0.847-95.877C320.069,21.908,316.947,14.275,311.336,8.666z M254.039,113.767
	c-13.203,13.207-34.608,13.205-47.811,0.002c-13.202-13.199-13.202-34.604,0.001-47.811c13.203-13.199,34.607-13.197,47.81,0
	C267.241,79.164,267.242,100.568,254.039,113.767z"/>
<g>
</g>
<g>
</g>
<g>
</g>
<g>
</g>
<g>
</g>
<g>
</g>
<g>
</g>
<g>
</g>
<g>
</g>
<g>
</g>
<g>
</g>
<g>
</g>
<g>
</g>
<g>
</g>
<g>
</g>
</svg>
