<svg
    xmlns="http://www.w3.org/2000/svg"
    xmlns:xlink="http://www.w3.org/1999/xlink"
    aria-hidden="true"
    focusable="false"
    width="1em"
    height="1em"
    style="-ms-transform: rotate(360deg); -webkit-transform: rotate(360deg); transform: rotate(360deg);"
    preserveAspectRatio="xMidYMid meet"
    viewBox="0 0 512 512">
    <path d="M416 48a16 16 0 0 0-16-16H112a16 16 0 0 0-16 16v416a16 16 0 0 0 16 16h288a16 16 0 0 0 16-16zM192 432h-48v-48h48zm0-80h-48v-48h48zm0-80h-48v-48h48zm88 160h-48v-48h48zm0-80h-48v-48h48zm0-80h-48v-48h48zm88 160h-48V304h48zm0-160h-48v-48h48zm0-96H144V80h224z"
        fill="#626262"
    />
</svg>