<?xml version="1.0" encoding="utf-8"?>
<!-- Generator: Adobe Illustrator 23.0.4, SVG Export Plug-In . SVG Version: 6.00 Build 0)  -->
<svg version="1.1" id="Layer_1" xmlns="http://www.w3.org/2000/svg" xmlns:xlink="http://www.w3.org/1999/xlink" x="0px" y="0px"
	 viewBox="0 0 800 800" style="enable-background:new 0 0 800 800;" xml:space="preserve">
<path d="M400.1,4.4C182.9,4.4,6.8,180.5,6.8,397.7c0,217.2,176.1,393.3,393.3,393.3c217.2,0,393.3-176.1,393.3-393.3
	C793.4,180.5,617.3,4.4,400.1,4.4z M238.5,260.5L388.8,84.2c4.3-3.9,13.5-9.2,23.9,1.5l151.6,177.8c3,4.1,8.5,14.6-17.1,13.7l0,0
	h-52.9V436c0,13.9-16.7,25.2-37.2,25.2H343.3c-20.5,0-37.2-11.3-37.2-25.2V277.1h-55.4c0,0,0,0,0,0c0,0-0.3,0-0.7,0h-2
	C241.2,277,225.2,275.2,238.5,260.5L238.5,260.5z M593.3,570.1c0,18.2-14.7,32.9-32.9,32.9H239.9c-18.2,0-32.9-14.7-32.9-32.9v-98.8
	c0-18.2,14.7-32.9,32.9-32.9c18.2,0,32.9,14.7,32.9,32.9v65.9h254.7v-65.9c0-18.2,14.7-32.9,32.9-32.9c18.2,0,32.9,14.7,32.9,32.9
	V570.1z"/>
</svg>
