<?xml version="1.0" encoding="utf-8"?>
<!-- Generator: Adobe Illustrator 22.1.0, SVG Export Plug-In . SVG Version: 6.00 Build 0)  -->
<!DOCTYPE svg PUBLIC "-//W3C//DTD SVG 1.1//EN" "http://www.w3.org/Graphics/SVG/1.1/DTD/svg11.dtd">
<svg version="1.1" id="Layer_1" xmlns="http://www.w3.org/2000/svg" xmlns:xlink="http://www.w3.org/1999/xlink" x="0px" y="0px"
	 viewBox="0 0 50 50" style="enable-background:new 0 0 50 50;" xml:space="preserve">
<style type="text/css">
	.st0{fill-rule:evenodd;clip-rule:evenodd;fill:#fff;}
</style>
<g>
	<path class="st0" d="M39.8,21.9L19.3,42.7c-0.2,0.2-0.5,0.4-0.9,0.5l-6.7,2.1l-6.8,2.1c-0.9,0.3-2-0.2-2.3-1.2
		c-0.1-0.4-0.1-0.7,0-1.1l2-6.8l2-6.9c0.1-0.3,0.3-0.5,0.4-0.7l0,0L27.5,9.8L39.8,21.9z M42.2,2.2L47,7c1,1,1.6,2.3,1.6,3.7
		c0,1.3-0.5,2.7-1.5,3.7l-2,2l-12.3-12l2-2c1-1,2.3-1.6,3.7-1.6C39.8,0.7,41.1,1.2,42.2,2.2L42.2,2.2z M43.3,18.2L41.5,20L29.2,8
		L31,6.2L43.3,18.2z M8.7,33.6L8.7,33.6l-2.3,10l10-2.5L8.7,33.6z"/>
</g>
</svg>
