<?xml version="1.0" encoding="utf-8"?>
<!-- Generator: Adobe Illustrator 21.0.2, SVG Export Plug-In . SVG Version: 6.00 Build 0)  -->
<!DOCTYPE svg PUBLIC "-//W3C//DTD SVG 1.1//EN" "http://www.w3.org/Graphics/SVG/1.1/DTD/svg11.dtd">
<svg version="1.1" id="Layer_1" xmlns="http://www.w3.org/2000/svg" xmlns:xlink="http://www.w3.org/1999/xlink" x="0px" y="0px"
	 viewBox="0 0 50 50" style="enable-background:new 0 0 50 50;" xml:space="preserve">
<style type="text/css">
	.st0{fill:#fff;}
</style>
<path class="st0" d="M16.4,50c5.9,0,11.8,0,17.7,0c3.2,0,5.3-1.8,5.6-5c1.2-10.3,2.4-20.6,3.6-30.9c0-0.5,0-0.8,0-1.2
	c-12.3,0-24.1,0-36,0c0,0.3-0.2,0.5-0.2,0.5C8.4,24,9.6,34.7,11,45.3C11.3,48.2,13.6,50,16.4,50z M32.2,40
	c0.6-7.1,1.2-14.1,1.8-21.2c0-0.3,0-0.6,0.2-0.9c0.2-0.9,0.6-1.7,1.7-1.5s1.4,0.8,1.4,1.8c-0.2,1.1-0.2,2.1-0.3,3.2
	c-0.6,7-1.2,14.1-1.8,21c0,0.3,0,0.8-0.2,1.1c-0.2,0.9-0.6,1.7-1.7,1.5c-1.1-0.2-1.4-0.9-1.4-1.8C31.9,42.1,32,41.1,32.2,40z
	 M24.3,30.6c0-4.1,0-8,0-12.1c0-1.1,0.2-2.1,1.5-2.1s1.5,0.9,1.5,2.1c0,8.2,0,16.3,0,24.4c0,1.1-0.3,2.1-1.5,2.1
	c-1.4,0-1.5-1.1-1.5-2.1C24.3,38.8,24.3,34.7,24.3,30.6z M15.7,16.4c1.4-0.2,1.7,0.9,1.8,2.1c0.8,7.7,1.4,15.4,2,23
	c0,0.5,0.2,1.1,0.2,1.5c0.2,1.1-0.2,1.8-1.4,2c-1.1,0.2-1.7-0.6-1.7-1.7c-0.2-2.4-0.5-4.8-0.6-7.4c-0.5-5.7-0.9-11.5-1.5-17.2
	C14.3,17.6,14.5,16.6,15.7,16.4z"/>
<path class="st0" d="M41.1,5.7c-10.6,0-21.3,0-31.9,0c-3,0-4.2,1.5-3.9,4.7c13.3,0,26.6,0,39.8,0C45.5,7.2,44.1,5.7,41.1,5.7z"/>
<path class="st0" d="M28.4,0.5c-1.8,0-3.6,0-5.3,0c-1.8,0-2.6,0.9-2.4,2.9c3.3,0,6.7,0,10,0C30.8,1.6,30,0.5,28.4,0.5z"/>
</svg>
