<?xml version="1.0" encoding="utf-8"?>
<!-- Generator: Adobe Illustrator 23.0.4, SVG Export Plug-In . SVG Version: 6.00 Build 0)  -->
<svg version="1.1" id="Layer_1" xmlns="http://www.w3.org/2000/svg" xmlns:xlink="http://www.w3.org/1999/xlink" x="0px" y="0px"
	 viewBox="0 0 800 800" style="enable-background:new 0 0 800 800;" xml:space="preserve">
<path d="M401.2,7.2C184,7.2,7.9,183.3,7.9,400.5c0,217.2,176.1,393.3,393.3,393.3c217.2,0,393.3-176.1,393.3-393.3
	C794.6,183.3,618.5,7.2,401.2,7.2z M254.2,287.6L254.2,287.6l52.9,0V122.9c0-13.9,16.7-25.2,37.2-25.2h113.7
	c20.5,0,37.2,11.3,37.2,25.2v164.7h55.4c0,0,0,0,0,0s0.3,0,0.7,0h2c6.7,0.1,22.8,1.9,9.5,16.7h0L412.6,480.6
	c-4.3,3.9-13.5,9.2-23.9-1.5L237.1,301.3C234.1,297.2,228.6,286.7,254.2,287.6z M594.4,572.9c0,18.2-14.7,32.9-32.9,32.9H241
	c-18.2,0-32.9-14.7-32.9-32.9v-98.8c0-18.2,14.7-32.9,32.9-32.9c18.2,0,32.9,14.7,32.9,32.9V540h254.7v-65.9
	c0-18.2,14.7-32.9,32.9-32.9c18.2,0,32.9,14.7,32.9,32.9V572.9z"/>
</svg>
