<svg xmlns="http://www.w3.org/2000/svg" xmlns:xlink="http://www.w3.org/1999/xlink" id="Calque_1" x="0px" y="0px" viewBox="0 0 595.3 841.9" style="enable-background:new 0 0 595.3 841.9;" xml:space="preserve"><style type="text/css">	.st0{enable-background:new    ;}	.st1{fill:#00668F;}	.st2{display:none;fill:#00668F;}	.st3{fill:#FFFFFF;}</style><g id="ISTOCK_00000043415654639872954010000007940093825772017301_" class="st0">	<g>		<polygon class="st1" points="434.7,189.5 159.3,189.5 21.5,420.9 159.3,652.3 434.7,652.3 572.5,420.9   "></polygon>		<path class="st2" d="M437.9,657.7H156.1L15.1,420.9l140.9-236.8h281.9l140.9,236.8L437.9,657.7z M162.5,646.9h269L566,420.9   L431.5,194.8h-269L28,420.9L162.5,646.9z"></path>	</g></g><g>	<path class="st3" d="M211.7,539.3h111.7v-70.2c0,0,0.6-6.9,6.9-6.9c6.3,0,70.1,0,70.1,0V301.2c0,0-3.4-8.4-8.4-8.4  c-5,0-178.2-0.5-178.2-0.5s-7.5,3.3-7.5,8.4s0,228.9,0,228.9l0.5,3.6"></path>	<polyline class="st3" points="329.6,535.1 329.6,471.2 394.6,470.5 329.6,535.9  "></polyline></g></svg>