<svg xmlns="http://www.w3.org/2000/svg" xmlns:xlink="http://www.w3.org/1999/xlink" id="Calque_1" x="0px" y="0px" viewBox="0 0 595.3 841.9" style="enable-background:new 0 0 595.3 841.9;" xml:space="preserve"><style type="text/css">	.st0{display:none;fill:#25AC7A;}	.st1{fill:#25AC7A;}	.st2{fill:#FFFFFF;}</style><path class="st0" d="M-181.3,258.2"></path><g>	<g id="ISTOCK_00000043415654639872954010000007940093825772017301_">		<g>			<polygon class="st1" points="436.1,215.2 160.6,215.2 22.9,446.6 160.6,678.1 436.1,678.1 573.8,446.6    "></polygon>			<path class="st0" d="M439.3,683.4H157.4L16.5,446.6l140.9-236.8h281.9l140.9,236.8L439.3,683.4z M163.8,672.7h269l134.5-226.1    L432.9,220.5h-269L29.3,446.6L163.8,672.7z"></path>		</g>	</g>	<g>		<polygon class="st2" points="184.1,369.3 184.1,525.5 223.6,525.5 223.6,401.2 358.8,402.4 362,525.5 399.6,525.5 399.6,373.1    288.4,317   "></polygon>		<g>			<path class="st2" d="M253.1,466.9h-17.6c-2.2,0-4-1.8-4-4v-15c0-2.2,1.8-4,4-4h17.6c2.2,0,4,1.8,4,4v15    C257.1,465.1,255.3,466.9,253.1,466.9z"></path>			<path class="st2" d="M283.7,466.9h-17.6c-2.2,0-4-1.8-4-4v-15c0-2.2,1.8-4,4-4h17.6c2.2,0,4,1.8,4,4v15    C287.7,465.1,285.9,466.9,283.7,466.9z"></path>			<path class="st2" d="M283.7,492.8h-17.6c-2.2,0-4-1.8-4-4v-15c0-2.2,1.8-4,4-4h17.6c2.2,0,4,1.8,4,4v15    C287.7,491,285.9,492.8,283.7,492.8z"></path>			<path class="st2" d="M313.4,492.8h-17.6c-2.2,0-4-1.8-4-4v-15c0-2.2,1.8-4,4-4h17.6c2.2,0,4,1.8,4,4v15    C317.4,491,315.6,492.8,313.4,492.8z"></path>			<path class="st2" d="M313.4,519.2h-17.6c-2.2,0-4-1.8-4-4v-15c0-2.2,1.8-4,4-4h17.6c2.2,0,4,1.8,4,4v15    C317.4,517.5,315.6,519.2,313.4,519.2z"></path>			<path class="st2" d="M342.8,519.2h-17.6c-2.2,0-4-1.8-4-4v-15c0-2.2,1.8-4,4-4h17.6c2.2,0,4,1.8,4,4v15    C346.8,517.5,345,519.2,342.8,519.2z"></path>			<path class="st2" d="M283.7,519.2h-17.6c-2.2,0-4-1.8-4-4v-15c0-2.2,1.8-4,4-4h17.6c2.2,0,4,1.8,4,4v15    C287.7,517.5,285.9,519.2,283.7,519.2z"></path>			<path class="st2" d="M253.1,519.2h-17.6c-2.2,0-4-1.8-4-4v-15c0-2.2,1.8-4,4-4h17.6c2.2,0,4,1.8,4,4v15    C257.1,517.5,255.3,519.2,253.1,519.2z"></path>			<path class="st2" d="M253.1,492.8h-17.6c-2.2,0-4-1.8-4-4v-15c0-2.2,1.8-4,4-4h17.6c2.2,0,4,1.8,4,4v15    C257.1,491,255.3,492.8,253.1,492.8z"></path>		</g>	</g></g></svg>