<svg xmlns="http://www.w3.org/2000/svg" xmlns:xlink="http://www.w3.org/1999/xlink" id="Layer_1" data-name="Layer 1" viewBox="0 0 311.96 274.92"><defs><style>.cls-1{fill:#ffde38;}.cls-2{fill:#ffc400;}.cls-3{fill:#ffb700;}.cls-4{fill:#bfbeed;}.cls-5{fill:#ffbfa2;}.cls-6{fill:#3a2c99;}.cls-7{fill:#d3d3f5;}.cls-8{isolation:isolate;}.cls-9{fill:#f4f4fa;}.cls-10{fill:#00b5ea;}.cls-11{fill:#dadaf9;}.cls-12{fill:#f4f5fa;}.cls-13{clip-path:url(#clip-path);}.cls-14{fill:#e19908;}.cls-15{clip-path:url(#clip-path-2);}.cls-16{clip-path:url(#clip-path-3);}.cls-17{clip-path:url(#clip-path-4);}.cls-18{clip-path:url(#clip-path-5);}.cls-19{clip-path:url(#clip-path-6);}.cls-20{clip-path:url(#clip-path-7);}.cls-21{clip-path:url(#clip-path-8);}.cls-22{fill:#fff;}</style><clipPath id="clip-path"><path class="cls-1" d="M161.68,223.33l0,7.39a2.6,2.6,0,0,0-1.53-2.15,8.09,8.09,0,0,0-7.33,0,2.62,2.62,0,0,0-1.51,2.11l0-7.39a2.62,2.62,0,0,1,1.51-2.11,8.09,8.09,0,0,1,7.33,0A2.62,2.62,0,0,1,161.68,223.33Z"></path></clipPath><clipPath id="clip-path-2"><path class="cls-2" d="M182.23,228.38l61.16,35.54a2,2,0,0,0-2,.19l-61.16-35.54A1.93,1.93,0,0,1,182.23,228.38Z"></path></clipPath><clipPath id="clip-path-3"><path class="cls-3" d="M239.49,270.63l-61.16-35.54a1.94,1.94,0,0,1-.81-1.77,6.08,6.08,0,0,1,2.75-4.75l61.16,35.54a6,6,0,0,0-2.74,4.76A1.91,1.91,0,0,0,239.49,270.63Z"></path></clipPath><clipPath id="clip-path-4"><path class="cls-3" d="M22.17,49.64l-7.32,4.25C11,56.12,5.79,56,0,53L7.32,48.7C13.11,51.71,18.34,51.87,22.17,49.64Z"></path></clipPath><clipPath id="clip-path-5"><path class="cls-3" d="M21.41,39.49l7.32-4.26a103.21,103.21,0,0,1,50.11,13.7l-7.32,4.25A103.27,103.27,0,0,0,21.41,39.49Z"></path></clipPath><clipPath id="clip-path-6"><path class="cls-3" d="M106.49,218.81l-7.32,4.26c17.8-10.35,38.37-33.94,43.63-87.67l7.32-4.26C144.86,184.88,124.29,208.47,106.49,218.81Z"></path></clipPath><clipPath id="clip-path-7"><path class="cls-3" d="M121.54,97.3,128.86,93c0,13.83,9.38,30.57,21.26,38.1l-7.32,4.26C130.92,127.86,121.5,111.12,121.54,97.3Z"></path></clipPath><clipPath id="clip-path-8"><path class="cls-3" d="M71.52,53.18l7.32-4.25c24.65,14.23,48.75,42.62,50,44.11l-7.32,4.26C120.27,95.8,96.17,67.41,71.52,53.18Z"></path></clipPath></defs><path class="cls-4" d="M103.71,31.42,66.13,53.27c5.27-3.07,12.31-3.09,20.15.48l37.58-21.84C116,28.34,109,28.36,103.71,31.42Z"></path><path class="cls-5" d="M120.44,39a7.5,7.5,0,0,1-.09-2.41l-2.61-1a11.07,11.07,0,0,1,.06,1.15c0,.79-.87.67-1.47.56s-1-.23-1.47-.34v2.21H113c.83,1,2.48.88,3.61,1.33,1,.39,1.94,1.29,3.06,1a1.27,1.27,0,0,0,.84-.69A3.09,3.09,0,0,0,120.44,39Z"></path><path class="cls-6" d="M119.72,39.59c-1.66.72-5-.2-4.79-2.56-.25-.07-.51-.12-.77-.17l-.39-.06a1,1,0,0,0-.34,0,1.27,1.27,0,0,0-.82.79,1.72,1.72,0,0,0,0,1.14l0,.08a1.85,1.85,0,0,0,.35.48,1.64,1.64,0,0,0,.4.34,3.43,3.43,0,0,0,1,.42,20,20,0,0,1,2.16.53c1,.39,1.94,1.29,3.06,1a1.27,1.27,0,0,0,.84-.69,3.09,3.09,0,0,0,0-1.85,5,5,0,0,1-.09-.56C120.15,39,120.06,39.59,119.72,39.59Z"></path><path class="cls-7" d="M131.58,22.39,94,44.23A15.34,15.34,0,0,1,96.63,43c5.92-2.12,13.38-.86,21,3.54a51.22,51.22,0,0,1,6.21,4.26L161.44,29a51.32,51.32,0,0,0-6.22-4.26c-7.62-4.4-15.08-5.66-21-3.54A15.44,15.44,0,0,0,131.58,22.39Z"></path><g class="cls-8"><path class="cls-9" d="M174.29,28.77c-25.83-14.91-47.28-4.93-50.44,22a51.22,51.22,0,0,0-6.21-4.26c-7.63-4.4-15.09-5.66-21-3.54-4.71,1.68-8.29,5.43-10.35,10.74-16.71-7.62-29.81,1.12-29.86,20.82C56.36,95.64,71.22,121.4,89.56,132l140.52,81.12c24.34,14.06,44.21,2.73,44.29-25.25s-19.66-62.17-44-76.22a52.33,52.33,0,0,0-5.94-3C221.34,78.19,200.06,43.65,174.29,28.77Z"></path><path class="cls-9" d="M66.5,74.6c0,17.55,12.82,39.83,28.11,48.65l140.51,81.13c5.31,3.06,10.4,4.69,14.73,4.69a12.43,12.43,0,0,0,7.54-2.29c6.05-4.41,6.88-14.11,6.89-18.95.08-24.33-17.77-55.23-39-67.46a44.44,44.44,0,0,0-4.83-2.42L215,115.62l-.6-6c-2.78-27.46-22.6-59.15-45.13-72.16-6.32-3.66-12.43-5.58-17.66-5.58h-.68c-12.81.42-16.18,12.68-17,20l-1.19,10.15L131.76,70,117.57,58.7a40.77,40.77,0,0,0-5-3.41,24.63,24.63,0,0,0-7.44-2.94,13,13,0,0,0-2.48-.26,8,8,0,0,0-2.65.41c-1.89.68-3.35,2.32-4.35,4.9l-1.92,5-2,5-9.72-4.43a21.46,21.46,0,0,0-4.77-1.58,12.46,12.46,0,0,0-2.43-.25C67.63,61.1,66.52,69.56,66.5,74.6Z"></path><path class="cls-10" d="M77.32,61.35a21.46,21.46,0,0,1,4.77,1.58l9.72,4.43,2-5,1.92-5c1-2.58,2.46-4.22,4.35-4.9a8,8,0,0,1,2.65-.41,13,13,0,0,1,2.48.26,24.63,24.63,0,0,1,7.44,2.94,40.77,40.77,0,0,1,5,3.41L131.76,70l.92-7.86L133.87,52c.86-7.36,4.23-19.62,17-20h.68c5.23,0,11.34,1.92,17.66,5.58,22.53,13,42.35,44.7,45.13,72.16l.6,6,5.51,2.33a44.44,44.44,0,0,1,4.83,2.42c21.19,12.23,39,43.13,39,67.46,0,4.84-.84,14.54-6.89,18.95-4.23-.09-9.18-1.7-14.31-4.67L102.56,121c-15.28-8.82-28.15-31.11-28.1-48.65C74.47,69,75,64.25,77.32,61.35Z"></path></g><path class="cls-11" d="M175.83,3.43c9.22-5.36,22-4.62,36,3.5C237.65,21.81,258.92,56.35,262,86.82l-37.58,21.84c-3.08-30.47-24.36-65-50.13-79.89-14.06-8.12-26.82-8.86-36-3.5Z"></path><path class="cls-7" d="M261.48,216.16l37.58-21.84c7.93-4.61,12.86-14.4,12.9-28.3.08-28-19.67-62.17-44-76.23a54,54,0,0,0-5.95-3l-37.58,21.84a52.33,52.33,0,0,1,5.94,3c24.35,14,44.09,48.25,44,76.22C274.33,201.76,269.41,211.55,261.48,216.16Z"></path><path class="cls-12" d="M189.69,111.86v-4.45c0-8.81-6.21-19.56-13.84-24s-13.84-.82-13.84,8v4.45c-1.63.18-2.72,1.59-2.72,3.94v20.85a12.28,12.28,0,0,0,5.55,9.61l22,12.71c3.07,1.77,5.55.34,5.55-3.2V118.94A12.11,12.11,0,0,0,189.69,111.86Zm-13.84-23.6c5.34,3.08,9.67,10.59,9.67,16.75v3.54L166.18,97.39V93.84C166.18,87.68,170.52,85.18,175.85,88.26Zm2.75,36.3v6.34l-5.5-3.18v-6.34a10.17,10.17,0,0,1-2-5.6c0-3,2.13-4.25,4.75-2.74a10.52,10.52,0,0,1,4.75,8.22C180.6,123.1,179.81,124.26,178.6,124.56Z"></path><g class="cls-8"><g class="cls-8"><path class="cls-1" d="M161.68,223.33l0,7.39a2.6,2.6,0,0,0-1.53-2.15,8.09,8.09,0,0,0-7.33,0,2.62,2.62,0,0,0-1.51,2.11l0-7.39a2.62,2.62,0,0,1,1.51-2.11,8.09,8.09,0,0,1,7.33,0A2.62,2.62,0,0,1,161.68,223.33Z"></path><g class="cls-13"><g class="cls-8"><path class="cls-1" d="M161.68,223.33l0,7.39a1.58,1.58,0,0,0,0-.38l0-7.39A2.33,2.33,0,0,1,161.68,223.33Z"></path><path class="cls-2" d="M161.64,223l0,7.39a2.81,2.81,0,0,0-1.49-1.77,7.8,7.8,0,0,0-4.29-.85l0-7.39a7.8,7.8,0,0,1,4.29.85A2.86,2.86,0,0,1,161.64,223Z"></path><path class="cls-3" d="M155.85,220.33l0,7.39a7.08,7.08,0,0,0-3,.85,2.62,2.62,0,0,0-1.51,2.11l0-7.39a2.62,2.62,0,0,1,1.51-2.11A7.08,7.08,0,0,1,155.85,220.33Z"></path></g></g></g><polygon class="cls-1" points="145.08 225.85 145.06 233.24 145.04 228.29 145.06 220.9 145.08 225.85"></polygon><polygon class="cls-14" points="190.92 221.82 190.9 229.21 168.84 242.03 168.86 234.64 190.92 221.82"></polygon><polygon class="cls-2" points="160.31 234.65 160.29 242.03 145.06 233.24 145.08 225.85 160.31 234.65"></polygon><polygon class="cls-3" points="168.86 234.64 168.84 242.03 160.29 242.03 160.31 234.65 168.86 234.64"></polygon><path class="cls-1" d="M190.89,216.87c0,1.94,0,3,0,4.95l-22.06,12.82h-8.55l-15.23-8.79,0-4.95,22.06-12.82h8.54Zm-30.72,8.56c2-1.17,2-3.07,0-4.25a8.09,8.09,0,0,0-7.33,0c-2,1.18-2,3.08,0,4.25A8.11,8.11,0,0,0,160.17,225.43Z"></path></g><g class="cls-8"><g class="cls-8"><path class="cls-2" d="M182.23,228.38l61.16,35.54a2,2,0,0,0-2,.19l-61.16-35.54A1.93,1.93,0,0,1,182.23,228.38Z"></path><g class="cls-15"><g class="cls-8"><path class="cls-2" d="M241.43,264.11l-61.16-35.54h0l61.16,35.54Z"></path><path class="cls-2" d="M241.45,264.1l-61.16-35.54a1.93,1.93,0,0,1,1.94-.18l61.16,35.54A1.93,1.93,0,0,0,241.45,264.1Z"></path></g></g></g><g class="cls-8"><path class="cls-3" d="M239.49,270.63l-61.16-35.54a1.94,1.94,0,0,1-.81-1.77,6.08,6.08,0,0,1,2.75-4.75l61.16,35.54a6,6,0,0,0-2.74,4.76A1.91,1.91,0,0,0,239.49,270.63Z"></path><g class="cls-16"><g class="cls-8"><path class="cls-3" d="M239.49,270.63l-61.16-35.54a1.55,1.55,0,0,1-.66-.83l61.17,35.54A1.5,1.5,0,0,0,239.49,270.63Z"></path><path class="cls-3" d="M238.84,269.8l-61.17-35.54a3.25,3.25,0,0,1-.15-.94v0l61.17,35.55v.05A2.59,2.59,0,0,0,238.84,269.8Z"></path><path class="cls-3" d="M238.69,268.82l-61.17-35.55a4.75,4.75,0,0,1,.24-1.36l61.16,35.54A4.47,4.47,0,0,0,238.69,268.82Z"></path><path class="cls-2" d="M238.92,267.45l-61.16-35.54a6.15,6.15,0,0,1,.82-1.69l61.16,35.54A6.6,6.6,0,0,0,238.92,267.45Z"></path><path class="cls-1" d="M239.74,265.76l-61.16-35.54a6.08,6.08,0,0,1,.78-.95l61.17,35.54A5.62,5.62,0,0,0,239.74,265.76Z"></path><path class="cls-1" d="M240.53,264.81l-61.17-35.54a4.52,4.52,0,0,1,.91-.7l61.16,35.54A4.86,4.86,0,0,0,240.53,264.81Z"></path></g></g></g><path class="cls-14" d="M241.43,264.11c1.52-.88,2.76-.17,2.77,1.58a6.08,6.08,0,0,1-2.75,4.75c-1.52.88-2.76.17-2.76-1.57A6,6,0,0,1,241.43,264.11Z"></path></g><g class="cls-8"><polygon class="cls-3" points="229.59 263.96 229.6 268.13 231.28 267.17 231.27 262.99 229.59 263.96"></polygon><polygon class="cls-14" points="212.69 265.69 212.7 269.86 214.12 269.04 214.11 264.87 212.69 265.69"></polygon><polygon class="cls-3" points="211.42 264.95 211.43 269.12 212.7 269.86 212.69 265.69 211.42 264.95"></polygon><polygon class="cls-3" points="214.11 264.87 214.12 269.04 215.92 270.09 215.91 265.92 214.11 264.87"></polygon><polygon class="cls-3" points="219.45 267.98 219.47 272.15 221.26 273.19 221.25 269.02 219.45 267.98"></polygon><polygon class="cls-14" points="228.92 269.04 228.93 273.21 233.65 270.49 233.64 266.31 228.92 269.04"></polygon><polygon class="cls-3" points="226.64 267.72 226.65 271.89 228.93 273.21 228.92 269.04 226.64 267.72"></polygon><polygon class="cls-3" points="213.38 267.37 213.4 271.55 216.94 273.61 216.93 269.43 213.38 267.37"></polygon><polygon class="cls-14" points="216.93 269.43 216.94 273.61 219.47 272.15 219.45 267.98 216.93 269.43"></polygon><polygon class="cls-14" points="221.4 270.75 221.41 274.92 226.65 271.89 226.64 267.72 221.4 270.75"></polygon><polygon class="cls-2" points="211.42 264.95 212.69 265.69 214.11 264.87 215.91 265.92 213.38 267.37 216.93 269.43 219.45 267.98 221.25 269.02 219.83 269.84 221.4 270.75 226.64 267.72 228.92 269.04 233.64 266.31 229.59 263.96 231.27 262.99 224.54 259.09 222.87 260.06 221.38 259.19 211.42 264.95"></polygon><polygon class="cls-3" points="219.83 269.84 219.84 274.01 221.41 274.92 221.4 270.75 219.83 269.84"></polygon></g><g class="cls-8"><polygon class="cls-2" points="208.46 258.3 208.47 261.97 211.38 263.67 211.37 260 208.46 258.3"></polygon><polygon class="cls-14" points="211.37 260 211.38 263.67 218.77 259.4 218.76 255.73 211.37 260"></polygon><polygon class="cls-2" points="208.46 258.3 211.37 260 218.76 255.73 215.84 254.04 208.46 258.3"></polygon></g><g class="cls-8"><g class="cls-8"><path class="cls-3" d="M22.17,49.64l-7.32,4.25C11,56.12,5.79,56,0,53L7.32,48.7C13.11,51.71,18.34,51.87,22.17,49.64Z"></path><g class="cls-17"><g class="cls-8"><path class="cls-3" d="M0,53,7.32,48.7c5.79,3,11,3.17,14.85.94l-7.32,4.25C11,56.12,5.79,56,0,53Z"></path></g></g></g><g class="cls-8"><path class="cls-3" d="M21.41,39.49l7.32-4.26a103.21,103.21,0,0,1,50.11,13.7l-7.32,4.25A103.27,103.27,0,0,0,21.41,39.49Z"></path><g class="cls-18"><g class="cls-8"><path class="cls-3" d="M21.41,39.49l7.32-4.26a103.21,103.21,0,0,1,50.11,13.7l-7.32,4.25A103.27,103.27,0,0,0,21.41,39.49Z"></path></g></g></g><g class="cls-8"><path class="cls-3" d="M106.49,218.81l-7.32,4.26c17.8-10.35,38.37-33.94,43.63-87.67l7.32-4.26C144.86,184.88,124.29,208.47,106.49,218.81Z"></path><g class="cls-19"><g class="cls-8"><path class="cls-3" d="M142.8,135.4l7.32-4.26c-5.26,53.74-25.83,77.33-43.63,87.67l-7.32,4.26C117,212.72,137.54,189.13,142.8,135.4Z"></path></g></g></g><g class="cls-8"><path class="cls-3" d="M121.54,97.3,128.86,93c0,13.83,9.38,30.57,21.26,38.1l-7.32,4.26C130.92,127.86,121.5,111.12,121.54,97.3Z"></path><g class="cls-20"><g class="cls-8"><path class="cls-3" d="M121.54,97.3,128.86,93c0,13.83,9.38,30.57,21.26,38.1l-7.32,4.26C130.92,127.86,121.5,111.12,121.54,97.3Z"></path></g></g></g><g class="cls-8"><path class="cls-3" d="M71.52,53.18l7.32-4.25c24.65,14.23,48.75,42.62,50,44.11l-7.32,4.26C120.27,95.8,96.17,67.41,71.52,53.18Z"></path><g class="cls-21"><g class="cls-8"><path class="cls-3" d="M71.52,53.18l7.32-4.25c24.65,14.23,48.75,42.62,50,44.11l-7.32,4.26C120.27,95.8,96.17,67.41,71.52,53.18Z"></path></g></g></g><path class="cls-1" d="M71.52,53.18c24.65,14.23,48.75,42.62,50,44.12,0,13.82,9.38,30.56,21.26,38.1-9.49,96.84-68.67,95.77-71.79,95.71C67.91,227.58,8.91,160.42,0,53c11.88,6.18,21.37.36,21.41-13.46A103.27,103.27,0,0,1,71.52,53.18Z"></path><path class="cls-2" d="M74.72,222.63c-12-14.57-54.93-72.11-65.28-158.92,8.16-.18,16.29-5.09,19.18-15.59A97.21,97.21,0,0,1,67.36,60.38c19.9,11.49,39.68,33,46,40.16,1.1,14.08,9.39,29.5,20.66,38.73-2.19,18.38-6.46,34.1-12.71,46.78-5.31,10.79-12.07,19.41-20.1,25.64A52.44,52.44,0,0,1,74.72,222.63Z"></path><path class="cls-3" d="M78,222.17c-1.23.22-2.33.36-3.27.46-12-14.57-54.93-72.11-65.27-158.92a20.67,20.67,0,0,0,3.23-.32C23.58,147.37,63.74,204.25,78,222.17Z"></path></g><path class="cls-22" d="M48,138.88V108.65c0-15.11,10.65-21.26,23.74-13.71s23.74,26,23.74,41.12v30.23c0,15.12-10.65,21.27-23.74,13.71S48,154,48,138.88Zm1.21-29.53v30.23c0,14.35,10.11,31.85,22.53,39s22.53,1.34,22.53-13V135.36c0-14.34-10.11-31.85-22.53-39S49.2,95,49.2,109.35Z"></path><path class="cls-22" d="M48,138.88V108.65c0-15.11,10.65-21.26,23.74-13.71s23.74,26,23.74,41.12v30.23c0,15.12-10.65,21.27-23.74,13.71S48,154,48,138.88Zm1.21-29.53v30.23c0,14.35,10.11,31.85,22.53,39s22.53,1.34,22.53-13V135.36c0-14.34-10.11-31.85-22.53-39S49.2,95,49.2,109.35Z"></path><path class="cls-22" d="M71.36,174.45a.59.59,0,0,1-.31-.1,32.5,32.5,0,0,1-4.58-3.47,1.25,1.25,0,0,1-.41-1.11c.09-.32.43-.34.75-.05A29.94,29.94,0,0,0,71.09,173a.89.89,0,0,1,.29.26.55.55,0,0,1,.29.08l.06,0a16.11,16.11,0,0,0,8.36,2.44c.3,0,.66.33.82.77s0,.79-.25.79a17.18,17.18,0,0,1-8.93-2.6l-.06,0A1.12,1.12,0,0,1,71.36,174.45ZM83.61,176c-.22-.41-.2-.84,0-1l.43-.21c.24-.13.62.11.85.52s.22.85,0,1l-.45.22a.48.48,0,0,1-.41-.06A1.31,1.31,0,0,1,83.61,176ZM58.49,161l-.44-.76c-.23-.41-.23-.85,0-1s.62.09.86.5c.13.24.27.48.41.71.24.41.25.86,0,1a.42.42,0,0,1-.44,0A1.27,1.27,0,0,1,58.49,161Zm-3.27-6.62a36.51,36.51,0,0,1-2.66-11.71.53.53,0,0,1,.07-.32,1,1,0,0,1-.09-.4c0-.15,0-.29,0-.43v-4.78c0-.39.27-.55.61-.35a1.34,1.34,0,0,1,.6,1.05v4.77c0,.14,0,.27,0,.41a.66.66,0,0,1-.07.3,1.31,1.31,0,0,1,.09.38,34.13,34.13,0,0,0,2.49,11c.17.43.08.81-.21.84a.55.55,0,0,1-.31-.08A1.42,1.42,0,0,1,55.22,154.37Zm33.91,15.86a1.22,1.22,0,0,1-.38-1.11,17.08,17.08,0,0,0,.9-4.38.42.42,0,0,1,.1-.27.86.86,0,0,1-.06-.38c0-.36,0-.74,0-1.12v-9.21c0-.39.27-.54.6-.35a1.32,1.32,0,0,1,.61,1.05v9.21q0,.62,0,1.2a.5.5,0,0,1-.1.29,1.13,1.13,0,0,1,0,.4,18.06,18.06,0,0,1-.95,4.68c-.09.24-.32.29-.57.14A1.3,1.3,0,0,1,89.13,170.23Zm.59-21.66v-.7c0-.38.27-.54.6-.35a1.35,1.35,0,0,1,.61,1v.69c0,.39-.27.55-.61.35A1.33,1.33,0,0,1,89.72,148.57ZM52.53,126.34v-.69c0-.39.27-.55.61-.35a1.34,1.34,0,0,1,.6,1V127c0,.38-.27.54-.6.35A1.34,1.34,0,0,1,52.53,126.34Zm0-5.89v-9.18q0-.61,0-1.23a.5.5,0,0,1,.1-.29,1.07,1.07,0,0,1,0-.39,18,18,0,0,1,1-4.68c.11-.3.45-.3.77,0a1.19,1.19,0,0,1,.37,1.11,17,17,0,0,0-.9,4.37.47.47,0,0,1-.1.28.8.8,0,0,1,.06.37c0,.38,0,.76,0,1.15v9.18c0,.39-.27.54-.6.35A1.32,1.32,0,0,1,52.53,120.45Zm37.19,17v-4.74c0-.14,0-.29,0-.44a.56.56,0,0,1,.07-.3,1.24,1.24,0,0,1-.09-.38,34.13,34.13,0,0,0-2.51-11c-.17-.43-.08-.81.21-.84s.66.29.83.72a36.56,36.56,0,0,1,2.68,11.71.53.53,0,0,1-.07.32,1,1,0,0,1,.09.4c0,.16,0,.31,0,.47v4.74c0,.39-.27.55-.61.35A1.34,1.34,0,0,1,89.72,137.48Zm-5.2-22.32c-.13-.24-.27-.48-.41-.71-.24-.41-.25-.85,0-1s.61.06.85.47l.45.75c.23.41.23.86,0,1a.45.45,0,0,1-.43,0A1.28,1.28,0,0,1,84.52,115.16Zm-26-15.55c-.23-.41-.22-.85,0-1l.46-.22c.25-.11.63.14.85.55s.2.85,0,1a3.42,3.42,0,0,0-.43.21.44.44,0,0,1-.41,0A1.15,1.15,0,0,1,58.54,99.61Zm4-1.23c-.15-.43,0-.79.26-.8a17.2,17.2,0,0,1,8.9,2.61l0,0a1.12,1.12,0,0,1,.31.27.53.53,0,0,1,.31.1A31.66,31.66,0,0,1,77,104a1.25,1.25,0,0,1,.41,1.11c-.09.31-.42.34-.74,0A29.92,29.92,0,0,0,72.34,102a1.32,1.32,0,0,1-.3-.28.55.55,0,0,1-.31-.08,16.13,16.13,0,0,0-8.34-2.45.43.43,0,0,1-.28-.08A1.3,1.3,0,0,1,62.57,98.38Z"></path><path class="cls-22" d="M71.67,169.48a1.34,1.34,0,0,1-.6-1c0-.39.27-.54.6-.35l.06,0c4.11,2.37,7.94,2.45,10.51.22.21-.19.59,0,.85.38s.3.85.1,1c-2.81,2.43-7,2.35-11.47-.24Zm-3.11-2.19a34.63,34.63,0,0,1-10-14.86c-.15-.44,0-.78.27-.78s.67.36.81.79a31.78,31.78,0,0,0,9.17,13.63,1.29,1.29,0,0,1,.47,1.1c-.07.29-.32.37-.6.21Zm15.49.23a1.09,1.09,0,0,1-.27-1.1,12.17,12.17,0,0,0,1.39-6.07v-7.12c0-.39.27-.54.61-.35a1.34,1.34,0,0,1,.6,1.05v7.12a13.31,13.31,0,0,1-1.51,6.62c-.11.19-.32.2-.55.08A1.38,1.38,0,0,1,84.05,167.52ZM57.5,148.41a23.09,23.09,0,0,1-.43-4.28V133.47a.37.37,0,0,1,.61-.35,1.38,1.38,0,0,1,.61,1v10.66a21.84,21.84,0,0,0,.38,3.93c.08.42-.12.68-.44.59l-.15-.07A1.3,1.3,0,0,1,57.5,148.41Zm27.67,1.35V135.19c0-.38.27-.54.61-.35a1.38,1.38,0,0,1,.61,1v14.57c0,.39-.27.54-.6.35A1.32,1.32,0,0,1,85.17,149.76ZM57.07,130V115.43a.37.37,0,0,1,.61-.35,1.38,1.38,0,0,1,.61,1V130.7c0,.39-.28.55-.61.35A1.35,1.35,0,0,1,57.07,130Zm28.1,1.72v-1.6a27.35,27.35,0,0,0-4.07-13.47c-.24-.41-.24-.86,0-1s.62.07.86.48a29.94,29.94,0,0,1,4.44,14.69v1.6c0,.39-.28.55-.61.35A1.32,1.32,0,0,1,85.17,131.72ZM57.71,113a1.32,1.32,0,0,1-.53-1.08c.52-4.83,3-7.9,6.84-8.43.29,0,.66.27.84.7s.09.82-.2.86c-3.51.48-5.8,3.3-6.28,7.73,0,.33-.3.44-.6.27Zm21.13.27a25,25,0,0,0-7.11-6.47,13.53,13.53,0,0,0-4.48-1.7,1.2,1.2,0,0,1-.78-.87c-.11-.43.06-.73.37-.68a14.88,14.88,0,0,1,4.89,1.85,27.52,27.52,0,0,1,7.76,7,1,1,0,0,1,.19,1.08.38.38,0,0,1-.51,0A1.09,1.09,0,0,1,78.84,113.3Z"></path><path class="cls-22" d="M71.72,164.26l0,0a.76.76,0,0,0-.33-.19,21.09,21.09,0,0,1-6.81-7.39c-.23-.41-.23-.85,0-1s.63.08.86.49a18.47,18.47,0,0,0,6,6.5l.15.11.14.07,0,0a8.44,8.44,0,0,0,3.41,1.18,1.18,1.18,0,0,1,.79.84c.13.43,0,.75-.33.72a9.71,9.71,0,0,1-3.88-1.35Zm8.42-1.65a1.13,1.13,0,0,1-.3-1.1l.12-.24c.13-.29.48-.25.79.08a1.13,1.13,0,0,1,.32,1.1c0,.09-.08.18-.13.27s-.32.23-.55.09A.88.88,0,0,1,80.14,162.61Zm-17.77-11-.12-.43c-.12-.43,0-.74.35-.69a1.15,1.15,0,0,1,.78.86c0,.12.07.25.11.37.13.43,0,.75-.33.72a.46.46,0,0,1-.23-.08A1.33,1.33,0,0,1,62.37,151.61Zm18.26,6.11v-8.27a.78.78,0,0,1,0-.16,1.37,1.37,0,0,1,0-.19v-4.32c0-.38.27-.54.61-.35a1.34,1.34,0,0,1,.6,1v4.31a.44.44,0,0,1,0,.17.65.65,0,0,1,0,.19v8.27c0,.39-.27.54-.6.35A1.32,1.32,0,0,1,80.63,157.72Zm-19-15.34v-4.31a.47.47,0,0,1,0-.17.62.62,0,0,1,0-.19v-8.27c0-.38.27-.54.6-.35a1.35,1.35,0,0,1,.61,1v8.27a.88.88,0,0,1,0,.17,1.23,1.23,0,0,1,0,.19v4.31c0,.39-.27.55-.61.35A1.34,1.34,0,0,1,61.62,142.38Zm19-5.87v-.36c0-.38.27-.54.61-.35a1.37,1.37,0,0,1,.6,1v.36c0,.39-.27.55-.6.35A1.32,1.32,0,0,1,80.63,136.51Zm-19-11.38v-.36c0-.39.27-.54.6-.35a1.32,1.32,0,0,1,.61,1v.36c0,.38-.27.54-.61.35A1.34,1.34,0,0,1,61.62,125.13Zm19,6.71V127.5a15,15,0,0,0-.56-3.92.68.68,0,0,1,0-.19,1.08,1.08,0,0,1-.08-.19A20.36,20.36,0,0,0,78,118.75c-.24-.41-.24-.85,0-1s.62.09.85.5a23,23,0,0,1,2.19,5,.93.93,0,0,1,0,.22.9.9,0,0,1,.08.21,16.72,16.72,0,0,1,.64,4.45v4.35c0,.39-.27.54-.6.35A1.32,1.32,0,0,1,80.63,131.84ZM62.22,117.55a1.34,1.34,0,0,1-.6-1,9.71,9.71,0,0,1,.77-4,.27.27,0,0,1,.09-.12.66.66,0,0,1,0-.15,5.13,5.13,0,0,1,5.36-2.88,1.18,1.18,0,0,1,.79.84c.13.43,0,.76-.33.72a4.5,4.5,0,0,0-4.71,2.53.21.21,0,0,1-.08.1.47.47,0,0,1,0,.14,8.53,8.53,0,0,0-.68,3.54c0,.39-.27.54-.61.35ZM72,112.26l-.29-.17a1.35,1.35,0,0,1-.61-1c0-.39.27-.54.61-.35.1,0,.22.13.33.2a1.31,1.31,0,0,1,.58,1.06c0,.37-.27.51-.6.32Z"></path><path class="cls-22" d="M71.11,158c0-.39.28-.54.62-.35a3.55,3.55,0,0,0,2.42.55c.27,0,.65.25.84.68s.11.82-.17.87a4.58,4.58,0,0,1-3.11-.71A1.31,1.31,0,0,1,71.11,158Zm-3-2.6a12.85,12.85,0,0,1-1.74-4.15c-.09-.42.1-.7.42-.62a1.24,1.24,0,0,1,.75.92,10,10,0,0,0,1.36,3.25c.25.39.28.85.06,1a.43.43,0,0,1-.46,0A1.15,1.15,0,0,1,68.1,155.37Zm8.24,2.12a1.25,1.25,0,0,1-.42-1.1,4.72,4.72,0,0,0,.17-1.28v-1.79c0-.39.27-.54.6-.35A1.32,1.32,0,0,1,77.3,154v1.79a6,6,0,0,1-.21,1.63c-.08.26-.32.33-.58.17A.88.88,0,0,1,76.34,157.49Zm-10.18-10.6v-3.37c0-.39.27-.55.6-.35a1.32,1.32,0,0,1,.61,1v3.38c0,.38-.27.54-.61.35A1.37,1.37,0,0,1,66.16,146.89Zm9.93,2.38V145.9c0-.39.27-.54.6-.35a1.32,1.32,0,0,1,.61,1V150c0,.39-.27.54-.61.35A1.34,1.34,0,0,1,76.09,149.27Zm-9.93-9.8v-3.38c0-.38.27-.54.6-.35a1.35,1.35,0,0,1,.61,1v3.38c0,.38-.27.54-.61.35A1.37,1.37,0,0,1,66.16,139.47Zm9.93,2.38v-3.37c0-.39.27-.55.6-.35a1.32,1.32,0,0,1,.61,1.05v3.37c0,.39-.27.54-.61.35A1.34,1.34,0,0,1,76.09,141.85Zm-9.93-9.8v-3.38c0-.38.27-.54.6-.35a1.35,1.35,0,0,1,.61,1.05v3.38c0,.38-.27.54-.61.35A1.37,1.37,0,0,1,66.16,132.05Zm9.93,2.38v-3.37c0-.39.27-.55.6-.35a1.32,1.32,0,0,1,.61,1v3.37c0,.39-.27.54-.61.35A1.34,1.34,0,0,1,76.09,134.43Zm-9.93-9.8v-3.38c0-.38.27-.54.6-.35a1.35,1.35,0,0,1,.61,1v3.38c0,.38-.27.54-.61.34A1.33,1.33,0,0,1,66.16,124.63ZM76.09,127v-2.14a6.4,6.4,0,0,0-.1-1.13c-.07-.42.13-.67.46-.57a1.27,1.27,0,0,1,.72,1,8.22,8.22,0,0,1,.13,1.45v2.14c0,.38-.27.54-.61.35A1.35,1.35,0,0,1,76.09,127Zm-9.25-8.71a1.22,1.22,0,0,1-.37-1.11,2.9,2.9,0,0,1,1.91-1.9c.27-.08.65.2.85.62s.15.83-.12.91a2.28,2.28,0,0,0-1.49,1.5c-.09.23-.33.28-.58.13Zm7.52,1.57A8.62,8.62,0,0,0,72,117.49a1.33,1.33,0,0,1-.57-1.07c0-.38.3-.51.64-.29a11.13,11.13,0,0,1,3,3.05c.26.39.31.85.11,1a.37.37,0,0,1-.48,0A1.1,1.1,0,0,1,74.36,119.87Z"></path><path class="cls-22" d="M73.88,132.86c.34.2.61,0,.61-.35a6.11,6.11,0,0,0-2.76-4.77,2.3,2.3,0,0,0-1.43-.36c-.28,0-.38.41-.2.84s.54.75.83.72a1.32,1.32,0,0,1,.8.2,3.42,3.42,0,0,1,1.55,2.68A1.33,1.33,0,0,0,73.88,132.86Z"></path><path class="cls-22" d="M69,140.63v-3.35c0-.39.27-.54.61-.35a1.34,1.34,0,0,1,.6,1v3.35c0,.39-.27.54-.6.35A1.32,1.32,0,0,1,69,140.63Zm0-10v-.45c0-.38.27-.54.61-.35a1.37,1.37,0,0,1,.6,1.05v.45c0,.39-.27.54-.6.35A1.32,1.32,0,0,1,69,130.58Z"></path><path class="cls-22" d="M71.73,147.2c.33.2.6,0,.6-.34a1.34,1.34,0,0,0-.6-1.05,3.46,3.46,0,0,1-1.55-2.68v-1.35a1.34,1.34,0,0,0-.6-1.05c-.34-.19-.61,0-.61.35v1.35A6.08,6.08,0,0,0,71.73,147.2Z"></path></svg>