<svg xmlns="http://www.w3.org/2000/svg" xmlns:xlink="http://www.w3.org/1999/xlink" id="Layer_1" x="0px" y="0px" viewBox="0 0 660 450" style="enable-background:new 0 0 660 450;" xml:space="preserve"><style type="text/css">	.st0{fill:#72B5E8;}	.st1{fill:#A8CFF0;}	.st2{fill:#D1EBFF;}	.st3{fill:#03336E;}	.st4{fill:#2672AB;}	.st5{opacity:0.5;fill:#D1EBFF;enable-background:new    ;}	.st6{fill:#3F92D1;}	.st7{fill:#001A46;}	.st8{fill:#9D9EB3;}	.st9{fill:#EB4680;}	.st10{fill:#0FBAB8;}	.st11{fill:#3ECFCD;}	.st12{fill:#F76195;}	.st13{fill:#FFFFFF;}	.st14{fill:#92B4D1;}</style><g>	<g>		<g>			<path class="st0" d="M295.3,268.2L257.6,239c-1.5-1-3.5,0-3.5,1.8V268l44.2,33.6c2.2,1.5,5.2-0.1,5.2-2.7v-15.2    C303.5,277.5,300.4,271.6,295.3,268.2z"></path>		</g>		<path class="st1" d="M301.6,301.9L301.6,301.9l78.2-45.2c1.2-0.4,2.1-1.6,2.1-3.1l0-15.2c0-6.2-3.1-12-8.2-15.5l-37.7-29.2   c-0.7-0.5-1.5-0.5-2.2-0.2l-78.5,45.4c0.7-0.3,1.5-0.3,2.2,0.2l37.7,29.2c5.1,3.5,8.2,9.3,8.2,15.5v15.2   C303.5,300.3,302.7,301.4,301.6,301.9z"></path>		<path class="st2" d="M302.5,301.3c1.4-0.3,2.6-1.6,2.6-3.2v-15.2c0-6.2-3.1-12-8.2-15.5l-37.7-29.2c-1-0.7-2.3-0.4-3,0.5   c0.5,0,1,0.1,1.4,0.4l37.7,29.2c5.1,3.5,8.2,9.3,8.2,15.5V299C303.5,299.9,303.1,300.7,302.5,301.3z"></path>		<g>			<polygon class="st3" points="291.1,298.4 290.7,296.4 292.5,297.6    "></polygon>			<path class="st4" d="M288.3,297.4l1.7,2.9l3.5-2l-1-0.8l-1.2,0.5v-17.9c0-4.4-2.7-10.7-7.2-13.8l-31.2-28.4    c-0.6-0.4-1.3-0.4-1.9-0.2l-1.2,0.8c0.6-0.3,1.3-0.2,1.9,0.2l31.2,28.4c4.5,3.1,7.2,9.3,7.2,13.8v13.7    C290,296,289.3,296.9,288.3,297.4z"></path>			<g>				<path class="st3" d="M282.7,267.2l-31.2-28.4c-1.3-0.9-3.1,0-3.1,1.6v29.1c0,4.5,2.2,8.6,5.9,11.2l35.6,19.5V281     C290,276.6,287.3,270.3,282.7,267.2z"></path>			</g>		</g>		<path class="st5" d="M372.7,224.5c4.5,3.1,7.2,8.2,7.2,13.7l0,15.2c0,0.6-0.4,1-0.8,1.1l-0.2,0.1l-73.3,42.5v-13.5   c0-6.9-3.4-13.4-9.1-17.2L372.7,224.5z"></path>		<path class="st1" d="M379.9,238.3l0,15.2c0,0.6-0.4,1-0.8,1.1l-0.2,0.1l-73.3,42.5v-16.5L379.9,238.3z"></path>		<path class="st6" d="M305.6,295.9v1.3l73.3-42.5l0.2-0.1c0.4-0.1,0.8-0.5,0.8-1.1l0-15.2c0-5.5-2.7-10.6-7.2-13.7l-37.7-29.2   l-2.2-1.2l-1,0.6l1,0.6l37.7,29.2c4.5,3.1,7.2,8.2,7.2,13.7l0,15.2c0,0.6-0.4,1-0.8,1.1l-0.2,0.1L305.6,295.9z"></path>		<path class="st7" d="M284.1,247l61.1-35.6c1.5-0.9,1.6-3.1,0.1-4.1l-11.2-8.6l-68,39.6l10.9,8.4   C279.2,248.2,281.9,248.3,284.1,247z"></path>		<polygon class="st7" points="312.6,282.4 312.6,291.9 372.5,257.1 372.5,247.8   "></polygon>		<polygon class="st8" points="312.6,290.4 312.6,291.9 372.5,257.1 372.5,248 371,248.9 371,256.5   "></polygon>		<g>			<path class="st4" d="M298.4,243.2l5-2.9c0.9-0.5,2.2-0.4,3.1,0.1c0.8,0.6,0.8,1.4,0,1.9l-5,2.9c-0.9,0.5-2.2,0.4-3.1-0.1    C297.6,244.6,297.6,243.7,298.4,243.2z"></path>			<path class="st4" d="M288.6,248.8l5-2.9c0.9-0.5,2.2-0.4,3.1,0.1c0.8,0.6,0.8,1.4,0,1.9l-5,2.9c-0.9,0.5-2.2,0.4-3.1-0.1    C287.7,250.2,287.8,249.3,288.6,248.8z"></path>			<path class="st9" d="M298.4,244.5c0.8,0.6,2.2,0.6,3.1,0.1l5-2.9c0.9-0.5,0.9-1.4,0-1.9c-0.8-0.6-2.2-0.6-3.1-0.1l-5,2.9    C297.6,243.1,297.6,243.9,298.4,244.5z"></path>			<path class="st10" d="M288.6,250.2c0.8,0.6,2.2,0.6,3.1,0.1l5-2.9c0.9-0.5,0.9-1.4,0-1.9c-0.8-0.6-2.2-0.6-3.1-0.1l-5,2.9    C287.8,248.7,287.7,249.6,288.6,250.2z"></path>			<path class="st11" d="M288,249c-0.1,0.4,0.1,0.8,0.6,1.2c0.8,0.6,2.2,0.6,3.1,0.1l5-2.9c0.5-0.3,0.7-0.8,0.6-1.2    c-0.1,0.3-0.3,0.6-0.6,0.8l-5,2.9c-0.9,0.5-2.2,0.4-3.1-0.1C288.2,249.5,288.1,249.3,288,249z"></path>			<path class="st12" d="M297.8,243.3c-0.1,0.4,0.1,0.8,0.6,1.2c0.8,0.6,2.2,0.6,3.1,0.1l5-2.9c0.5-0.3,0.7-0.8,0.6-1.2    c-0.1,0.3-0.3,0.6-0.6,0.8l-5,2.9c-0.9,0.5-2.2,0.4-3.1-0.1C298.1,243.9,297.9,243.6,297.8,243.3z"></path>		</g>		<g>			<g>				<polygon class="st1" points="393.6,264.9 393.6,268.8 392,269.8 392,265.9     "></polygon>				<polygon class="st0" points="371.2,253.8 371.2,257.6 392,269.8 392,265.9     "></polygon>				<polygon class="st2" points="372.8,252.8 393.6,264.9 392,265.9 371.2,253.8     "></polygon>			</g>		</g>		<g>			<g>				<polygon class="st1" points="397.9,271 397.9,272.9 339.8,305.8 339.8,303.9     "></polygon>				<polygon class="st0" points="313,288.2 313,290.1 339.8,305.8 339.8,303.9     "></polygon>				<polygon class="st2" points="371,255.3 397.9,271 339.8,303.9 313,288.2     "></polygon>			</g>		</g>		<g>			<g>				<polygon class="st1" points="334.8,298.9 334.8,302.8 333.2,303.8 333.2,299.9     "></polygon>				<polygon class="st0" points="312.4,287.8 312.4,291.6 333.2,303.8 333.2,299.9     "></polygon>				<polygon class="st2" points="314,286.8 334.8,298.9 333.2,299.9 312.4,287.8     "></polygon>			</g>		</g>		<g>			<g>				<polygon class="st1" points="337.2,171.6 337.2,202.2 269.9,240.4 269.9,209.7     "></polygon>				<polygon class="st0" points="268.1,208.8 268.1,239.4 269.9,240.4 269.9,209.7     "></polygon>				<polygon class="st2" points="335.4,170.6 337.2,171.6 269.9,209.7 268.1,208.8     "></polygon>				<polygon class="st13" points="333.1,180.8 333.1,207.6 274.9,240.6 274.9,213.7     "></polygon>			</g>		</g>	</g>	<polygon class="st14" points="314.1,286.8 369.1,255.1 421.9,286.6 367,318.3  "></polygon>	<polygon class="st13" points="314.1,286.7 369.1,255 421.8,285.2 366.9,317  "></polygon>	<g>		<path class="st0" d="M340.9,275.4l1,0.6l2-1.1l-1-0.6L340.9,275.4z M352.2,271.3l-13.2,7.6l1,0.6l13.2-7.6L352.2,271.3z    M343.7,278.6l1,0.6l5.6-3.2l-1-0.6L343.7,278.6z M354.5,274.9l-10.1,5.8l1,0.6l10.1-5.8L354.5,274.9z M330.5,282.5l10.5-6l-1-0.6   l-10.5,6L330.5,282.5z M335.9,284.3l8-4.6l-1-0.6l-8,4.6L335.9,284.3z M362.4,265.4l-9.3,5.4l1,0.6l9.3-5.4L362.4,265.4z    M360.7,272.4l-1-0.6l-4.4,2.5l1,0.6L360.7,272.4z M354.6,267.5l-10.9,6.3l1,0.6l10.9-6.3L354.6,267.5z M351.2,275.5l9.1-5.3   l-1-0.6l-9.1,5.3L351.2,275.5z M361.2,269.7l9.9-5.8l-1-0.6l-9.9,5.8L361.2,269.7z M364.2,265.5l4.8-2.8l-1-0.6l-4.8,2.8   L364.2,265.5z M328.7,282.4l-3.5,2l1,0.6l3.5-2L328.7,282.4z M372.1,264.7l-11.6,6.7l1,0.6l11.6-6.7L372.1,264.7z M338.1,279.4   l-10.9,6.3l1,0.6l10.9-6.3L338.1,279.4z M334,284.2l-4.7,2.7l1,0.6l4.7-2.7L334,284.2z M342.9,281.6l-11.4,6.6l1,0.6l11.4-6.6   L342.9,281.6z"></path>		<path class="st0" d="M351.5,281.4l1,0.6l2-1.1l-1-0.6L351.5,281.4z M362.9,277.3l-13.2,7.6l1,0.6l13.2-7.6L362.9,277.3z    M354.4,284.6l1,0.6l5.6-3.2l-1-0.6L354.4,284.6z M365.1,280.9l-10.1,5.8l1,0.6l10.1-5.8L365.1,280.9z M341.2,288.5l10.5-6l-1-0.6   l-10.5,6L341.2,288.5z M346.5,290.3l8-4.6l-1-0.6l-8,4.6L346.5,290.3z M373.1,271.4l-9.3,5.4l1,0.6l9.3-5.4L373.1,271.4z    M377,276.4l-13.6,7.9l1,0.6L378,277L377,276.4z M362.6,284.8l-10.1,5.8l1,0.6l10.1-5.8L362.6,284.8z M371.4,278.4l-1-0.6   l-4.4,2.5l1,0.6L371.4,278.4z M365.3,273.4l-10.9,6.3l1,0.6l10.9-6.3L365.3,273.4z M361.9,281.4l9.1-5.3l-1-0.6l-9.1,5.3   L361.9,281.4z M371.9,275.6l9.9-5.8l-1-0.6l-9.9,5.8L371.9,275.6z M374.9,271.4l4.8-2.8l-1-0.6l-4.8,2.8L374.9,271.4z    M339.3,288.4l-3.5,2l1,0.6l3.5-2L339.3,288.4z M386.1,272.3l-1-0.6l-7.2,4.2l1,0.6L386.1,272.3z M382.8,270.6l-11.6,6.7l1,0.6   l11.6-6.7L382.8,270.6z M351.7,291l-7.4,4.3l1,0.6l7.4-4.3L351.7,291z M348.8,285.4l-10.9,6.3l1,0.6l10.9-6.3L348.8,285.4z    M344.7,290.2l-4.7,2.7l1,0.6l4.7-2.7L344.7,290.2z M353.6,287.5l-11.4,6.6l1,0.6l11.4-6.6L353.6,287.5z M360.8,288.2l1,0.6   l5.6-3.2l-1-0.6L360.8,288.2z M371.5,284.5l-10.1,5.8l1,0.6l10.1-5.8L371.5,284.5z M352.9,293.9l8-4.6l-1-0.6l-8,4.6L352.9,293.9z    M377.8,282l-1-0.6l-4.4,2.5l1,0.6L377.8,282z M368.3,285.1l9.1-5.3l-1-0.6l-9.1,5.3L368.3,285.1z M378.3,279.3l9.9-5.8l-1-0.6   l-9.9,5.8L378.3,279.3z M389.2,274.3l-11.6,6.7l1,0.6l11.6-6.7L389.2,274.3z M351.1,293.9l-4.7,2.7l1,0.6l4.7-2.7L351.1,293.9z    M360,291.2l-11.4,6.6l1,0.6l11.4-6.6L360,291.2z"></path>		<path class="st0" d="M391.2,283l1,0.6l3.6-2l-1-0.6L391.2,283z M399.3,280.9l-8,4.6l1,0.6l8-4.6L399.3,280.9z M383.4,288.7l8-4.6   l-1-0.6l-8,4.6L383.4,288.7z M393,290.6l8.4-4.9l-1-0.6L392,290L393,290.6z M381.5,288.7l-2.2,1.3l1,0.6l2.2-1.3L381.5,288.7z    M390.4,286l-9,5.2l1,0.6l9-5.2L390.4,286z"></path>	</g></g></svg>