<svg xmlns="http://www.w3.org/2000/svg" xmlns:xlink="http://www.w3.org/1999/xlink" id="Layer_1" x="0px" y="0px" viewBox="0 0 660 450" style="enable-background:new 0 0 660 450;" xml:space="preserve"><style type="text/css">	.st0{fill:#72B5E8;}	.st1{fill:#A8CFF0;}	.st2{fill:#D1EBFF;}	.st3{fill:#03336E;}	.st4{fill:#2672AB;}	.st5{opacity:0.5;fill:#D1EBFF;}	.st6{fill:#3F92D1;}	.st7{fill:#001A46;}	.st8{fill:#9D9EB3;}	.st9{fill:#EB4680;}	.st10{fill:#0FBAB8;}	.st11{fill:#3ECFCD;}	.st12{fill:#F76195;}	.st13{fill:#FFFFFF;}	.st14{fill:#92B4D1;}</style><g>	<g>		<g>			<path class="st0" d="M366.9,283.65v15.25c0,2.65,2.97,4.22,5.16,2.72l44.17-33.64v-27.17c0-1.78-1.99-2.83-3.46-1.82l-37.7,29.17    C369.96,271.65,366.9,277.45,366.9,283.65z"></path>		</g>		<path class="st1" d="M366.9,298.9v-15.25c0-6.2,3.06-11.99,8.17-15.49l37.7-29.17c0.69-0.47,1.5-0.49,2.16-0.19l-78.52-45.36   c-0.66-0.3-1.47-0.29-2.17,0.18l-37.7,29.17c-5.11,3.5-8.17,9.3-8.17,15.49v15.25c0,1.49,0.94,2.64,2.15,3.09l78.21,45.28   l0.04-0.03C367.7,301.35,366.9,300.27,366.9,298.9z"></path>		<path class="st2" d="M366.9,298.96v-15.25c0-6.2,3.06-11.99,8.17-15.49l37.7-29.17c0.44-0.3,0.93-0.41,1.39-0.38   c-0.67-0.88-1.97-1.2-3.01-0.49l-37.7,29.17c-5.11,3.5-8.17,9.3-8.17,15.49v15.25c0,1.67,1.18,2.91,2.61,3.23   C367.3,300.74,366.9,299.92,366.9,298.96z"></path>		<g>			<polygon class="st3" points="377.94,297.61 379.71,296.43 379.31,298.36    "></polygon>			<path class="st4" d="M380.41,294.73v-13.69c0-4.45,2.71-10.7,7.24-13.8l31.22-28.4c0.61-0.42,1.32-0.43,1.91-0.17l-1.21-0.77    c-0.59-0.27-1.3-0.26-1.92,0.16l-31.22,28.4c-4.53,3.1-7.24,9.35-7.24,13.8v17.86l-1.23-0.55l-1.03,0.75l3.48,1.95l1.66-2.91    C381.12,296.9,380.41,295.95,380.41,294.73z"></path>			<g>				<path class="st3" d="M380.41,281.04v19.23l35.63-19.5c3.69-2.53,5.89-6.71,5.89-11.18v-29.13c0-1.57-1.76-2.51-3.06-1.62     l-31.22,28.4C383.11,270.34,380.41,276.6,380.41,281.04z"></path>			</g>		</g>		<path class="st5" d="M373.87,266.39c-5.7,3.9-9.1,10.35-9.1,17.25v13.5l-73.33-42.46l-0.17-0.06c-0.37-0.14-0.77-0.5-0.77-1.1   v-15.25c0-5.5,2.71-10.63,7.24-13.73L373.87,266.39z"></path>		<path class="st1" d="M364.77,280.61v16.54l-73.33-42.46l-0.17-0.06c-0.37-0.14-0.77-0.5-0.77-1.1v-15.25L364.77,280.61z"></path>		<path class="st6" d="M293.53,254.61l-0.17-0.06c-0.37-0.14-0.77-0.5-0.77-1.1v-15.25c0-5.5,2.71-10.63,7.24-13.73l37.7-29.17   l1.04-0.59l-0.96-0.55l-2.16,1.22l-37.7,29.17c-4.53,3.1-7.24,8.24-7.24,13.73v15.25c0,0.6,0.4,0.96,0.77,1.1l0.17,0.06   l73.33,42.46v-1.29L293.53,254.61z"></path>		<path class="st7" d="M393.32,246.76l10.87-8.42l-68.01-39.64l-11.17,8.62c-1.45,0.99-1.38,3.16,0.15,4.05l61.14,35.65   C388.49,248.29,391.22,248.19,393.32,246.76z"></path>		<polygon class="st7" points="297.89,247.77 297.89,257.12 357.79,291.9 357.79,282.44   "></polygon>		<polygon class="st8" points="299.39,256.5 299.39,248.89 297.89,248.03 297.89,257.12 357.79,291.9 357.79,290.42   "></polygon>		<g>			<path class="st4" d="M372,245.15c-0.83,0.57-2.21,0.64-3.07,0.15l-5-2.87c-0.86-0.49-0.89-1.36-0.05-1.94    c0.83-0.57,2.21-0.64,3.07-0.15l5,2.87C372.81,243.71,372.83,244.57,372,245.15z"></path>			<path class="st4" d="M381.82,250.79c-0.83,0.57-2.21,0.64-3.07,0.15l-5-2.87c-0.86-0.49-0.89-1.36-0.05-1.94    c0.83-0.57,2.21-0.64,3.07-0.15l5,2.87C382.63,249.34,382.65,250.21,381.82,250.79z"></path>			<path class="st9" d="M371.94,242.59l-5-2.87c-0.86-0.49-2.24-0.43-3.07,0.15c-0.83,0.57-0.81,1.44,0.05,1.94l5,2.87    c0.86,0.49,2.24,0.43,3.07-0.15C372.83,243.95,372.81,243.08,371.94,242.59z"></path>			<path class="st10" d="M381.77,248.23l-5-2.87c-0.86-0.49-2.24-0.43-3.07,0.15c-0.83,0.57-0.81,1.44,0.05,1.94l5,2.87    c0.86,0.49,2.24,0.43,3.07-0.15C382.65,249.59,382.63,248.72,381.77,248.23z"></path>			<path class="st11" d="M381.82,249.75c-0.83,0.57-2.21,0.64-3.07,0.15l-5-2.87c-0.36-0.21-0.57-0.48-0.63-0.77    c-0.11,0.43,0.1,0.88,0.63,1.18l5,2.87c0.86,0.49,2.24,0.43,3.07-0.15c0.48-0.33,0.67-0.77,0.58-1.17    C382.33,249.26,382.14,249.53,381.82,249.75z"></path>			<path class="st12" d="M372,244.11c-0.83,0.57-2.21,0.64-3.07,0.15l-5-2.87c-0.36-0.21-0.57-0.48-0.63-0.77    c-0.11,0.43,0.1,0.88,0.63,1.18l5,2.87c0.86,0.49,2.24,0.43,3.07-0.15c0.48-0.33,0.67-0.77,0.58-1.17    C372.51,243.63,372.32,243.89,372,244.11z"></path>		</g>		<g>			<g>				<polygon class="st1" points="278.44,265.89 278.44,269.75 276.81,268.76 276.81,264.9     "></polygon>				<polygon class="st0" points="278.42,265.89 278.42,269.75 299.23,257.62 299.23,253.78     "></polygon>				<polygon class="st2" points="299.23,253.78 278.42,265.89 276.81,264.9 297.64,252.77     "></polygon>			</g>		</g>		<g>			<g>				<polygon class="st1" points="330.57,303.88 330.57,305.81 272.48,272.92 272.48,270.99     "></polygon>				<polygon class="st0" points="330.55,303.88 330.55,305.81 357.43,290.14 357.43,288.23     "></polygon>				<polygon class="st2" points="357.43,288.23 330.55,303.88 272.48,270.99 299.39,255.32     "></polygon>			</g>		</g>		<g>			<g>				<polygon class="st1" points="337.24,299.9 337.24,303.76 335.61,302.77 335.61,298.91     "></polygon>				<polygon class="st0" points="337.23,299.9 337.23,303.76 358.03,291.64 358.03,287.79     "></polygon>				<polygon class="st2" points="358.03,287.79 337.23,299.9 335.61,298.91 356.44,286.78     "></polygon>			</g>		</g>		<g>			<g>				<polygon class="st1" points="400.48,209.73 400.48,240.35 333.17,202.23 333.17,171.61     "></polygon>				<polygon class="st0" points="400.46,209.73 400.46,240.35 402.28,239.37 402.28,208.77     "></polygon>				<polygon class="st2" points="402.28,208.77 400.46,209.73 333.17,171.61 335.02,170.64     "></polygon>				<polygon class="st13" points="395.47,213.72 395.47,240.55 337.3,207.61 337.3,180.78     "></polygon>			</g>		</g>	</g>	<polygon class="st14" points="303.42,318.31 248.46,286.58 301.31,255.09 356.26,286.81  "></polygon>	<polygon class="st13" points="303.54,316.95 248.59,285.22 301.3,255 356.25,286.72  "></polygon>	<g>		<path class="st0" d="M327.54,274.26l-0.99,0.57l1.99,1.15l0.99-0.57L327.54,274.26z M317.18,271.88l13.23,7.63l0.99-0.57   l-13.23-7.63L317.18,271.88z M321.03,275.41l-0.99,0.57l5.62,3.23l0.99-0.57L321.03,275.41z M314.93,275.47l10.06,5.8l0.99-0.57   l-10.06-5.8L314.93,275.47z M340.87,281.93l-10.48-6.03l-0.99,0.57l10.48,6.03L340.87,281.93z M335.5,283.75l-8-4.62l-0.99,0.57   l8,4.62L335.5,283.75z M307,265.98l9.33,5.41l0.99-0.57l-9.33-5.41L307,265.98z M314.07,274.98l0.99-0.57l-4.38-2.55l-0.99,0.57   L314.07,274.98z M314.78,268.04l10.92,6.29l0.99-0.57l-10.92-6.29L314.78,268.04z M320.17,274.91l-9.15-5.31l-0.99,0.57l9.15,5.31   L320.17,274.91z M310.17,269.11l-9.94-5.77l-0.99,0.57l9.94,5.77L310.17,269.11z M307.13,264.91l-4.78-2.79l-0.99,0.57l4.78,2.79   L307.13,264.91z M340.73,283l3.55,2.05l0.99-0.57l-3.55-2.05L340.73,283z M297.27,265.23l11.57,6.7l0.99-0.57l-11.57-6.7   L297.27,265.23z M331.26,280l10.89,6.27l0.99-0.57l-10.89-6.27L331.26,280z M335.37,284.81l4.67,2.68l0.99-0.57l-4.67-2.68   L335.37,284.81z M326.49,282.14l11.43,6.58l0.99-0.57l-11.43-6.58L326.49,282.14z"></path>		<path class="st0" d="M316.88,280.21l-0.99,0.57l1.99,1.15l0.99-0.57L316.88,280.21z M306.52,277.83l13.23,7.63l0.99-0.57   l-13.23-7.63L306.52,277.83z M310.37,281.35l-0.99,0.57l5.62,3.23l0.99-0.57L310.37,281.35z M304.26,281.42l10.06,5.8l0.99-0.57   l-10.06-5.8L304.26,281.42z M330.21,287.88l-10.48-6.03l-0.99,0.57l10.48,6.03L330.21,287.88z M324.84,289.7l-8-4.62l-0.99,0.57   l8,4.62L324.84,289.7z M296.34,271.92l9.33,5.41l0.99-0.57l-9.33-5.41L296.34,271.92z M292.36,276.97l13.56,7.85l0.99-0.57   l-13.56-7.85L292.36,276.97z M306.77,285.32l10.06,5.8l0.99-0.57l-10.06-5.8L306.77,285.32z M303.41,280.93l0.99-0.57l-4.38-2.55   l-0.99,0.57L303.41,280.93z M304.12,273.99l10.92,6.29l0.99-0.57l-10.92-6.29L304.12,273.99z M309.51,280.86l-9.15-5.31   l-0.99,0.57l9.15,5.31L309.51,280.86z M299.51,275.06l-9.94-5.77l-0.99,0.57l9.94,5.77L299.51,275.06z M296.47,270.86l-4.78-2.79   l-0.99,0.57l4.78,2.79L296.47,270.86z M330.07,288.95l3.55,2.05l0.99-0.57l-3.55-2.05L330.07,288.95z M291.5,276.48l0.99-0.57   l-7.17-4.16l-0.99,0.57L291.5,276.48z M286.61,271.18l11.57,6.7l0.99-0.57l-11.57-6.7L286.61,271.18z M317.69,291.61l7.44,4.28   l0.99-0.57l-7.44-4.28L317.69,291.61z M320.6,285.95l10.89,6.27l0.99-0.57l-10.89-6.27L320.6,285.95z M324.71,290.76l4.67,2.68   l0.99-0.57l-4.67-2.68L324.71,290.76z M315.83,288.09l11.43,6.58l0.99-0.57l-11.43-6.58L315.83,288.09z M303.96,285.02l-0.99,0.57   l5.62,3.23l0.99-0.57L303.96,285.02z M297.86,285.09l10.06,5.8l0.99-0.57l-10.06-5.8L297.86,285.09z M318.44,293.37l-8-4.62   l-0.99,0.57l8,4.62L318.44,293.37z M297.01,284.59l0.99-0.57l-4.38-2.55l-0.99,0.57L297.01,284.59z M303.11,284.53l-9.15-5.31   l-0.99,0.57l9.15,5.31L303.11,284.53z M293.1,278.73l-9.94-5.77l-0.99,0.57l9.94,5.77L293.1,278.73z M280.2,274.84l11.57,6.7   l0.99-0.57l-11.57-6.7L280.2,274.84z M318.3,294.43l4.67,2.68l0.99-0.57l-4.67-2.68L318.3,294.43z M309.42,291.75l11.43,6.58   l0.99-0.57l-11.43-6.58L309.42,291.75z"></path>		<path class="st0" d="M275.6,281l-0.99,0.57l3.56,2.05l0.99-0.57L275.6,281z M270.14,281.44l8,4.62l0.99-0.57l-8-4.62   L270.14,281.44z M288.01,288.17l-8-4.62l-0.99,0.57l8,4.62L288.01,288.17z M278.42,290l-8.42-4.86l-0.99,0.57l8.42,4.86   L278.42,290z M287.87,289.24l2.19,1.27l0.99-0.57l-2.19-1.27L287.87,289.24z M278.99,286.56l8.95,5.17l0.99-0.57l-8.95-5.17   L278.99,286.56z"></path>	</g></g></svg>