<svg xmlns="http://www.w3.org/2000/svg" xmlns:xlink="http://www.w3.org/1999/xlink" id="Layer_1" x="0px" y="0px" viewBox="0 0 660 450" style="enable-background:new 0 0 660 450;" xml:space="preserve"><style type="text/css">	.st0{fill:#72B5E8;}	.st1{fill:#A8CFF0;}	.st2{fill:#D1EBFF;}	.st3{fill:#03336E;}	.st4{fill:#2672AB;}	.st5{opacity:0.5;fill:#D1EBFF;enable-background:new    ;}	.st6{fill:#3F92D1;}	.st7{fill:#001A46;}	.st8{fill:#9D9EB3;}	.st9{fill:#EB4680;}	.st10{fill:#0FBAB8;}	.st11{fill:#3ECFCD;}	.st12{fill:#F76195;}	.st13{fill:#FFFFFF;}	.st14{fill:#92B4D1;}</style><g>	<g>		<g>			<path class="st0" d="M366.8,283.7v15.2c0,2.6,3,4.2,5.2,2.7l44.2-33.6l0-27.2c0-1.8-2-2.8-3.5-1.8L375,268.2    C369.9,271.6,366.8,277.5,366.8,283.7z"></path>		</g>		<path class="st1" d="M366.9,299v-15.2c0-6.2,3.1-12,8.2-15.5l37.7-29.2c0.7-0.5,1.5-0.5,2.2-0.2l-78.5-45.4   c-0.7-0.3-1.5-0.3-2.2,0.2l-37.7,29.2c-5.1,3.5-8.2,9.3-8.2,15.5l0,15.2c0,1.5,0.9,2.7,2.1,3.1l78.2,45.2l0,0   C367.6,301.4,366.8,300.3,366.9,299z"></path>		<path class="st2" d="M366.8,299v-15.2c0-6.2,3.1-12,8.2-15.5l37.7-29.2c0.4-0.3,0.9-0.4,1.4-0.4c-0.7-0.9-2-1.2-3-0.5l-37.7,29.2   c-5.1,3.5-8.2,9.3-8.2,15.5v15.2c0,1.6,1.2,2.9,2.6,3.2C367.2,300.7,366.8,299.9,366.8,299z"></path>		<g>			<polygon class="st3" points="377.8,297.6 379.6,296.4 379.2,298.4    "></polygon>			<path class="st4" d="M380.2,294.6v-13.7c0-4.5,2.7-10.7,7.2-13.8l31.2-28.4c0.6-0.4,1.3-0.5,1.9-0.2l-1.2-0.8    c-0.6-0.2-1.3-0.2-1.9,0.2l-31.2,28.4c-4.5,3.1-7.2,9.4-7.2,13.8V298l-1.2-0.5l-1,0.8l3.5,2l1.7-2.9    C381,296.9,380.3,296,380.2,294.6z"></path>			<g>				<path class="st3" d="M380.4,281v19.2l35.6-19.5c3.7-2.6,5.9-6.7,5.9-11.2v-29.1c0-1.6-1.8-2.5-3.1-1.6l-31.2,28.4     C383,270.3,380.3,276.6,380.4,281z"></path>			</g>		</g>		<path class="st5" d="M373.8,266.4c-5.7,3.8-9.1,10.3-9.1,17.2v13.5l-73.3-42.5l-0.2-0.1c-0.4-0.1-0.8-0.5-0.8-1.1l0-15.2   c0-5.5,2.7-10.6,7.2-13.7L373.8,266.4z"></path>		<path class="st1" d="M364.7,280.7v16.5l-73.3-42.5l-0.2-0.1c-0.4-0.1-0.8-0.5-0.8-1.1l0-15.2L364.7,280.7z"></path>		<path class="st6" d="M293.6,254.7l-0.2-0.1c-0.4-0.1-0.8-0.5-0.8-1.1l0-15.2c0-5.5,2.7-10.6,7.2-13.7l37.7-29.2l1-0.6l-1-0.6   l-2.2,1.2l-37.7,29.2c-4.5,3.1-7.2,8.2-7.2,13.7l0,15.2c0,0.6,0.4,1,0.8,1.1l0.2,0.1l73.3,42.5v-1.3L293.6,254.7z"></path>		<path class="st7" d="M393.3,246.7l10.9-8.4l-68-39.6l-11.2,8.6c-1.5,1-1.4,3.2,0.1,4.1l61.1,35.6   C388.4,248.3,391.1,248.2,393.3,246.7z"></path>		<polygon class="st7" points="297.8,247.8 297.8,257.1 357.7,291.9 357.7,282.4   "></polygon>		<polygon class="st8" points="299.3,256.5 299.3,248.9 297.8,248 297.8,257.1 357.7,291.9 357.7,290.4   "></polygon>		<g>			<path class="st4" d="M371.9,245.1c-0.9,0.5-2.2,0.6-3.1,0.1l-5-2.9c-0.8-0.5-0.8-1.3,0-1.9c0.9-0.5,2.2-0.6,3.1-0.1l5,2.9    C372.7,243.7,372.7,244.6,371.9,245.1z"></path>			<path class="st4" d="M381.7,250.7c-0.9,0.5-2.2,0.6-3.1,0.1l-5-2.9c-0.8-0.5-0.8-1.3,0-1.9c0.9-0.5,2.2-0.6,3.1-0.1l5,2.9    C382.5,249.3,382.6,250.2,381.7,250.7z"></path>			<path class="st9" d="M371.9,242.6l-5-2.9c-0.9-0.5-2.3-0.5-3.1,0.1c-0.9,0.5-0.9,1.4,0,1.9l5,2.9c0.9,0.5,2.3,0.5,3.1-0.1    C372.7,243.9,372.7,243.1,371.9,242.6z"></path>			<path class="st10" d="M381.7,248.3l-5-2.9c-0.9-0.5-2.3-0.5-3.1,0.1c-0.9,0.5-0.9,1.4,0,1.9l5,2.9c0.9,0.5,2.3,0.5,3.1-0.1    C382.6,249.6,382.5,248.7,381.7,248.3z"></path>			<path class="st11" d="M381.7,249.8c-0.9,0.5-2.2,0.6-3.1,0.1l-5-2.9c-0.3-0.2-0.5-0.5-0.6-0.8c-0.1,0.4,0.1,0.9,0.6,1.2l5,2.9    c0.9,0.5,2.3,0.5,3.1-0.1c0.5-0.4,0.7-0.8,0.6-1.2C382.2,249.3,382.1,249.5,381.7,249.8z"></path>			<path class="st12" d="M371.9,244.1c-0.9,0.5-2.2,0.6-3.1,0.1l-5-2.9c-0.3-0.2-0.5-0.5-0.6-0.8c-0.1,0.4,0.1,0.9,0.6,1.2l5,2.9    c0.9,0.5,2.3,0.5,3.1-0.1c0.5-0.4,0.7-0.8,0.6-1.2C372.4,243.6,372.2,243.9,371.9,244.1z"></path>		</g>		<g>			<g>				<polygon class="st1" points="278.3,265.9 278.3,269.8 276.7,268.8 276.7,264.9     "></polygon>				<polygon class="st0" points="278.3,265.9 278.3,269.8 299.1,257.6 299.1,253.8     "></polygon>				<polygon class="st2" points="299.1,253.8 278.3,265.9 276.7,264.9 297.5,252.8     "></polygon>			</g>		</g>		<g>			<g>				<polygon class="st1" points="330.5,303.9 330.5,305.8 272.4,272.9 272.4,271     "></polygon>				<polygon class="st0" points="330.5,303.9 330.5,305.8 357.3,290.1 357.3,288.2     "></polygon>				<polygon class="st2" points="357.3,288.2 330.5,303.9 272.4,271 299.3,255.3     "></polygon>			</g>		</g>		<g>			<g>				<polygon class="st1" points="337.1,299.9 337.1,303.8 335.5,302.8 335.5,298.9     "></polygon>				<polygon class="st0" points="337.1,299.9 337.1,303.8 357.9,291.6 357.9,287.8     "></polygon>				<polygon class="st2" points="357.9,287.8 337.1,299.9 335.5,298.9 356.3,286.8     "></polygon>			</g>		</g>		<g>			<g>				<polygon class="st1" points="400.4,209.7 400.4,240.4 333.1,202.2 333.1,171.6     "></polygon>				<polygon class="st0" points="400.4,209.7 400.4,240.4 402.2,239.4 402.2,208.8     "></polygon>				<polygon class="st2" points="402.2,208.8 400.4,209.7 333.1,171.6 334.9,170.6     "></polygon>				<polygon class="st13" points="395.4,213.7 395.4,240.6 337.2,207.6 337.2,180.8     "></polygon>			</g>		</g>	</g>	<polygon class="st14" points="303.3,318.3 248.4,286.6 301.2,255.1 356.2,286.8  "></polygon>	<polygon class="st13" points="303.4,317 248.5,285.2 301.2,255 356.2,286.7  "></polygon>	<g>		<path class="st0" d="M327.4,274.3l-1,0.6l2,1.1l1-0.6L327.4,274.3z M317.1,271.9l13.2,7.6l1-0.6l-13.2-7.6L317.1,271.9z    M321,275.4l-1,0.6l5.6,3.2l1-0.6L321,275.4z M314.8,275.5l10.1,5.8l1-0.6l-10.1-5.8L314.8,275.5z M340.8,281.9l-10.5-6l-1,0.6   l10.5,6L340.8,281.9z M335.4,283.7l-8-4.6l-1,0.6l8,4.6L335.4,283.7z M306.9,266l9.3,5.4l1-0.6l-9.3-5.4L306.9,266z M314,274.9   l1-0.6l-4.4-2.5l-1,0.6L314,274.9z M314.7,268.1l10.9,6.3l1-0.6l-10.9-6.3L314.7,268.1z M320.1,274.9l-9.1-5.3l-1,0.6l9.1,5.3   L320.1,274.9z M310.1,269.1l-9.9-5.8l-1,0.6l9.9,5.8L310.1,269.1z M307.1,264.9l-4.8-2.8l-1,0.6l4.8,2.8L307.1,264.9z M340.6,283   l3.5,2l1-0.6l-3.5-2L340.6,283z M297.2,265.3l11.6,6.7l1-0.6l-11.6-6.7L297.2,265.3z M331.2,280l10.9,6.3l1-0.6l-10.9-6.3   L331.2,280z M335.3,284.8l4.7,2.7l1-0.6l-4.7-2.7L335.3,284.8z M326.4,282.2l11.4,6.6l1-0.6l-11.4-6.6L326.4,282.2z"></path>		<path class="st0" d="M316.8,280.3l-1,0.6l2,1.1l1-0.6L316.8,280.3z M306.4,277.9l13.2,7.6l1-0.6l-13.2-7.6L306.4,277.9z    M310.3,281.4l-1,0.6l5.6,3.2l1-0.6L310.3,281.4z M304.2,281.5l10.1,5.8l1-0.6l-10.1-5.8L304.2,281.5z M330.1,287.9l-10.5-6   l-1,0.6l10.5,6L330.1,287.9z M324.8,289.7l-8-4.6l-1,0.6l8,4.6L324.8,289.7z M296.2,272l9.3,5.4l1-0.6l-9.3-5.4L296.2,272z    M292.3,277l13.6,7.9l1-0.6l-13.6-7.9L292.3,277z M306.7,285.4l10.1,5.8l1-0.6l-10.1-5.8L306.7,285.4z M303.3,280.9l1-0.6   l-4.4-2.5l-1,0.6L303.3,280.9z M304,274l10.9,6.3l1-0.6l-10.9-6.3L304,274z M309.4,280.8l-9.1-5.3l-1,0.6l9.1,5.3L309.4,280.8z    M299.4,275l-9.9-5.8l-1,0.6l9.9,5.8L299.4,275z M296.4,270.8l-4.8-2.8l-1,0.6l4.8,2.8L296.4,270.8z M330,289l3.5,2l1-0.6l-3.5-2   L330,289z M291.4,276.5l1-0.6l-7.2-4.2l-1,0.6L291.4,276.5z M286.5,271.2l11.6,6.7l1-0.6l-11.6-6.7L286.5,271.2z M317.6,291.6   l7.4,4.3l1-0.6l-7.4-4.3L317.6,291.6z M320.5,286l10.9,6.3l1-0.6l-10.9-6.3L320.5,286z M324.6,290.8l4.7,2.7l1-0.6l-4.7-2.7   L324.6,290.8z M315.7,288.1l11.4,6.6l1-0.6l-11.4-6.6L315.7,288.1z M303.9,285l-1,0.6l5.6,3.2l1-0.6L303.9,285z M297.8,285.1   l10.1,5.8l1-0.6l-10.1-5.8L297.8,285.1z M318.4,293.3l-8-4.6l-1,0.6l8,4.6L318.4,293.3z M296.9,284.5l1-0.6l-4.4-2.5l-1,0.6   L296.9,284.5z M303,284.5l-9.1-5.3l-1,0.6l9.1,5.3L303,284.5z M293,278.7l-9.9-5.8l-1,0.6l9.9,5.8L293,278.7z M280.1,274.9   l11.6,6.7l1-0.6l-11.6-6.7L280.1,274.9z M318.2,294.5l4.7,2.7l1-0.6l-4.7-2.7L318.2,294.5z M309.3,291.8l11.4,6.6l1-0.6l-11.4-6.6   L309.3,291.8z"></path>		<path class="st0" d="M275.5,281l-1,0.6l3.6,2l1-0.6L275.5,281z M270,281.5l8,4.6l1-0.6l-8-4.6L270,281.5z M287.9,288.1l-8-4.6   l-1,0.6l8,4.6L287.9,288.1z M278.3,290l-8.4-4.9l-1,0.6l8.4,4.9L278.3,290z M287.8,289.3l2.2,1.3l1-0.6l-2.2-1.3L287.8,289.3z    M278.9,286.6l9,5.2l1-0.6l-9-5.2L278.9,286.6z"></path>	</g></g></svg>