<svg xmlns="http://www.w3.org/2000/svg" xmlns:xlink="http://www.w3.org/1999/xlink" id="Layer_1" x="0px" y="0px" viewBox="0 0 660 450" style="enable-background:new 0 0 660 450;" xml:space="preserve"><style type="text/css">	.st0{fill:#72B5E8;}	.st1{fill:#A8CFF0;}	.st2{fill:#D1EBFF;}	.st3{fill:#03336E;}	.st4{fill:#2672AB;}	.st5{opacity:0.5;fill:#D1EBFF;enable-background:new    ;}	.st6{fill:#3F92D1;}	.st7{fill:#001A46;}	.st8{fill:#9D9EB3;}	.st9{fill:#EB4680;}	.st10{fill:#0FBAB8;}	.st11{fill:#3ECFCD;}	.st12{fill:#F76195;}	.st13{fill:#FFFFFF;}	.st14{fill:#92B4D1;}</style><g>	<g>		<g>			<path class="st0" d="M375.3,305.6v31.2c0,5.3,6.2,8.6,10.7,5.5l90.7-69v-55.8c0-3.7-4.1-5.7-7.2-3.7l-77.4,59.9    C381.6,280.7,375.3,292.8,375.3,305.6z"></path>		</g>		<path class="st1" d="M375.5,337v-31.2c0-12.7,6.4-24.6,16.8-31.8l77.4-59.9c1.4-1,3.1-1,4.5-0.4l-161.1-93.2   c-1.4-0.6-3.1-0.6-4.5,0.4l-77.4,59.9c-10.5,7.2-16.8,19.1-16.8,31.8v31.2c0,3.1,1.8,5.5,4.3,6.4l160.5,92.8l0,0   C376.9,341.9,375.3,339.6,375.5,337z"></path>		<path class="st2" d="M375.3,337v-31.2c0-12.7,6.4-24.6,16.8-31.8l77.4-59.9c0.8-0.6,1.8-0.8,2.9-0.8c-1.4-1.8-4.1-2.5-6.2-1   l-77.4,59.9c-10.5,7.2-16.8,19.1-16.8,31.8v31.2c0,3.3,2.5,6,5.3,6.6C376.1,340.5,375.3,338.8,375.3,337z"></path>		<g>			<polygon class="st3" points="397.8,334.1 401.5,331.6 400.7,335.7    "></polygon>			<path class="st4" d="M402.8,327.9v-28.1c0-9.2,5.5-22,14.8-28.3l64-58.3c1.2-0.8,2.7-1,3.9-0.4l-2.5-1.6    c-1.2-0.4-2.7-0.4-3.9,0.4l-64,58.3c-9.2,6.4-14.8,19.3-14.8,28.3v36.7l-2.5-1l-2.1,1.6l7.2,4.1l3.5-6    C404.4,332.7,403,330.8,402.8,327.9z"></path>			<g>				<path class="st3" d="M403.2,300v39.4l73.1-40c7.6-5.3,12.1-13.8,12.1-23v-59.7c0-3.3-3.7-5.1-6.4-3.3l-64,58.3     C408.5,278.1,403,291,403.2,300z"></path>			</g>		</g>		<path class="st5" d="M389.6,270.1c-11.7,7.8-18.7,21.1-18.7,35.3v27.7l-150.5-87.2l-0.4-0.2c-0.8-0.2-1.6-1-1.6-2.3v-31.2   c0-11.3,5.5-21.8,14.8-28.1L389.6,270.1z"></path>		<path class="st1" d="M370.9,299.4v33.9L220.5,246l-0.4-0.2c-0.8-0.2-1.6-1-1.6-2.3v-31.2L370.9,299.4z"></path>		<path class="st6" d="M225,246l-0.4-0.2c-0.8-0.2-1.6-1-1.6-2.3v-31.2c0-11.3,5.5-21.8,14.8-28.1l77.4-59.9l2.1-1.2l-2.1-1.2   l-4.5,2.5l-77.4,59.9c-9.2,6.4-14.8,16.8-14.8,28.1v31.2c0,1.2,0.8,2.1,1.6,2.3l0.4,0.2l150.5,87.2v-2.7L225,246z"></path>		<path class="st7" d="M429.7,229.6l22.4-17.2l-139.6-81.3l-23,17.7c-3.1,2.1-2.9,6.6,0.2,8.4l125.4,73.1   C419.6,232.9,425.1,232.7,429.7,229.6z"></path>		<polygon class="st7" points="233.6,231.9 233.6,251 356.6,322.4 356.6,302.9   "></polygon>		<polygon class="st8" points="236.7,249.7 236.7,234.1 233.6,232.3 233.6,251 356.6,322.4 356.6,319.3   "></polygon>		<g>			<path class="st4" d="M385.7,226.3c-1.8,1-4.5,1.2-6.4,0.2l-10.3-6c-1.6-1-1.6-2.7,0-3.9c1.8-1,4.5-1.2,6.4-0.2l10.3,6    C387.4,223.5,387.4,225.3,385.7,226.3z"></path>			<path class="st4" d="M405.8,237.8c-1.8,1-4.5,1.2-6.4,0.2l-10.3-6c-1.6-1-1.6-2.7,0-3.9c1.8-1,4.5-1.2,6.4-0.2l10.3,6    C407.5,235,407.7,236.8,405.8,237.8z"></path>			<path class="st9" d="M385.7,221.2l-10.3-6c-1.8-1-4.7-1-6.4,0.2c-1.8,1-1.8,2.9,0,3.9l10.3,6c1.8,1,4.7,1,6.4-0.2    S387.4,222.2,385.7,221.2z"></path>			<path class="st10" d="M405.8,232.9l-10.3-6c-1.8-1-4.7-1-6.4,0.2c-1.8,1-1.8,2.9,0,3.9l10.3,6c1.8,1,4.7,1,6.4-0.2    C407.7,235.6,407.5,233.7,405.8,232.9z"></path>			<path class="st11" d="M405.8,236c-1.8,1-4.5,1.2-6.4,0.2l-10.3-6c-0.6-0.4-1-1-1.2-1.6c-0.2,0.8,0.2,1.8,1.2,2.5l10.3,6    c1.8,1,4.7,1,6.4-0.2c1-0.8,1.4-1.6,1.2-2.5C406.9,235,406.7,235.4,405.8,236z"></path>			<path class="st12" d="M385.7,224.3c-1.8,1-4.5,1.2-6.4,0.2l-10.3-6c-0.6-0.4-1-1-1.2-1.6c-0.2,0.8,0.2,1.8,1.2,2.5l10.3,6    c1.8,1,4.7,1,6.4-0.2c1-0.8,1.4-1.6,1.2-2.5C386.7,223.3,386.3,223.9,385.7,224.3z"></path>		</g>		<g>			<g>				<polygon class="st1" points="193.6,269 193.6,277 190.3,275 190.3,267     "></polygon>				<polygon class="st0" points="193.6,269 193.6,277 236.3,252 236.3,244.2     "></polygon>				<polygon class="st2" points="236.3,244.2 193.6,269 190.3,267 233,242.1     "></polygon>			</g>		</g>		<g>			<g>				<polygon class="st1" points="300.7,347 300.7,350.9 181.5,283.4 181.5,279.5     "></polygon>				<polygon class="st0" points="300.7,347 300.7,350.9 355.8,318.7 355.8,314.8     "></polygon>				<polygon class="st2" points="355.8,314.8 300.7,347 181.5,279.5 236.7,247.3     "></polygon>			</g>		</g>		<g>			<g>				<polygon class="st1" points="314.3,338.8 314.3,346.8 311,344.8 311,336.8     "></polygon>				<polygon class="st0" points="314.3,338.8 314.3,346.8 357,321.8 357,314     "></polygon>				<polygon class="st2" points="357,314 314.3,338.8 311,336.8 353.7,311.9     "></polygon>			</g>		</g>		<g>			<g>				<polygon class="st1" points="444.2,153.7 444.2,216.7 306.1,138.3 306.1,75.5     "></polygon>				<polygon class="st0" points="444.2,153.7 444.2,216.7 447.9,214.6 447.9,151.8     "></polygon>				<polygon class="st2" points="447.9,151.8 444.2,153.7 306.1,75.5 309.8,73.4     "></polygon>				<polygon class="st13" points="434,161.9 434,217.1 314.5,149.4 314.5,94.3     "></polygon>			</g>		</g>	</g>	<polygon class="st14" points="244.9,376.6 132.2,311.5 240.6,246.9 353.5,311.9  "></polygon>	<polygon class="st13" points="245.1,373.9 132.4,308.6 240.6,246.7 353.5,311.7  "></polygon>	<g>		<path class="st0" d="M294.4,286.3l-2.1,1.2l4.1,2.3l2.1-1.2L294.4,286.3z M273.2,281.3l27.1,15.6l2.1-1.2l-27.1-15.6L273.2,281.3z    M281.2,288.5l-2.1,1.2l11.5,6.6l2.1-1.2L281.2,288.5z M268.5,288.7l20.7,11.9l2.1-1.2l-20.7-11.9L268.5,288.7z M321.9,301.9   l-21.6-12.3l-2.1,1.2l21.6,12.3L321.9,301.9z M310.8,305.6l-16.4-9.4l-2.1,1.2l16.4,9.4L310.8,305.6z M252.3,269.2l19.1,11.1   l2.1-1.2L254.3,268L252.3,269.2z M266.9,287.5l2.1-1.2l-9-5.1l-2.1,1.2L266.9,287.5z M268.3,273.5l22.4,12.9l2.1-1.2l-22.4-12.9   L268.3,273.5z M279.4,287.5l-18.7-10.9l-2.1,1.2l18.7,10.9L279.4,287.5z M258.9,275.6l-20.3-11.9l-2.1,1.2l20.3,11.9L258.9,275.6z    M252.7,267l-9.9-5.7l-2.1,1.2l9.9,5.7L252.7,267z M321.5,304.1l7.2,4.1l2.1-1.2l-7.2-4.1L321.5,304.1z M232.4,267.8l23.8,13.8   l2.1-1.2l-23.8-13.8L232.4,267.8z M302.2,298l22.4,12.9l2.1-1.2l-22.4-12.9L302.2,298z M310.6,307.8l9.6,5.5l2.1-1.2l-9.6-5.5   L310.6,307.8z M292.3,302.5l23.4,13.5l2.1-1.2l-23.4-13.5L292.3,302.5z"></path>		<path class="st0" d="M272.6,298.6l-2.1,1.2l4.1,2.3l2.1-1.2L272.6,298.6z M251.3,293.7l27.1,15.6l2.1-1.2l-27.1-15.6L251.3,293.7z    M259.3,300.8l-2.1,1.2l11.5,6.6l2.1-1.2L259.3,300.8z M246.8,301.1l20.7,11.9l2.1-1.2l-20.7-11.9L246.8,301.1z M299.9,314.2   l-21.6-12.3l-2.1,1.2l21.6,12.3L299.9,314.2z M289,317.9l-16.4-9.4l-2.1,1.2l16.4,9.4L289,317.9z M230.3,281.6l19.1,11.1l2.1-1.2   l-19.1-11.1L230.3,281.6z M222.3,291.8l27.9,16.2l2.1-1.2l-27.9-16.2L222.3,291.8z M251.9,309.1l20.7,11.9l2.1-1.2l-20.7-11.9   L251.9,309.1z M244.9,299.8l2.1-1.2l-9-5.1l-2.1,1.2L244.9,299.8z M246.3,285.7l22.4,12.9l2.1-1.2l-22.4-12.9L246.3,285.7z    M257.4,299.6l-18.7-10.9l-2.1,1.2l18.7,10.9L257.4,299.6z M236.9,287.7l-20.3-11.9l-2.1,1.2l20.3,11.9L236.9,287.7z M230.7,279.1   l-9.9-5.7l-2.1,1.2l9.9,5.7L230.7,279.1z M299.7,316.4l7.2,4.1l2.1-1.2l-7.2-4.1L299.7,316.4z M220.5,290.8l2.1-1.2l-14.8-8.6   l-2.1,1.2L220.5,290.8z M210.4,279.9l23.8,13.8l2.1-1.2l-23.8-13.8L210.4,279.9z M274.3,321.8l15.2,8.8l2.1-1.2l-15.2-8.8   L274.3,321.8z M280.2,310.3l22.4,12.9l2.1-1.2l-22.4-12.9L280.2,310.3z M288.6,320.1l9.6,5.5l2.1-1.2l-9.6-5.5L288.6,320.1z    M270.4,314.6l23.4,13.5l2.1-1.2l-23.4-13.5L270.4,314.6z M246.1,308.2l-2.1,1.2l11.5,6.6l2.1-1.2L246.1,308.2z M233.6,308.4   l20.7,11.9l2.1-1.2l-20.7-11.9L233.6,308.4z M275.9,325.3l-16.4-9.4l-2.1,1.2l16.4,9.4L275.9,325.3z M231.8,307.2l2.1-1.2l-9-5.1   l-2.1,1.2L231.8,307.2z M244.3,307.2l-18.7-10.9l-2.1,1.2l18.7,10.9L244.3,307.2z M223.8,295.3l-20.3-11.9l-2.1,1.2l20.3,11.9   L223.8,295.3z M197.3,287.5l23.8,13.8l2.1-1.2l-23.8-13.8L197.3,287.5z M275.5,327.7l9.6,5.5l2.1-1.2l-9.6-5.5L275.5,327.7z    M257.2,322.2l23.4,13.5l2.1-1.2L259.3,321L257.2,322.2z"></path>		<path class="st0" d="M187.8,300l-2.1,1.2l7.4,4.1l2.1-1.2L187.8,300z M176.6,301.1l16.4,9.4l2.1-1.2l-16.4-9.4L176.6,301.1z    M213.3,314.6l-16.4-9.4l-2.1,1.2l16.4,9.4L213.3,314.6z M193.6,318.5l-17.2-10.1l-2.1,1.2l17.2,10.1L193.6,318.5z M213.1,317.1   l4.5,2.7l2.1-1.2l-4.5-2.7L213.1,317.1z M194.8,311.5l18.5,10.7l2.1-1.2l-18.5-10.7L194.8,311.5z"></path>	</g></g></svg>