<svg xmlns="http://www.w3.org/2000/svg" id="a" viewBox="0 0 2052.2 1208.75"><defs><style>.b{fill:#f7f7f7;}.c,.d{fill:#ebf3fa;}.e{fill:#fafbfc;}.f{fill:#fcfcfc;}.g{fill:#fcfbfa;}.h{fill:#fdfeff;}.i{fill:#739af0;}.j{fill:#aec3ff;}.k{fill:#dfebfd;}.l{fill:#233862;}.m{fill:#070707;}.n{fill:#15d9fd;}.o{fill:#c5ddff;}.o,.d{opacity:.5;}</style></defs><path class="k" d="M1954.58,149.52c-34.2-68.92-152.59-21.74-152.59-21.74,0,0-58.14,144.05-81.82,151.91-23.68,7.86,25.66-132.87,25.66-132.87-47.95,4.79-156.37,86.27-156.37,86.27,0,0,37.13,147.21,12.25,149-24.88,1.79-26.23-132.02-26.23-132.02-42.81,22.7-74.75,84.25-74.75,84.25-35.93,97.05,90.54,138.17,90.54,138.17,0,0,11.77,51.29-8.34,116.81h0s-5.02,12.36-8.64,32.38l12.41-2.47c.35-3.53,.83-6.97,1.45-10.3,0-.02,0-.04,.01-.06,0-.05,.02-.1,.03-.14,.47-2.09,1.15-5.06,2.01-8.69h0s0-.02,0-.03c2.32-8.18,3.79-14.17,4.62-18.45,0-.01,0-.03,0-.04,6.73-25.56,17.07-59.17,26.72-67.71,0,0-1.76-1.66-3.79-5.17,1.21,1.65,2.47,3.36,3.79,5.17,30.29,41.3,138.02,27.79,194.79,3.89,56.77-23.9,27.66-35.46-9.59-56.23-37.25-20.76-102.6-.36-124.44-7.06-21.84-6.7,4.88-23.05,44.94-27.86,40.06-4.8,67.62,30.73,132.57,24.14,64.94-6.59,89.68-136.12,89.68-136.12-41.29,22.4-125.03,13.8-131.08-.78-6.05-14.57,111.1-36.27,128.41-44.44,17.31-8.17,41.94-50.92,7.74-119.84Z"></path><path class="k" d="M1.1,679.26c-13.92-75.67,109.14-108.84,109.14-108.84,0,0,132.86,80.49,156.53,72.59,23.66-7.9-100.16-91-100.16-91,41.26-24.89,176.89-24.63,176.89-24.63,0,0,58.48,140.1,79.47,126.62,20.99-13.48-58.11-121.41-58.11-121.41,47.88-7.48,110.33,22.66,110.33,22.66,86.92,56.17,10.3,164.88,10.3,164.88,0,0,21.31,48.12,76.67,88.51h0s11.42,6.88,26.32,20.75l-11.41,5.46c-2.4-2.61-4.84-5.08-7.34-7.38-.01-.02-.02-.03-.05-.04-.04-.03-.07-.07-.11-.1-1.63-1.39-3.95-3.36-6.81-5.75h-.01s-.01-.01-.01-.02c-6.75-5.16-11.52-9.07-14.76-12-.01,0-.02-.02-.03-.03-20.71-16.43-49.12-37.14-61.96-38.19,0,0,.41-2.38-.06-6.4,.02,2.04,.04,4.17,.06,6.4,.5,51.22-93.85,104.95-153.62,119.84-59.77,14.89-43.39-11.82-26.01-50.76,17.38-38.94,81.93-61.76,95.4-80.22,13.47-18.45-17.72-15.53-52.67,4.63-34.95,20.16-35.72,65.12-91.67,98.76-55.94,33.64-153.37-55.24-153.37-55.24,46.48-6.81,108.36-63.87,104.48-79.16-3.89-15.29-110.68,37.54-129.43,41.36-18.75,3.83-64.09-15.64-78.01-91.31Z"></path><path class="k" d="M2027.58,1164.94c60.55-47.46-9.66-153.83-9.66-153.83,0,0-152.85-27.72-165.34-49.31-12.5-21.59,135.31-1.82,135.31-1.82-14.42-45.98-116.19-135.63-116.19-135.63,0,0-136.62,66.21-143.42,42.21-6.8-24,123.96-52.46,123.96-52.46-30.91-37.32-97.66-56.11-97.66-56.11-102.32-15.5-116.94,116.69-116.94,116.69,0,0-47.84,21.93-116.07,15.52h0s-13.12-2.41-33.46-1.9l4.93,11.65c3.53-.37,6.99-.6,10.38-.66,.02,0,.04,0,.06,0,.05,0,.1,0,.15,0,2.14,.04,5.19,.1,8.91,.21h.01s.01,0,.02,0c8.48,.61,14.64,.84,19,.79,.01,0,.03,0,.04,0,26.39,1.41,61.4,4.72,71.72,12.44,0,0,1.27-2.06,4.29-4.76-1.37,1.52-2.79,3.1-4.29,4.76-34.3,38.04,.78,140.79,35.69,191.53,34.91,50.75,40.34,19.89,53.11-20.8,12.78-40.69-20.46-100.54-18.32-123.28,2.14-22.74,23.57,.11,36.39,38.36,12.83,38.25-16.38,72.45,3.25,134.71,19.62,62.25,151.48,60.22,151.48,60.22-30.31-35.89-38.87-119.63-25.82-128.51,13.04-8.88,58.04,101.44,69.56,116.73,11.51,15.29,58.37,30.74,118.92-16.73Z"></path><g><path class="o" d="M1477.84,274.15s7.1-141.77,73.37-230.65c8.81-11.81,27.62-5.97,28.33,8.74,.01,.25,.02,.49,.03,.75,.8,25.15-72.59,136.51-101.73,221.16Z"></path><path class="o" d="M1471.86,315.01s59.69-180.7,176.97-266.88c7.15-5.26,17.4-4.23,22.91,2.72,3.59,4.53,5.57,11.85,2.71,23.7-7.64,31.59-137.25,145.06-202.59,240.47Z"></path></g><g><path class="o" d="M456.56,504.43s-59.49-103.76-143.21-145.2c-11.13-5.51-23.03,6.06-17.94,17.39,.08,.19,.17,.38,.26,.57,9.01,19.19,106.66,74.8,160.88,127.24Z"></path><path class="o" d="M476.67,532.83s-113.86-112.91-234.86-132.83c-7.38-1.21-14.68,3.47-16.17,10.79-.97,4.77,.34,11.03,7.02,18.83,17.81,20.8,158.49,56.52,244.01,103.21Z"></path></g><path class="n" d="M1770.15,280.13v900.1c0,15.75-11.37,28.52-25.38,28.52H446.12c-14.02,0-25.38-12.77-25.38-28.52V280.13c0-15.76,11.37-28.52,25.38-28.52H1744.77c14.02,0,25.38,12.76,25.38,28.52Z"></path><g><path class="m" d="M1705.95,228.74v72.99H256.66v-72.99c0-15.06,12.21-27.26,27.26-27.26H1678.69c15.05,0,27.26,12.2,27.26,27.26Z"></path><g><path class="k" d="M301,251.61c0-7.01,5.68-12.69,12.69-12.69s12.69,5.68,12.69,12.69-5.68,12.69-12.69,12.69-12.69-5.68-12.69-12.69Z"></path><path class="k" d="M351.01,251.61c0-7.01,5.68-12.69,12.69-12.69s12.69,5.68,12.69,12.69-5.68,12.69-12.69,12.69-12.69-5.68-12.69-12.69Z"></path><path class="k" d="M402.28,251.61c0-7.01,5.68-12.69,12.69-12.69s12.69,5.68,12.69,12.69-5.68,12.69-12.69,12.69-12.69-5.68-12.69-12.69Z"></path></g></g><path class="k" d="M1195.58,122.85l17.35-1.95c1.45-.15,2.85,.52,3.64,1.74,1,1.56,2.08,3.09,3.23,4.58,2.13,2.78,4.42,5.35,6.87,7.67,1.15,1.09,1.53,2.74,.94,4.2l-6.65,16.99c-.73,1.81,.07,3.88,1.85,4.75l14.95,7.4c1.7,.83,3.73,.26,4.75-1.32l9.04-14.16c.85-1.4,2.54-2.04,4.17-1.61,6.87,1.81,14.01,2.52,21.16,2.11,1.72-.1,3.33,1.02,3.85,2.67l3.06,9.75c.6,1.84,2.49,2.99,4.41,2.62l16.23-3.28c.33-.06,.65-.16,.94-.31,1.41-.67,2.27-2.2,2.08-3.8l-1.45-12.96-.36-3.16c2.7-1.52,5.35-3.26,7.87-5.2,3.4-2.61,6.5-5.49,9.24-8.55,1.05-1.17,2.7-1.59,4.15-1l13.68,5.37c1.88,.72,3.99-.09,4.87-1.89l5.66-11.43,1.61-3.28c.89-1.79,.29-3.97-1.39-5.03l-11.83-7.56c-1.38-.86-2.06-2.5-1.67-4.05,1.1-4.66,1.72-9.43,1.8-14.2,.04-.42,.04-.8,.04-1.2,0-.14,0-.27,.03-.4,.15-1.53,1.21-2.8,2.68-3.26l15.82-5.01c.18-.04,.36-.13,.52-.2,1.54-.75,2.42-2.48,2.09-4.19l-3.25-16.19c-.39-1.95-2.2-3.28-4.2-3.07l-18.09,2.05c-1.53,.19-3-.6-3.74-1.96-1.63-2.97-3.52-5.87-5.67-8.67-1.14-1.48-2.32-2.9-3.56-4.26-1-1.11-1.29-2.68-.74-4.06l6.39-16.33c.71-1.79-.08-3.85-1.82-4.72l-14.8-7.3c-1.79-.89-3.95-.3-5.05,1.4l-7.15,11.2c-.96,1.5-2.8,2.14-4.47,1.58-6.57-2.28-13.46-3.5-20.41-3.67-1.64-.01-3.1-1.1-3.6-2.69l-4.51-14.26c-.6-1.91-2.56-3.05-4.52-2.67l-16.13,3.23c-1.94,.38-3.25,2.21-3.02,4.14l.08,.76,1.68,15.06c.18,1.61-.64,3.13-2.09,3.88h-.01c-3.45,1.8-6.8,3.91-10.01,6.37-1.71,1.31-3.32,2.69-4.88,4.13-1.07,1.01-2.62,1.31-3.99,.78l-13.89-5.46c-1.9-.75-4.06,.09-4.95,1.9l-7.28,14.73c-.2,.42-.32,.87-.38,1.3-.14,1.41,.51,2.85,1.75,3.65l9.46,6.01c1.15,.75,1.82,2.06,1.77,3.4-.02,.35-.08,.71-.19,1.06-2.88,8.45-4.03,17.37-3.41,26.29,.13,1.51-.71,2.92-2.03,3.62-.19,.1-.39,.18-.6,.25l-12.81,4.05c-1.86,.58-2.98,2.47-2.6,4.4l.07,.38,3.15,15.78c.42,1.98,2.25,3.31,4.27,3.09Zm110.98-49.26c.99,2.48,1.79,5.15,2.35,8.01,1.06,5.45-.04,14.05-2.51,19.04-.26,.54-.53,1.06-.81,1.58-16.97,31.51-61.47,25.24-68.79-10.31-.95-4.65-.36-11.42,1.3-16.61,.4-1.2,.83-2.32,1.33-3.28,2.27-4.52,5.07-8.31,8.28-11.39,18.27-17.55,48.8-11.8,58.84,12.95Z"></path><g><rect class="g" x="501.88" y="872.3" width="120.79" height="10.25" rx="4.23" ry="4.23"></rect><g><path class="i" d="M560.8,917.78h-55.42c-1.93,0-3.5-1.57-3.5-3.5h0c0-1.93,1.57-3.5,3.5-3.5h55.42c1.93,0,3.5,1.57,3.5,3.5h0c0,1.93-1.57,3.5-3.5,3.5Z"></path><g><path class="i" d="M505.13,896.12h98.1c1.8,0,3.25,1.46,3.25,3.25v.48c0,1.8-1.46,3.25-3.25,3.25h-98.1c-1.8,0-3.25-1.46-3.25-3.25v-.48c0-1.8,1.46-3.25,3.25-3.25Z"></path><rect class="i" x="616.02" y="896.12" width="97.68" height="6.99" rx="3.14" ry="3.14"></rect><path class="i" d="M629.92,917.78h-55.42c-1.93,0-3.5-1.57-3.5-3.5h0c0-1.93,1.57-3.5,3.5-3.5h55.42c1.93,0,3.5,1.57,3.5,3.5h0c0,1.93-1.57,3.5-3.5,3.5Z"></path></g></g><rect class="g" x="638.65" y="872.3" width="120.79" height="10.25" rx="4.23" ry="4.23"></rect></g><g><path class="b" d="M506.11,949.46h112.33c2.34,0,4.23,1.9,4.23,4.23v1.78c0,2.34-1.9,4.23-4.23,4.23h-112.32c-2.34,0-4.23-1.9-4.23-4.23v-1.78c0-2.34,1.9-4.23,4.23-4.23Z"></path><g><path class="i" d="M560.8,994.94h-55.42c-1.93,0-3.5-1.57-3.5-3.5h0c0-1.93,1.57-3.5,3.5-3.5h55.42c1.93,0,3.5,1.57,3.5,3.5h0c0,1.93-1.57,3.5-3.5,3.5Z"></path><g><path class="i" d="M505.13,973.28h98.1c1.8,0,3.25,1.46,3.25,3.25v.49c0,1.8-1.46,3.25-3.25,3.25h-98.1c-1.8,0-3.25-1.46-3.25-3.25v-.48c0-1.8,1.46-3.25,3.25-3.25Z"></path><path class="i" d="M619.17,973.28h91.39c1.74,0,3.14,1.41,3.14,3.14v.7c0,1.74-1.41,3.14-3.14,3.14h-91.4c-1.74,0-3.15-1.41-3.15-3.15v-.7c0-1.74,1.41-3.15,3.15-3.15Z"></path><path class="i" d="M629.92,994.94h-55.42c-1.93,0-3.5-1.57-3.5-3.5h0c0-1.93,1.57-3.5,3.5-3.5h55.42c1.93,0,3.5,1.57,3.5,3.5h0c0,1.93-1.57,3.5-3.5,3.5Z"></path></g></g><path class="b" d="M642.89,949.46h112.33c2.34,0,4.23,1.9,4.23,4.23v1.78c0,2.34-1.9,4.23-4.23,4.23h-112.32c-2.34,0-4.23-1.9-4.23-4.23v-1.78c0-2.34,1.9-4.23,4.23-4.23Z"></path></g><g><polygon class="l" points="1202.27 490.73 1138.12 505.66 1106.4 563.38 1082.18 431.83 1202.27 490.73"></polygon><rect class="l" x="1144.57" y="489.64" width="11.73" height="67.85" transform="translate(-82.69 801.09) rotate(-37.15)"></rect></g><g><rect class="f" x="990.97" y="581.78" width="180.86" height="180.86" rx="11.56" ry="11.56"></rect><g><path class="n" d="M1014.08,724.81l35.14-63.36c4.09-7.38,14.45-8.03,19.43-1.23l20.27,27.65c4.31,5.88,12.93,6.35,17.85,.97h0c5.11-5.58,14.12-4.83,18.23,1.52l21.88,33.77c4.98,7.69-.54,17.84-9.7,17.84h-112.99c-8.81,0-14.38-9.46-10.11-17.17Z"></path><path class="n" d="M1083.44,631.84c0-7.64,6.19-13.83,13.82-13.83s13.83,6.19,13.83,13.83-6.19,13.82-13.83,13.82-13.82-6.19-13.82-13.82Z"></path></g></g><g><path class="h" d="M1391.65,767.52l-156.3,21.32c-6.33,.86-12.15-3.57-13.02-9.89l-21.32-156.29c-.86-6.33,3.57-12.15,9.89-13.02l156.3-21.32c6.33-.86,12.15,3.57,13.02,9.89l21.32,156.3c.86,6.33-3.57,12.15-9.89,13.02Z"></path><g><path class="n" d="M1241.69,749.79l26.26-67.53c3.06-7.86,13.23-9.91,19.09-3.84l23.82,24.66c5.07,5.25,13.67,4.54,17.82-1.45h0c4.31-6.22,13.33-6.7,18.27-.96l26.24,30.51c5.98,6.95,1.88,17.75-7.2,18.99l-111.96,15.27c-8.73,1.19-15.53-7.43-12.34-15.64Z"></path><path class="n" d="M1297.84,648.3c-1.03-7.57,4.26-14.54,11.83-15.57,7.57-1.03,14.54,4.26,15.57,11.83,1.03,7.57-4.26,14.53-11.83,15.57-7.57,1.03-14.53-4.26-15.57-11.83Z"></path></g></g><path class="i" d="M892.64,769.75h-9.92c-.9,0-1.63-.73-1.63-1.63s.73-1.63,1.63-1.63h9.85c.9,0,1.66,.73,1.66,1.63s-.7,1.63-1.6,1.63Zm-19.77,0h-9.85c-.9,0-1.63-.73-1.63-1.63s.73-1.63,1.63-1.63h9.85c.9,0,1.63,.73,1.63,1.63s-.73,1.63-1.63,1.63Zm-19.7,0h-9.85c-.9,0-1.63-.73-1.63-1.63s.73-1.63,1.63-1.63h9.85c.9,0,1.63,.73,1.63,1.63s-.73,1.63-1.63,1.63Zm-19.7,0h-9.85c-.9,0-1.63-.73-1.63-1.63s.73-1.63,1.63-1.63h9.85c.9,0,1.63,.73,1.63,1.63s-.73,1.63-1.63,1.63Zm-19.7,0h-9.85c-.9,0-1.63-.73-1.63-1.63s.73-1.63,1.63-1.63h9.85c.9,0,1.63,.73,1.63,1.63s-.73,1.63-1.63,1.63Zm-19.7,0h-9.85c-.9,0-1.63-.73-1.63-1.63s.73-1.63,1.63-1.63h9.85c.9,0,1.63,.73,1.63,1.63s-.73,1.63-1.63,1.63Zm-19.7,0h-9.85c-.9,0-1.63-.73-1.63-1.63s.73-1.63,1.63-1.63h9.85c.9,0,1.63,.73,1.63,1.63s-.73,1.63-1.63,1.63Zm-19.7,0h-9.85c-.9,0-1.63-.73-1.63-1.63s.73-1.63,1.63-1.63h9.85c.9,0,1.63,.73,1.63,1.63s-.73,1.63-1.63,1.63Zm-19.7,0h-9.85c-.9,0-1.63-.73-1.63-1.63s.73-1.63,1.63-1.63h9.85c.9,0,1.63,.73,1.63,1.63s-.73,1.63-1.63,1.63Zm-19.7,0h-9.85c-.9,0-1.63-.73-1.63-1.63s.73-1.63,1.63-1.63h9.85c.9,0,1.63,.73,1.63,1.63s-.73,1.63-1.63,1.63Zm-19.7,0h-9.85c-.9,0-1.63-.73-1.63-1.63s.73-1.63,1.63-1.63h9.85c.9,0,1.63,.73,1.63,1.63s-.73,1.63-1.63,1.63Zm-19.7,0h-9.85c-.9,0-1.63-.73-1.63-1.63s.73-1.63,1.63-1.63h9.85c.9,0,1.63,.73,1.63,1.63s-.73,1.63-1.63,1.63Zm-19.7,0h-9.85c-.9,0-1.63-.73-1.63-1.63s.73-1.63,1.63-1.63h9.85c.9,0,1.63,.73,1.63,1.63s-.73,1.63-1.63,1.63Zm-19.7,0h-9.85c-.9,0-1.63-.73-1.63-1.63s.73-1.63,1.63-1.63h9.85c.9,0,1.63,.73,1.63,1.63s-.73,1.63-1.63,1.63Zm-19.7,0h-9.85c-.9,0-1.63-.73-1.63-1.63s.73-1.63,1.63-1.63h9.85c.9,0,1.63,.73,1.63,1.63s-.73,1.63-1.63,1.63Zm-19.7,0h-9.85c-.9,0-1.63-.73-1.63-1.63s.73-1.63,1.63-1.63h9.85c.9,0,1.63,.73,1.63,1.63s-.73,1.63-1.63,1.63Zm-19.7,0h-9.85c-.9,0-1.63-.73-1.63-1.63s.73-1.63,1.63-1.63h9.85c.9,0,1.63,.73,1.63,1.63s-.73,1.63-1.63,1.63Zm-19.7,0h-8.78c-.39,0-.78-.01-1.17-.04-.9-.06-1.58-.83-1.52-1.73,.06-.9,.83-1.6,1.73-1.52,.32,.02,.64,.03,.97,.03h8.78c.9,0,1.63,.73,1.63,1.63s-.73,1.63-1.63,1.63Zm344.28-2.87c-.52,0-1.03-.25-1.35-.71-.51-.75-.31-1.76,.43-2.27,2.48-1.69,4.38-4.04,5.5-6.81,.34-.84,1.29-1.24,2.12-.9,.84,.34,1.24,1.29,.9,2.12-1.36,3.37-3.67,6.24-6.69,8.29-.28,.19-.6,.28-.91,.28Zm-363.21-.59c-.35,0-.7-.11-.99-.34-2.89-2.23-5.03-5.23-6.18-8.68-.29-.85,.18-1.78,1.03-2.06,.85-.28,1.78,.18,2.06,1.03,.95,2.83,2.7,5.3,5.08,7.13,.71,.55,.85,1.57,.3,2.29-.32,.42-.8,.64-1.29,.64Zm370.51-16.66c-.9,0-1.63-.73-1.63-1.63v-9.85c0-.9,.73-1.63,1.63-1.63s1.63,.73,1.63,1.63v9.85c0,.9-.73,1.63-1.63,1.63Zm-376.99-1c-.9,0-1.63-.73-1.63-1.63v-9.85c0-.9,.73-1.63,1.63-1.63s1.63,.73,1.63,1.63v9.85c0,.9-.73,1.63-1.63,1.63Zm376.99-18.7c-.9,0-1.63-.73-1.63-1.63v-9.85c0-.9,.73-1.63,1.63-1.63s1.63,.73,1.63,1.63v9.85c0,.9-.73,1.63-1.63,1.63Zm-376.99-1c-.9,0-1.63-.73-1.63-1.63v-9.85c0-.9,.73-1.63,1.63-1.63s1.63,.73,1.63,1.63v9.85c0,.9-.73,1.63-1.63,1.63Zm376.99-18.7c-.9,0-1.63-.73-1.63-1.63v-9.85c0-.9,.73-1.63,1.63-1.63s1.63,.73,1.63,1.63v9.85c0,.9-.73,1.63-1.63,1.63Zm-376.99-1c-.9,0-1.63-.73-1.63-1.63v-9.85c0-.9,.73-1.63,1.63-1.63s1.63,.73,1.63,1.63v9.85c0,.9-.73,1.63-1.63,1.63Zm376.99-18.7c-.9,0-1.63-.73-1.63-1.63v-9.85c0-.9,.73-1.63,1.63-1.63s1.63,.73,1.63,1.63v9.85c0,.9-.73,1.63-1.63,1.63Zm-376.99-1c-.9,0-1.63-.73-1.63-1.63v-9.85c0-.9,.73-1.63,1.63-1.63s1.63,.73,1.63,1.63v9.85c0,.9-.73,1.63-1.63,1.63Zm376.99-18.7c-.9,0-1.63-.73-1.63-1.63v-9.85c0-.9,.73-1.63,1.63-1.63s1.63,.73,1.63,1.63v9.85c0,.9-.73,1.63-1.63,1.63Zm-376.99-1c-.9,0-1.63-.73-1.63-1.63v-9.85c0-.9,.73-1.63,1.63-1.63s1.63,.73,1.63,1.63v9.85c0,.9-.73,1.63-1.63,1.63Zm376.99-18.7c-.9,0-1.63-.73-1.63-1.63v-9.85c0-.9,.73-1.63,1.63-1.63s1.63,.73,1.63,1.63v9.85c0,.9-.73,1.63-1.63,1.63Zm-376.99-1c-.9,0-1.63-.73-1.63-1.63v-9.85c0-.9,.73-1.63,1.63-1.63s1.63,.73,1.63,1.63v9.85c0,.9-.73,1.63-1.63,1.63Zm376.99-18.7c-.9,0-1.63-.73-1.63-1.63v-9.85c0-.9,.73-1.63,1.63-1.63s1.63,.73,1.63,1.63v9.85c0,.9-.73,1.63-1.63,1.63Zm-376.99-1c-.9,0-1.63-.73-1.63-1.63v-9.85c0-.9,.73-1.63,1.63-1.63s1.63,.73,1.63,1.63v9.85c0,.9-.73,1.63-1.63,1.63Zm376.99-18.7c-.9,0-1.63-.73-1.63-1.63v-9.85c0-.9,.73-1.63,1.63-1.63s1.63,.73,1.63,1.63v9.85c0,.9-.73,1.63-1.63,1.63Zm-376.99-1c-.9,0-1.63-.73-1.63-1.63v-9.85c0-.9,.73-1.63,1.63-1.63s1.63,.73,1.63,1.63v9.85c0,.9-.73,1.63-1.63,1.63Zm376.99-18.7c-.9,0-1.63-.73-1.63-1.63v-9.85c0-.9,.73-1.63,1.63-1.63s1.63,.73,1.63,1.63v9.85c0,.9-.73,1.63-1.63,1.63Zm-376.99-1c-.9,0-1.63-.73-1.63-1.63v-9.85c0-.9,.73-1.63,1.63-1.63s1.63,.73,1.63,1.63v9.85c0,.9-.73,1.63-1.63,1.63Zm376.99-18.7c-.9,0-1.63-.73-1.63-1.63v-4.45c0-1.64-.26-3.25-.78-4.79-.29-.85,.17-1.78,1.03-2.07,.85-.29,1.78,.17,2.07,1.03,.63,1.87,.95,3.84,.95,5.83v4.45c0,.9-.73,1.63-1.63,1.63Zm-376.99-1c-.9,0-1.63-.73-1.63-1.63v-3.44c0-2.37,.45-4.68,1.33-6.86,.34-.83,1.29-1.24,2.12-.9,.83,.34,1.24,1.29,.9,2.12-.73,1.79-1.09,3.69-1.09,5.64v3.44c0,.9-.73,1.63-1.63,1.63Zm370.48-16.65c-.35,0-.7-.11-.99-.34-2.37-1.82-5.21-2.88-8.19-3.07-.9-.06-1.58-.83-1.53-1.73,.05-.9,.84-1.59,1.73-1.53,3.64,.22,7.09,1.51,9.98,3.74,.71,.55,.85,1.57,.3,2.29-.32,.42-.81,.64-1.29,.64Zm-363.15-.59c-.52,0-1.04-.25-1.35-.72-.5-.75-.31-1.76,.44-2.26,3.01-2.04,6.54-3.12,10.19-3.13h0c.9,0,1.63,.73,1.63,1.63,0,.9-.73,1.63-1.63,1.63-3,0-5.89,.89-8.37,2.57-.28,.19-.6,.28-.91,.28Zm344.21-2.85h-9.85c-.9,0-1.63-.73-1.63-1.63s.73-1.63,1.63-1.63h9.85c.9,0,1.63,.73,1.63,1.63s-.73,1.63-1.63,1.63Zm-19.7,0h-9.85c-.9,0-1.63-.73-1.63-1.63s.73-1.63,1.63-1.63h9.85c.9,0,1.63,.73,1.63,1.63s-.73,1.63-1.63,1.63Zm-19.7,0h-9.85c-.9,0-1.63-.73-1.63-1.63s.73-1.63,1.63-1.63h9.85c.9,0,1.63,.73,1.63,1.63s-.73,1.63-1.63,1.63Zm-19.7,0h-9.85c-.9,0-1.63-.73-1.63-1.63s.73-1.63,1.63-1.63h9.85c.9,0,1.63,.73,1.63,1.63s-.73,1.63-1.63,1.63Zm-19.7,0h-9.85c-.9,0-1.63-.73-1.63-1.63s.73-1.63,1.63-1.63h9.85c.9,0,1.63,.73,1.63,1.63s-.73,1.63-1.63,1.63Zm-19.7,0h-9.85c-.9,0-1.63-.73-1.63-1.63s.73-1.63,1.63-1.63h9.85c.9,0,1.63,.73,1.63,1.63s-.73,1.63-1.63,1.63Zm-19.7,0h-9.85c-.9,0-1.63-.73-1.63-1.63s.73-1.63,1.63-1.63h9.85c.9,0,1.63,.73,1.63,1.63s-.73,1.63-1.63,1.63Zm-19.7,0h-9.85c-.9,0-1.63-.73-1.63-1.63s.73-1.63,1.63-1.63h9.85c.9,0,1.63,.73,1.63,1.63s-.73,1.63-1.63,1.63Zm-19.7,0h-9.85c-.9,0-1.63-.73-1.63-1.63s.73-1.63,1.63-1.63h9.85c.9,0,1.63,.73,1.63,1.63s-.73,1.63-1.63,1.63Zm-19.7,0h-9.85c-.9,0-1.63-.73-1.63-1.63s.73-1.63,1.63-1.63h9.85c.9,0,1.63,.73,1.63,1.63s-.73,1.63-1.63,1.63Zm-19.7,0h-9.85c-.9,0-1.63-.73-1.63-1.63s.73-1.63,1.63-1.63h9.85c.9,0,1.63,.73,1.63,1.63s-.73,1.63-1.63,1.63Zm-19.7,0h-9.85c-.9,0-1.63-.73-1.63-1.63s.73-1.63,1.63-1.63h9.85c.9,0,1.63,.73,1.63,1.63s-.73,1.63-1.63,1.63Zm-19.7,0h-9.85c-.9,0-1.63-.73-1.63-1.63s.73-1.63,1.63-1.63h9.85c.9,0,1.63,.73,1.63,1.63s-.73,1.63-1.63,1.63Zm-19.7,0h-9.85c-.9,0-1.63-.73-1.63-1.63s.73-1.63,1.63-1.63h9.85c.9,0,1.63,.73,1.63,1.63s-.73,1.63-1.63,1.63Zm-19.7,0h-9.85c-.9,0-1.63-.73-1.63-1.63s.73-1.63,1.63-1.63h9.85c.9,0,1.63,.73,1.63,1.63s-.73,1.63-1.63,1.63Zm-19.7,0h-9.85c-.9,0-1.63-.73-1.63-1.63s.73-1.63,1.63-1.63h9.85c.9,0,1.63,.73,1.63,1.63s-.73,1.63-1.63,1.63Zm-19.7,0h-9.85c-.9,0-1.63-.73-1.63-1.63s.73-1.63,1.63-1.63h9.85c.9,0,1.63,.73,1.63,1.63s-.73,1.63-1.63,1.63Z"></path><path class="i" d="M1452.64,1043.15h-8.79c-.8,0-1.44-.65-1.44-1.44s.65-1.44,1.44-1.44h8.73c.8,0,1.48,.65,1.48,1.44s-.61,1.44-1.41,1.44Zm-17.52,0h-8.73c-.8,0-1.44-.65-1.44-1.44s.65-1.44,1.44-1.44h8.73c.8,0,1.44,.65,1.44,1.44s-.65,1.44-1.44,1.44Zm-17.45,0h-8.73c-.8,0-1.44-.65-1.44-1.44s.65-1.44,1.44-1.44h8.73c.8,0,1.44,.65,1.44,1.44s-.65,1.44-1.44,1.44Zm-17.45,0h-8.73c-.8,0-1.44-.65-1.44-1.44s.65-1.44,1.44-1.44h8.73c.8,0,1.44,.65,1.44,1.44s-.65,1.44-1.44,1.44Zm-17.45,0h-8.73c-.8,0-1.44-.65-1.44-1.44s.65-1.44,1.44-1.44h8.73c.8,0,1.44,.65,1.44,1.44s-.65,1.44-1.44,1.44Zm-17.45,0h-8.73c-.8,0-1.44-.65-1.44-1.44s.65-1.44,1.44-1.44h8.73c.8,0,1.44,.65,1.44,1.44s-.65,1.44-1.44,1.44Zm-17.45,0h-8.73c-.8,0-1.44-.65-1.44-1.44s.65-1.44,1.44-1.44h8.73c.8,0,1.44,.65,1.44,1.44s-.65,1.44-1.44,1.44Zm-17.45,0h-8.73c-.8,0-1.44-.65-1.44-1.44s.65-1.44,1.44-1.44h8.73c.8,0,1.44,.65,1.44,1.44s-.65,1.44-1.44,1.44Zm-17.45,0h-8.73c-.8,0-1.44-.65-1.44-1.44s.65-1.44,1.44-1.44h8.73c.8,0,1.44,.65,1.44,1.44s-.65,1.44-1.44,1.44Zm-17.45,0h-8.43c-.12,0-.25,0-.37,0-.8-.04-1.41-.72-1.37-1.51,.04-.8,.69-1.4,1.51-1.37,.08,0,.15,0,.23,0h8.43c.8,0,1.44,.65,1.44,1.44s-.65,1.44-1.44,1.44Zm162.79-5.53h-.05c-.8-.03-1.42-.69-1.4-1.49v-8.68c0-.8,.65-1.44,1.45-1.44s1.44,.65,1.44,1.44v8.77c-.03,.78-.67,1.4-1.45,1.4Zm-176.93-.23c-.8,0-1.44-.65-1.44-1.44v-8.73c0-.8,.65-1.44,1.44-1.44s1.44,.65,1.44,1.44v8.73c0,.8-.65,1.44-1.44,1.44Zm176.93-17.22c-.8,0-1.44-.65-1.44-1.44v-8.73c0-.8,.65-1.44,1.44-1.44s1.44,.65,1.44,1.44v8.73c0,.8-.65,1.44-1.44,1.44Zm-176.93-.23c-.8,0-1.44-.65-1.44-1.44v-8.73c0-.8,.65-1.44,1.44-1.44s1.44,.65,1.44,1.44v8.73c0,.8-.65,1.44-1.44,1.44Zm176.93-17.22c-.8,0-1.44-.65-1.44-1.44v-8.73c0-.8,.65-1.44,1.44-1.44s1.44,.65,1.44,1.44v8.73c0,.8-.65,1.44-1.44,1.44Zm-176.93-.23c-.8,0-1.44-.65-1.44-1.44v-8.51c0-.09,0-.18,0-.28,.03-.8,.67-1.43,1.5-1.38,.8,.03,1.42,.7,1.38,1.5v8.67c0,.8-.65,1.44-1.45,1.44Zm171.49-14.22s-.04,0-.06,0h-8.66c-.8,0-1.44-.65-1.44-1.45s.65-1.44,1.44-1.44h8.46c.11,0,.22,0,.33,0,.8,.04,1.42,.71,1.38,1.51-.03,.78-.67,1.38-1.44,1.38Zm-17.46,0h-8.73c-.8,0-1.44-.65-1.44-1.44s.65-1.44,1.44-1.44h8.73c.8,0,1.44,.65,1.44,1.44s-.65,1.44-1.44,1.44Zm-17.45,0h-8.73c-.8,0-1.44-.65-1.44-1.44s.65-1.44,1.44-1.44h8.73c.8,0,1.44,.65,1.44,1.44s-.65,1.44-1.44,1.44Zm-17.45,0h-8.73c-.8,0-1.44-.65-1.44-1.44s.65-1.44,1.44-1.44h8.73c.8,0,1.44,.65,1.44,1.44s-.65,1.44-1.44,1.44Zm-17.45,0h-8.73c-.8,0-1.44-.65-1.44-1.44s.65-1.44,1.44-1.44h8.73c.8,0,1.44,.65,1.44,1.44s-.65,1.44-1.44,1.44Zm-17.45,0h-8.73c-.8,0-1.44-.65-1.44-1.44s.65-1.44,1.44-1.44h8.73c.8,0,1.44,.65,1.44,1.44s-.65,1.44-1.44,1.44Zm-17.45,0h-8.73c-.8,0-1.44-.65-1.44-1.44s.65-1.44,1.44-1.44h8.73c.8,0,1.44,.65,1.44,1.44s-.65,1.44-1.44,1.44Zm-17.45,0h-8.73c-.8,0-1.44-.65-1.44-1.44s.65-1.44,1.44-1.44h8.73c.8,0,1.44,.65,1.44,1.44s-.65,1.44-1.44,1.44Zm-17.45,0h-8.73c-.8,0-1.44-.65-1.44-1.44s.65-1.44,1.44-1.44h8.73c.8,0,1.44,.65,1.44,1.44s-.65,1.44-1.44,1.44Zm-17.45,0h-8.69c-.8,0-1.46-.65-1.46-1.44s.63-1.44,1.43-1.44h8.73c.8,0,1.44,.65,1.44,1.44s-.65,1.44-1.44,1.44Z"></path><path class="i" d="M829.3,522.35h-9.72c-.9,0-1.63-.73-1.63-1.63s.73-1.63,1.63-1.63h9.66c.9,0,1.66,.73,1.66,1.63s-.7,1.63-1.6,1.63Zm-19.37,0h-9.66c-.9,0-1.63-.73-1.63-1.63s.73-1.63,1.63-1.63h9.66c.9,0,1.63,.73,1.63,1.63s-.73,1.63-1.63,1.63Zm-19.31,0h-9.66c-.9,0-1.63-.73-1.63-1.63s.73-1.63,1.63-1.63h9.66c.9,0,1.63,.73,1.63,1.63s-.73,1.63-1.63,1.63Zm-19.31,0h-9.66c-.9,0-1.63-.73-1.63-1.63s.73-1.63,1.63-1.63h9.66c.9,0,1.63,.73,1.63,1.63s-.73,1.63-1.63,1.63Zm-19.31,0h-9.66c-.9,0-1.63-.73-1.63-1.63s.73-1.63,1.63-1.63h9.66c.9,0,1.63,.73,1.63,1.63s-.73,1.63-1.63,1.63Zm-19.31,0h-9.66c-.9,0-1.63-.73-1.63-1.63s.73-1.63,1.63-1.63h9.66c.9,0,1.63,.73,1.63,1.63s-.73,1.63-1.63,1.63Zm-19.31,0h-9.66c-.9,0-1.63-.73-1.63-1.63s.73-1.63,1.63-1.63h9.66c.9,0,1.63,.73,1.63,1.63s-.73,1.63-1.63,1.63Zm-19.13-1.04c-.27,0-.55-.07-.8-.21-3.02-1.71-4.9-4.93-4.9-8.4v-1.18c0-.9,.73-1.63,1.63-1.63s1.63,.73,1.63,1.63v1.18c0,2.3,1.24,4.43,3.24,5.56,.78,.44,1.06,1.44,.61,2.22-.3,.53-.85,.83-1.42,.83Zm142.52-4.16c-.19,0-.38-.03-.57-.1-.84-.32-1.27-1.26-.95-2.1,.27-.72,.41-1.48,.41-2.25v-6.77c0-.9,.73-1.63,1.63-1.63s1.63,.73,1.63,1.63v6.77c0,1.17-.21,2.31-.62,3.4-.25,.65-.87,1.06-1.53,1.06Zm-146.59-13.67c-.9,0-1.63-.73-1.63-1.63v-9.66c0-.9,.73-1.63,1.63-1.63s1.63,.73,1.63,1.63v9.66c0,.9-.73,1.63-1.63,1.63Zm147.11-5.59c-.9,0-1.63-.73-1.63-1.63v-9.66c0-.9,.73-1.63,1.63-1.63s1.63,.73,1.63,1.63v9.66c0,.9-.73,1.63-1.63,1.63Zm-147.11-13.73c-.9,0-1.63-.73-1.63-1.63v-9.66c0-.9,.73-1.63,1.63-1.63s1.63,.73,1.63,1.63v9.66c0,.9-.73,1.63-1.63,1.63Zm147.11-5.58c-.9,0-1.63-.73-1.63-1.63v-9.66c0-.9,.73-1.63,1.63-1.63s1.63,.73,1.63,1.63v9.66c0,.9-.73,1.63-1.63,1.63Zm-147.11-13.73c-.9,0-1.63-.73-1.63-1.63v-9.66c0-.9,.73-1.63,1.63-1.63s1.63,.73,1.63,1.63v9.66c0,.9-.73,1.63-1.63,1.63Zm147.11-5.59c-.9,0-1.63-.73-1.63-1.63v-9.66c0-.9,.73-1.63,1.63-1.63s1.63,.73,1.63,1.63v9.66c0,.9-.73,1.63-1.63,1.63Zm-147.11-13.73c-.9,0-1.63-.73-1.63-1.63v-9.66c0-.9,.73-1.63,1.63-1.63s1.63,.73,1.63,1.63v9.66c0,.9-.73,1.63-1.63,1.63Zm147.11-5.59c-.9,0-1.63-.73-1.63-1.63v-9.66c0-.9,.73-1.63,1.63-1.63s1.63,.73,1.63,1.63v9.66c0,.9-.73,1.63-1.63,1.63Zm-147.11-13.73c-.9,0-1.63-.73-1.63-1.63v-9.66c0-.9,.73-1.63,1.63-1.63s1.63,.73,1.63,1.63v9.66c0,.9-.73,1.63-1.63,1.63Zm147.11-5.59c-.9,0-1.63-.73-1.63-1.63v-9.66c0-.9,.73-1.63,1.63-1.63s1.63,.73,1.63,1.63v9.66c0,.9-.73,1.63-1.63,1.63Zm-147.11-13.73c-.9,0-1.63-.73-1.63-1.63v-6.74c0-1.18,.21-2.34,.63-3.43,.32-.84,1.26-1.26,2.1-.94,.84,.32,1.26,1.26,.94,2.1-.28,.73-.42,1.49-.42,2.27v6.74c0,.9-.73,1.63-1.63,1.63Zm147.11-5.58c-.9,0-1.63-.73-1.63-1.63v-1.15c0-2.31-1.25-4.44-3.27-5.58-.78-.44-1.06-1.44-.62-2.22,.44-.78,1.43-1.06,2.22-.62,3.04,1.71,4.93,4.94,4.93,8.42v1.15c0,.9-.73,1.63-1.63,1.63Zm-13.58-9.18h-9.66c-.9,0-1.63-.73-1.63-1.63s.73-1.63,1.63-1.63h9.66c.9,0,1.63,.73,1.63,1.63s-.73,1.63-1.63,1.63Zm-19.31,0h-9.66c-.9,0-1.63-.73-1.63-1.63s.73-1.63,1.63-1.63h9.66c.9,0,1.63,.73,1.63,1.63s-.73,1.63-1.63,1.63Zm-19.31,0h-9.66c-.9,0-1.63-.73-1.63-1.63s.73-1.63,1.63-1.63h9.66c.9,0,1.63,.73,1.63,1.63s-.73,1.63-1.63,1.63Zm-19.31,0h-9.66c-.9,0-1.63-.73-1.63-1.63s.73-1.63,1.63-1.63h9.66c.9,0,1.63,.73,1.63,1.63s-.73,1.63-1.63,1.63Zm-19.31,0h-9.66c-.9,0-1.63-.73-1.63-1.63s.73-1.63,1.63-1.63h9.66c.9,0,1.63,.73,1.63,1.63s-.73,1.63-1.63,1.63Zm-19.31,0h-9.66c-.9,0-1.63-.73-1.63-1.63s.73-1.63,1.63-1.63h9.66c.9,0,1.63,.73,1.63,1.63s-.73,1.63-1.63,1.63Zm-19.31,0h-9.63c-.9,0-1.65-.73-1.65-1.63s.72-1.63,1.62-1.63h9.66c.9,0,1.63,.73,1.63,1.63s-.73,1.63-1.63,1.63Z"></path><path class="i" d="M1452.64,1123.69h-8.79c-.8,0-1.44-.65-1.44-1.44s.65-1.44,1.44-1.44h8.73c.8,0,1.48,.65,1.48,1.44s-.61,1.44-1.41,1.44Zm-17.52,0h-8.73c-.8,0-1.44-.65-1.44-1.44s.65-1.44,1.44-1.44h8.73c.8,0,1.44,.65,1.44,1.44s-.65,1.44-1.44,1.44Zm-17.45,0h-8.73c-.8,0-1.44-.65-1.44-1.44s.65-1.44,1.44-1.44h8.73c.8,0,1.44,.65,1.44,1.44s-.65,1.44-1.44,1.44Zm-17.45,0h-8.73c-.8,0-1.44-.65-1.44-1.44s.65-1.44,1.44-1.44h8.73c.8,0,1.44,.65,1.44,1.44s-.65,1.44-1.44,1.44Zm-17.45,0h-8.73c-.8,0-1.44-.65-1.44-1.44s.65-1.44,1.44-1.44h8.73c.8,0,1.44,.65,1.44,1.44s-.65,1.44-1.44,1.44Zm-17.45,0h-8.73c-.8,0-1.44-.65-1.44-1.44s.65-1.44,1.44-1.44h8.73c.8,0,1.44,.65,1.44,1.44s-.65,1.44-1.44,1.44Zm-17.45,0h-8.73c-.8,0-1.44-.65-1.44-1.44s.65-1.44,1.44-1.44h8.73c.8,0,1.44,.65,1.44,1.44s-.65,1.44-1.44,1.44Zm-17.45,0h-8.73c-.8,0-1.44-.65-1.44-1.44s.65-1.44,1.44-1.44h8.73c.8,0,1.44,.65,1.44,1.44s-.65,1.44-1.44,1.44Zm-17.45,0h-8.73c-.8,0-1.44-.65-1.44-1.44s.65-1.44,1.44-1.44h8.73c.8,0,1.44,.65,1.44,1.44s-.65,1.44-1.44,1.44Zm-17.45,0h-8.43c-.12,0-.25,0-.37,0-.8-.04-1.41-.72-1.37-1.51,.04-.8,.69-1.42,1.51-1.37,.08,0,.15,0,.23,0h8.43c.8,0,1.44,.65,1.44,1.44s-.65,1.44-1.44,1.44Zm162.79-5.53h-.05c-.8-.03-1.42-.69-1.4-1.49v-8.68c0-.8,.65-1.44,1.45-1.44s1.44,.65,1.44,1.44v8.77c-.03,.78-.67,1.4-1.45,1.4Zm-176.93-.23c-.8,0-1.44-.65-1.44-1.44v-8.73c0-.8,.65-1.44,1.44-1.44s1.44,.65,1.44,1.44v8.73c0,.8-.65,1.44-1.44,1.44Zm176.93-17.22c-.8,0-1.44-.65-1.44-1.44v-8.73c0-.8,.65-1.44,1.44-1.44s1.44,.65,1.44,1.44v8.73c0,.8-.65,1.44-1.44,1.44Zm-176.93-.23c-.8,0-1.44-.65-1.44-1.44v-8.73c0-.8,.65-1.44,1.44-1.44s1.44,.65,1.44,1.44v8.73c0,.8-.65,1.44-1.44,1.44Zm176.93-17.22c-.8,0-1.44-.65-1.44-1.44v-8.73c0-.8,.65-1.44,1.44-1.44s1.44,.65,1.44,1.44v8.73c0,.8-.65,1.44-1.44,1.44Zm-176.93-.23c-.8,0-1.44-.65-1.44-1.44v-8.51c0-.09,0-.18,0-.28,.03-.8,.67-1.42,1.5-1.38,.8,.03,1.42,.7,1.38,1.5v8.67c0,.8-.65,1.44-1.45,1.44Zm171.49-14.22s-.04,0-.06,0h-8.66c-.8,0-1.44-.65-1.44-1.45s.65-1.44,1.44-1.44h8.46c.11,0,.22,0,.33,0,.8,.04,1.42,.71,1.38,1.51-.03,.78-.67,1.38-1.44,1.38Zm-17.46,0h-8.73c-.8,0-1.44-.65-1.44-1.44s.65-1.44,1.44-1.44h8.73c.8,0,1.44,.65,1.44,1.44s-.65,1.44-1.44,1.44Zm-17.45,0h-8.73c-.8,0-1.44-.65-1.44-1.44s.65-1.44,1.44-1.44h8.73c.8,0,1.44,.65,1.44,1.44s-.65,1.44-1.44,1.44Zm-17.45,0h-8.73c-.8,0-1.44-.65-1.44-1.44s.65-1.44,1.44-1.44h8.73c.8,0,1.44,.65,1.44,1.44s-.65,1.44-1.44,1.44Zm-17.45,0h-8.73c-.8,0-1.44-.65-1.44-1.44s.65-1.44,1.44-1.44h8.73c.8,0,1.44,.65,1.44,1.44s-.65,1.44-1.44,1.44Zm-17.45,0h-8.73c-.8,0-1.44-.65-1.44-1.44s.65-1.44,1.44-1.44h8.73c.8,0,1.44,.65,1.44,1.44s-.65,1.44-1.44,1.44Zm-17.45,0h-8.73c-.8,0-1.44-.65-1.44-1.44s.65-1.44,1.44-1.44h8.73c.8,0,1.44,.65,1.44,1.44s-.65,1.44-1.44,1.44Zm-17.45,0h-8.73c-.8,0-1.44-.65-1.44-1.44s.65-1.44,1.44-1.44h8.73c.8,0,1.44,.65,1.44,1.44s-.65,1.44-1.44,1.44Zm-17.45,0h-8.73c-.8,0-1.44-.65-1.44-1.44s.65-1.44,1.44-1.44h8.73c.8,0,1.44,.65,1.44,1.44s-.65,1.44-1.44,1.44Zm-17.45,0h-8.69c-.8,0-1.46-.65-1.46-1.44s.63-1.44,1.43-1.44h8.73c.8,0,1.44,.65,1.44,1.44s-.65,1.44-1.44,1.44Z"></path><path class="i" d="M763.95,1063.01h-8.71c-.8,0-1.44-.65-1.44-1.44s.65-1.44,1.44-1.44h8.65c.8,0,1.47,.65,1.47,1.44s-.62,1.44-1.41,1.44Zm-17.36,0h-8.65c-.8,0-1.44-.65-1.44-1.44s.65-1.44,1.44-1.44h8.65c.8,0,1.44,.65,1.44,1.44s-.65,1.44-1.44,1.44Zm-17.3,0h-8.65c-.8,0-1.44-.65-1.44-1.44s.65-1.44,1.44-1.44h8.65c.8,0,1.44,.65,1.44,1.44s-.65,1.44-1.44,1.44Zm-17.3,0h-8.65c-.8,0-1.44-.65-1.44-1.44s.65-1.44,1.44-1.44h8.65c.8,0,1.44,.65,1.44,1.44s-.65,1.44-1.44,1.44Zm-17.3,0h-8.65c-.8,0-1.44-.65-1.44-1.44s.65-1.44,1.44-1.44h8.65c.8,0,1.44,.65,1.44,1.44s-.65,1.44-1.44,1.44Zm-17.3,0h-8.65c-.8,0-1.44-.65-1.44-1.44s.65-1.44,1.44-1.44h8.65c.8,0,1.44,.65,1.44,1.44s-.65,1.44-1.44,1.44Zm-17.3,0h-8.65c-.8,0-1.44-.65-1.44-1.44s.65-1.44,1.44-1.44h8.65c.8,0,1.44,.65,1.44,1.44s-.65,1.44-1.44,1.44Zm-17.3,0h-8.65c-.8,0-1.44-.65-1.44-1.44s.65-1.44,1.44-1.44h8.65c.8,0,1.44,.65,1.44,1.44s-.65,1.44-1.44,1.44Zm-17.3,0h-8.65c-.8,0-1.44-.65-1.44-1.44s.65-1.44,1.44-1.44h8.65c.8,0,1.44,.65,1.44,1.44s-.65,1.44-1.44,1.44Zm-17.3,0h-8.65c-.8,0-1.44-.65-1.44-1.44s.65-1.44,1.44-1.44h8.65c.8,0,1.44,.65,1.44,1.44s-.65,1.44-1.44,1.44Zm-17.3,0h-8.65c-.8,0-1.44-.65-1.44-1.44s.65-1.44,1.44-1.44h8.65c.8,0,1.44,.65,1.44,1.44s-.65,1.44-1.44,1.44Zm-17.3,0h-8.65c-.8,0-1.44-.65-1.44-1.44s.65-1.44,1.44-1.44h8.65c.8,0,1.44,.65,1.44,1.44s-.65,1.44-1.44,1.44Zm-17.3,0h-8.65c-.8,0-1.44-.65-1.44-1.44s.65-1.44,1.44-1.44h8.65c.8,0,1.44,.65,1.44,1.44s-.65,1.44-1.44,1.44Zm-17.3,0h-8.65c-.8,0-1.44-.65-1.44-1.44s.65-1.44,1.44-1.44h8.65c.8,0,1.44,.65,1.44,1.44s-.65,1.44-1.44,1.44Zm-17.3,0h-8.65c-.8,0-1.44-.65-1.44-1.44s.65-1.44,1.44-1.44h8.65c.8,0,1.44,.65,1.44,1.44s-.65,1.44-1.44,1.44Zm-17.3,0h-6.91c-.64,0-1.28-.04-1.91-.11-.79-.09-1.36-.81-1.27-1.6,.09-.79,.81-1.36,1.6-1.27,.51,.06,1.04,.09,1.57,.09h6.91c.8,0,1.44,.65,1.44,1.44s-.65,1.44-1.44,1.44Zm267.75-2.5c-.47,0-.92-.22-1.2-.64-.44-.66-.27-1.56,.39-2,2.19-1.47,3.87-3.52,4.88-5.95,.31-.74,1.15-1.08,1.89-.78,.74,.31,1.09,1.15,.78,1.89-1.23,2.95-3.28,5.45-5.94,7.24-.25,.17-.53,.25-.8,.25Zm-284.21-1.02c-.33,0-.66-.11-.94-.34-2.44-2.08-4.2-4.8-5.07-7.87-.22-.77,.22-1.57,.99-1.79,.77-.22,1.57,.22,1.79,.99,.72,2.52,2.16,4.75,4.17,6.46,.61,.52,.68,1.43,.16,2.04-.29,.34-.69,.51-1.1,.51Zm290.74-14.08c-.8,0-1.44-.65-1.44-1.44v-8.65c0-.8,.65-1.44,1.44-1.44s1.44,.65,1.44,1.44v8.65c0,.8-.65,1.44-1.44,1.44Zm-295.93-1.69c-.8,0-1.44-.65-1.44-1.44v-8.65c0-.8,.65-1.44,1.44-1.44s1.44,.65,1.44,1.44v8.65c0,.8-.65,1.44-1.44,1.44Zm295.93-15.62c-.8,0-1.44-.65-1.44-1.44v-8.65c0-.8,.65-1.44,1.44-1.44s1.44,.65,1.44,1.44v8.65c0,.8-.65,1.44-1.44,1.44Zm-295.93-1.69c-.8,0-1.44-.65-1.44-1.44v-8.65c0-.8,.65-1.44,1.44-1.44s1.44,.65,1.44,1.44v8.65c0,.8-.65,1.44-1.44,1.44Zm295.93-15.62c-.8,0-1.44-.65-1.44-1.44v-8.65c0-.8,.65-1.44,1.44-1.44s1.44,.65,1.44,1.44v8.65c0,.8-.65,1.44-1.44,1.44Zm-295.93-1.69c-.8,0-1.44-.65-1.44-1.44v-8.65c0-.8,.65-1.44,1.44-1.44s1.44,.65,1.44,1.44v8.65c0,.8-.65,1.44-1.44,1.44Zm295.93-15.62c-.8,0-1.44-.65-1.44-1.44v-8.65c0-.8,.65-1.44,1.44-1.44s1.44,.65,1.44,1.44v8.65c0,.8-.65,1.44-1.44,1.44Zm-295.93-1.69c-.8,0-1.44-.65-1.44-1.44v-8.65c0-.8,.65-1.44,1.44-1.44s1.44,.65,1.44,1.44v8.65c0,.8-.65,1.44-1.44,1.44Zm295.93-15.62c-.8,0-1.44-.65-1.44-1.44v-8.65c0-.8,.65-1.44,1.44-1.44s1.44,.65,1.44,1.44v8.65c0,.8-.65,1.44-1.44,1.44Zm-295.93-1.69c-.8,0-1.44-.65-1.44-1.44v-8.65c0-.8,.65-1.44,1.44-1.44s1.44,.65,1.44,1.44v8.65c0,.8-.65,1.44-1.44,1.44Zm295.93-15.62c-.8,0-1.44-.65-1.44-1.44v-8.65c0-.8,.65-1.44,1.44-1.44s1.44,.65,1.44,1.44v8.65c0,.8-.65,1.44-1.44,1.44Zm-295.93-1.69c-.8,0-1.44-.65-1.44-1.44v-8.65c0-.8,.65-1.44,1.44-1.44s1.44,.65,1.44,1.44v8.65c0,.8-.65,1.44-1.44,1.44Zm295.93-15.62c-.8,0-1.44-.65-1.44-1.44v-8.65c0-.8,.65-1.44,1.44-1.44s1.44,.65,1.44,1.44v8.65c0,.8-.65,1.44-1.44,1.44Zm-295.93-1.69c-.8,0-1.44-.65-1.44-1.44v-8.65c0-.8,.65-1.44,1.44-1.44s1.44,.65,1.44,1.44v8.65c0,.8-.65,1.44-1.44,1.44Zm295.93-15.62c-.8,0-1.44-.65-1.44-1.44v-8.65c0-.8,.65-1.44,1.44-1.44s1.44,.65,1.44,1.44v8.65c0,.8-.65,1.44-1.44,1.44Zm-295.93-1.69c-.8,0-1.44-.65-1.44-1.44v-8.65c0-.8,.65-1.44,1.44-1.44s1.44,.65,1.44,1.44v8.65c0,.8-.65,1.44-1.44,1.44Zm295.93-15.62c-.8,0-1.44-.65-1.44-1.44v-8.65c0-.8,.65-1.44,1.44-1.44s1.44,.65,1.44,1.44v8.65c0,.8-.65,1.44-1.44,1.44Zm-295.93-1.69c-.8,0-1.44-.65-1.44-1.44v-8.65c0-.8,.65-1.44,1.44-1.44s1.44,.65,1.44,1.44v8.65c0,.8-.65,1.44-1.44,1.44Zm295.93-15.62c-.8,0-1.44-.65-1.44-1.44v-8.65c0-.8,.65-1.44,1.44-1.44s1.44,.65,1.44,1.44v8.65c0,.8-.65,1.44-1.44,1.44Zm-295.93-1.69c-.8,0-1.44-.65-1.44-1.44v-8.65c0-.8,.65-1.44,1.44-1.44s1.44,.65,1.44,1.44v8.65c0,.8-.65,1.44-1.44,1.44Zm295.93-15.62c-.8,0-1.44-.65-1.44-1.44v-8.65c0-.8,.65-1.44,1.44-1.44s1.44,.65,1.44,1.44v8.65c0,.8-.65,1.44-1.44,1.44Zm-295.93-1.69c-.8,0-1.44-.65-1.44-1.44v-8.65c0-.8,.65-1.44,1.44-1.44s1.44,.65,1.44,1.44v8.65c0,.8-.65,1.44-1.44,1.44Zm295.35-15.56c-.63,0-1.2-.41-1.39-1.04-.73-2.52-2.17-4.75-4.18-6.45-.61-.52-.68-1.43-.17-2.04,.52-.61,1.43-.68,2.04-.17,2.45,2.07,4.21,4.79,5.09,7.86,.22,.77-.22,1.57-.99,1.79-.13,.04-.27,.06-.4,.06Zm-294.22-1.59c-.19,0-.37-.04-.56-.11-.74-.31-1.08-1.15-.78-1.89,1.23-2.95,3.29-5.45,5.95-7.23,.66-.44,1.56-.27,2,.4,.44,.66,.27,1.56-.4,2-2.19,1.46-3.88,3.52-4.89,5.94-.23,.55-.77,.89-1.33,.89Zm281.77-8.96c-.06,0-.11,0-.17,0-.51-.06-1.03-.09-1.55-.09h-6.94c-.8,0-1.44-.65-1.44-1.44s.65-1.44,1.44-1.44h6.94c.63,0,1.26,.04,1.88,.11,.79,.09,1.36,.81,1.27,1.6-.08,.74-.71,1.28-1.43,1.28Zm-17.3-.1h-8.65c-.8,0-1.44-.65-1.44-1.44s.65-1.44,1.44-1.44h8.65c.8,0,1.44,.65,1.44,1.44s-.65,1.44-1.44,1.44Zm-17.3,0h-8.65c-.8,0-1.44-.65-1.44-1.44s.65-1.44,1.44-1.44h8.65c.8,0,1.44,.65,1.44,1.44s-.65,1.44-1.44,1.44Zm-17.3,0h-8.65c-.8,0-1.44-.65-1.44-1.44s.65-1.44,1.44-1.44h8.65c.8,0,1.44,.65,1.44,1.44s-.65,1.44-1.44,1.44Zm-17.3,0h-8.65c-.8,0-1.44-.65-1.44-1.44s.65-1.44,1.44-1.44h8.65c.8,0,1.44,.65,1.44,1.44s-.65,1.44-1.44,1.44Zm-17.3,0h-8.65c-.8,0-1.44-.65-1.44-1.44s.65-1.44,1.44-1.44h8.65c.8,0,1.44,.65,1.44,1.44s-.65,1.44-1.44,1.44Zm-17.3,0h-8.65c-.8,0-1.44-.65-1.44-1.44s.65-1.44,1.44-1.44h8.65c.8,0,1.44,.65,1.44,1.44s-.65,1.44-1.44,1.44Zm-17.3,0h-8.65c-.8,0-1.44-.65-1.44-1.44s.65-1.44,1.44-1.44h8.65c.8,0,1.44,.65,1.44,1.44s-.65,1.44-1.44,1.44Zm-17.3,0h-8.65c-.8,0-1.44-.65-1.44-1.44s.65-1.44,1.44-1.44h8.65c.8,0,1.44,.65,1.44,1.44s-.65,1.44-1.44,1.44Zm-17.3,0h-8.65c-.8,0-1.44-.65-1.44-1.44s.65-1.44,1.44-1.44h8.65c.8,0,1.44,.65,1.44,1.44s-.65,1.44-1.44,1.44Zm-17.3,0h-8.65c-.8,0-1.44-.65-1.44-1.44s.65-1.44,1.44-1.44h8.65c.8,0,1.44,.65,1.44,1.44s-.65,1.44-1.44,1.44Zm-17.3,0h-8.65c-.8,0-1.44-.65-1.44-1.44s.65-1.44,1.44-1.44h8.65c.8,0,1.44,.65,1.44,1.44s-.65,1.44-1.44,1.44Zm-17.3,0h-8.65c-.8,0-1.44-.65-1.44-1.44s.65-1.44,1.44-1.44h8.65c.8,0,1.44,.65,1.44,1.44s-.65,1.44-1.44,1.44Zm-17.3,0h-8.65c-.8,0-1.44-.65-1.44-1.44s.65-1.44,1.44-1.44h8.65c.8,0,1.44,.65,1.44,1.44s-.65,1.44-1.44,1.44Zm-17.3,0h-8.65c-.8,0-1.44-.65-1.44-1.44s.65-1.44,1.44-1.44h8.65c.8,0,1.44,.65,1.44,1.44s-.65,1.44-1.44,1.44Zm-17.3,0h-8.62c-.8,0-1.46-.65-1.46-1.44s.63-1.44,1.43-1.44h8.65c.8,0,1.44,.65,1.44,1.44s-.65,1.44-1.44,1.44Z"></path><g><path class="e" d="M498.37,579.31h349.67c7.54,0,13.66,6.12,13.66,13.66v191.19c0,7.54-6.12,13.66-13.66,13.66H498.37c-7.54,0-13.66-6.12-13.66-13.66v-191.19c0-7.54,6.12-13.66,13.66-13.66Z"></path><path d="M630.66,645.23v86.69c0,5.42,6.03,8.67,10.55,5.69l65.88-43.34c4.09-2.69,4.09-8.69,0-11.38l-65.88-43.34c-4.53-2.98-10.55,.27-10.55,5.69Z"></path><g><path class="j" d="M504.3,778.12c0-3.74,3.03-6.77,6.77-6.77s6.77,3.03,6.77,6.77-3.03,6.77-6.77,6.77-6.77-3.03-6.77-6.77Z"></path><path class="j" d="M818.91,779.94h-306.02c-1.01,0-1.82-.82-1.82-1.82h0c0-1.01,.82-1.82,1.82-1.82h306.02c1.01,0,1.82,.82,1.82,1.82h0c0,1.01-.82,1.82-1.82,1.82Z"></path></g></g><rect class="d" x="837.27" y="843.05" width="195.04" height="291.15"></rect><g><path class="c" d="M1710.29,349.03h-67.39c-2.83,0-5.15-2.32-5.15-5.15h0c0-2.83,2.32-5.15,5.15-5.15h67.39c2.83,0,5.15,2.32,5.15,5.15h0c0,2.83-2.32,5.15-5.15,5.15Z"></path><path class="c" d="M1710.29,369.15h-67.39c-2.83,0-5.15-2.32-5.15-5.15h0c0-2.83,2.32-5.15,5.15-5.15h67.39c2.83,0,5.15,2.32,5.15,5.15h0c0,2.83-2.32,5.15-5.15,5.15Z"></path><path class="c" d="M1710.29,389.79h-67.39c-2.83,0-5.15-2.32-5.15-5.15h0c0-2.83,2.32-5.15,5.15-5.15h67.39c2.83,0,5.15,2.32,5.15,5.15h0c0,2.83-2.32,5.15-5.15,5.15Z"></path></g><path class="c" d="M1446.4,875.67h-160.42c-3.76,0-6.83-3.07-6.83-6.83h0c0-3.76,3.07-6.83,6.83-6.83h160.42c3.76,0,6.83,3.07,6.83,6.83h0c0,3.75-3.07,6.83-6.83,6.83Z"></path><path class="c" d="M662.22,406.96h-160.42c-3.76,0-6.83-3.07-6.83-6.83h0c0-3.76,3.07-6.83,6.83-6.83h160.42c3.76,0,6.83,3.07,6.83,6.83h0c0,3.76-3.07,6.83-6.83,6.83Z"></path><path class="c" d="M1446.4,943.42h-160.42c-3.76,0-6.83-3.07-6.83-6.83h0c0-3.76,3.07-6.83,6.83-6.83h160.42c3.76,0,6.83,3.07,6.83,6.83h0c0,3.76-3.07,6.83-6.83,6.83Z"></path><path class="c" d="M1446.4,909.54h-191.87c-3.76,0-6.83-3.07-6.83-6.83h0c0-3.76,3.07-6.83,6.83-6.83h191.87c3.76,0,6.83,3.07,6.83,6.83h0c0,3.76-3.07,6.83-6.83,6.83Z"></path><g><path class="c" d="M524.08,436.25h90.52c2.87,0,5.2,2.33,5.2,5.2v3.26c0,2.87-2.33,5.2-5.2,5.2h-90.52c-2.87,0-5.2-2.33-5.2-5.2v-3.26c0-2.87,2.33-5.2,5.2-5.2Z"></path><path class="c" d="M488.9,443.07c0-3.77,3.06-6.83,6.83-6.83s6.83,3.06,6.83,6.83-3.06,6.83-6.83,6.83-6.83-3.06-6.83-6.83Z"></path></g><g><rect class="c" x="518.88" y="463.42" width="118.54" height="13.66" rx="5.63" ry="5.63"></rect><path class="c" d="M488.9,470.25c0-3.77,3.06-6.83,6.83-6.83s6.83,3.06,6.83,6.83-3.06,6.83-6.83,6.83-6.83-3.06-6.83-6.83Z"></path></g><g><path class="c" d="M524.08,492.92h90.52c2.87,0,5.2,2.33,5.2,5.2v3.26c0,2.87-2.33,5.2-5.2,5.2h-90.52c-2.87,0-5.2-2.33-5.2-5.2v-3.26c0-2.87,2.33-5.2,5.2-5.2Z"></path><path class="c" d="M488.9,499.75c0-3.77,3.06-6.83,6.83-6.83s6.83,3.06,6.83,6.83-3.06,6.83-6.83,6.83-6.83-3.06-6.83-6.83Z"></path></g><g><path class="i" d="M779.26,465.2c-1.19,.16-2.39,.24-3.61,.22-6.43-.07-12.46-2.65-16.95-7.25-9.28-9.5-9.11-24.79,.39-34.07h0c9.5-9.28,24.78-9.11,34.07,.39,9.28,9.5,9.11,24.79-.4,34.07-3.73,3.65-8.43,5.94-13.51,6.63Zm-17.39-38.26c-7.94,7.75-8.08,20.52-.33,28.46,3.76,3.85,8.79,6,14.16,6.06,5.37,.06,10.45-1.97,14.3-5.73,7.94-7.75,8.09-20.52,.33-28.46-7.76-7.94-20.52-8.08-28.46-.33h0Z"></path><rect class="i" x="746.37" y="451.83" width="3.97" height="32.88" transform="translate(560.28 -394.25) rotate(45.66)"></rect><path class="i" d="M728.42,487.75h0c-1.37-1.4-1.34-3.64,.06-5.01l13.85-13.53c1.4-1.37,3.64-1.34,5.01,.06h0c1.37,1.4,1.34,3.64-.06,5.01l-13.85,13.53c-1.4,1.37-3.64,1.34-5.01-.06Z"></path></g></svg>