<svg xmlns="http://www.w3.org/2000/svg" xmlns:xlink="http://www.w3.org/1999/xlink" id="_x2014_&#xCE;&#xD3;&#xC8;_x5F_1" x="0px" y="0px" viewBox="0 0 600 400" style="enable-background:new 0 0 600 400;" xml:space="preserve"><style type="text/css">	.st0{fill:#B2D3EA;}	.st1{fill:#396CAA;}	.st2{fill:#5793CE;}	.st3{fill:#D4ECFF;}	.st4{fill:#FFFFFF;}	.st5{fill:#FAFDFF;}	.st6{fill:#173D7A;}	.st7{opacity:0.4;fill:#D4ECFF;enable-background:new    ;}	.st8{fill:#BFBEED;}	.st9{fill:#FFBFA2;}	.st10{fill:#3A2C99;}	.st11{fill:#D3D3F5;}	.st12{enable-background:new    ;}	.st13{fill:#F4F4FA;}	.st14{fill:#00B5EA;}	.st15{fill:#DADAF9;}	.st16{fill:#F4F5FA;}	.st17{clip-path:url(#SVGID_00000170975675443899907090000015695869780435719331_);enable-background:new    ;}	.st18{fill:#FFDE38;}	.st19{fill:#FFC400;}	.st20{fill:#FFB700;}	.st21{fill:#E19908;}	.st22{clip-path:url(#SVGID_00000036231589939064121070000016536931246865242767_);enable-background:new    ;}	.st23{clip-path:url(#SVGID_00000069397433722526247840000005805447541380273068_);enable-background:new    ;}	.st24{clip-path:url(#SVGID_00000138568978938253109820000018419780259104922003_);enable-background:new    ;}	.st25{clip-path:url(#SVGID_00000161621186478356070780000014721176879714038947_);enable-background:new    ;}	.st26{clip-path:url(#SVGID_00000015348558674044065300000008533539539264351370_);enable-background:new    ;}	.st27{clip-path:url(#SVGID_00000091725046179513472030000000865177693263335337_);enable-background:new    ;}	.st28{clip-path:url(#SVGID_00000080171794340268682020000007334636403439588016_);enable-background:new    ;}	.st29{fill:#CBC3D0;}	.st30{fill:#F1F1F1;}</style><g>	<path class="st0" d="M64.8,266.6l-22.1-12.9c-0.9-0.5-1.4-1.4-1.3-2.4s0.5-1.9,1.4-2.3l29.5-15.8l0.8,1.4l-29.5,15.8  c-0.4,0.2-0.6,0.6-0.6,1c0,0.4,0.2,0.8,0.5,1l22.1,12.9c0.9,0.5,2,0.5,2.9,0l13.6-8.1l0.8,1.4l-13.6,8.1c-0.7,0.4-1.5,0.6-2.3,0.6  C66.2,267.2,65.5,267,64.8,266.6z"></path>	<path class="st0" d="M118.9,388.7l-20.6-12.7c-0.6-0.4-1-1-1-1.7s0.4-1.3,1-1.7l14.9-9.1l0.8,1.4L99.2,374  c-0.2,0.1-0.2,0.3-0.2,0.3c0,0.1,0,0.2,0.2,0.3l20.6,12.7c1.3,0.8,2.9,0.8,4.1,0.1l54.2-30.2c0.4-0.2,0.5-0.6,0.5-0.8  s0-0.5-0.5-0.8l-24.5-13.8c-0.8-0.4-1.2-1.2-1.2-2.1s0.5-1.7,1.2-2.1l27.3-15.7c0.4-0.2,0.4-0.6,0.4-0.7c0-0.1,0-0.5-0.4-0.7  l-11.1-7.1l0.9-1.4l11.1,7.1c0.7,0.5,1.2,1.2,1.1,2.1c0,0.9-0.5,1.6-1.2,2.1L154.4,339c-0.4,0.2-0.4,0.6-0.4,0.7s0,0.5,0.4,0.7  l24.5,13.8c0.8,0.4,1.3,1.3,1.3,2.2c0,0.9-0.5,1.7-1.3,2.2l-54.2,30.2c-0.9,0.5-1.8,0.7-2.8,0.7  C120.9,389.5,119.9,389.3,118.9,388.7z"></path>	<g>		<path class="st0" d="M92.3,267.8L67,253.2c-1.9-1.1-2-2.7-0.5-3.6l26.1-15.1c1.6-0.9,4.4-0.8,6.3,0.3l25.2,14.6   c1.9,1.1,2.1,2.7,0.5,3.6l-26.1,15.1C96.9,269,94.1,268.9,92.3,267.8z"></path>		<g>			<path class="st1" d="M59.8,240.9l31.6,18.2c2.3,1.3,5.8,1.5,7.8,0.3l32.7-18.9c1-0.6,1.4-1.3,1.4-2.1v-11.6l-25.3,0l-8.2-4.7    c-2.3-1.3-5.8-1.5-7.8-0.3l-8.8,5.1l-25.3,0v11.3l0,0C57.8,239.1,58.5,240.1,59.8,240.9z"></path>			<path class="st1" d="M95.6,221v39.2c1.4,0,2.7-0.2,3.6-0.8l32.7-18.9c1-0.6,1.4-1.3,1.4-2.1v-11.6l-25.3,0l-8.2-4.7    C98.6,221.4,97.1,221.1,95.6,221L95.6,221z"></path>			<path class="st2" d="M130.4,241.4l1.5-0.9c1-0.6,1.4-1.3,1.4-2.1v-11.6h-2.9V241.4z"></path>			<path class="st2" d="M98.7,246.4h-6.3v13.2c2,0.8,4.5,0.8,6.3,0.1V246.4z"></path>			<path class="st3" d="M91.4,247.5l-31.6-18.2c-2.3-1.3-2.6-3.4-0.6-4.5L92,205.9c2-1.2,5.5-1,7.8,0.3l31.6,18.2    c2.3,1.3,2.6,3.4,0.6,4.5l-32.7,18.9C97.2,249,93.7,248.9,91.4,247.5z"></path>			<path class="st2" d="M92.1,244.2l-26.5-15.3c-1.9-1.1-2.1-2.8-0.5-3.8l27.4-15.8c1.7-1,4.6-0.8,6.6,0.3l26.5,15.3    c1.9,1.1,2.1,2.8,0.5,3.8l-27.4,15.8C97,245.4,94,245.3,92.1,244.2z"></path>			<g>				<path class="st3" d="M71.3,240.4c0.7,0.4,1.3,1.4,1.3,2.3s-0.6,1.2-1.3,0.8s-1.3-1.4-1.3-2.3S70.5,239.9,71.3,240.4z"></path>				<path class="st3" d="M67,237.9c0.7,0.4,1.3,1.4,1.3,2.3s-0.6,1.2-1.3,0.8s-1.3-1.4-1.3-2.3C65.7,237.8,66.3,237.5,67,237.9z"></path>				<path class="st3" d="M62.8,235.5c0.7,0.4,1.3,1.4,1.3,2.3s-0.6,1.2-1.3,0.8s-1.3-1.4-1.3-2.3C61.4,235.4,62,235,62.8,235.5z"></path>			</g>		</g>		<g>			<path class="st1" d="M59.8,222.8l31.6,18.2c2.3,1.3,5.8,1.5,7.8,0.3l32.7-18.9c1-0.6,1.4-1.3,1.4-2.1v-11.6l-25.3,0l-8.2-4.7    c-2.3-1.3-5.8-1.5-7.8-0.3l-8.8,5.1l-25.3,0v11.3l0,0C57.8,221,58.5,222,59.8,222.8z"></path>			<path class="st1" d="M95.6,203v39.2c1.4,0,2.7-0.2,3.6-0.8l32.7-18.9c1-0.6,1.4-1.3,1.4-2.1v-11.6l-25.3,0l-8.2-4.7    C98.6,203.4,97.1,203,95.6,203L95.6,203z"></path>			<path class="st2" d="M130.4,223.4l1.5-0.9c1-0.6,1.4-1.3,1.4-2.1v-11.6h-2.9V223.4z"></path>			<path class="st2" d="M98.7,228.4h-6.3v13.2c2,0.8,4.5,0.8,6.3,0.1V228.4z"></path>			<path class="st3" d="M91.4,229.5l-31.6-18.2c-2.3-1.3-2.6-3.4-0.6-4.5L92,187.8c2-1.2,5.5-1,7.8,0.3l31.6,18.2    c2.3,1.3,2.6,3.4,0.6,4.5l-32.7,18.9C97.2,231,93.7,230.8,91.4,229.5z"></path>			<path class="st2" d="M92.1,226.1l-26.5-15.3c-1.9-1.1-2.1-2.8-0.5-3.8l27.4-15.8c1.7-1,4.6-0.8,6.6,0.3l26.5,15.3    c1.9,1.1,2.1,2.8,0.5,3.8l-27.4,15.8C97,227.4,94,227.3,92.1,226.1z"></path>			<g>				<path class="st3" d="M71.3,222.3c0.7,0.4,1.3,1.4,1.3,2.3s-0.6,1.2-1.3,0.8s-1.3-1.4-1.3-2.3C69.9,222.2,70.5,221.9,71.3,222.3z     "></path>				<path class="st3" d="M67,219.9c0.7,0.4,1.3,1.4,1.3,2.3s-0.6,1.2-1.3,0.8s-1.3-1.4-1.3-2.3S66.3,219.4,67,219.9z"></path>				<path class="st3" d="M62.8,217.4c0.7,0.4,1.3,1.4,1.3,2.3s-0.6,1.2-1.3,0.8s-1.3-1.4-1.3-2.3C61.4,217.3,62,217,62.8,217.4z"></path>			</g>		</g>		<g>			<path class="st1" d="M59.8,204.8L91.4,223c2.3,1.3,5.8,1.5,7.8,0.3l32.7-18.9c1-0.6,1.4-1.3,1.4-2.1v-11.6l-25.3,0l-8.2-4.7    c-2.3-1.3-5.8-1.5-7.8-0.3l-8.8,5.1l-25.3,0v11.3l0,0C57.8,203,58.5,204,59.8,204.8z"></path>			<path class="st1" d="M95.6,184.9v39.2c1.4,0,2.7-0.2,3.6-0.8l32.7-18.9c1-0.6,1.4-1.3,1.4-2.1v-11.6l-25.3,0l-8.2-4.7    C98.6,185.3,97.1,185,95.6,184.9L95.6,184.9z"></path>			<path class="st2" d="M130.4,205.3l1.5-0.9c1-0.6,1.4-1.3,1.4-2.1v-11.6h-2.9V205.3z"></path>			<path class="st2" d="M98.7,210.3h-6.3v13.2c2,0.8,4.5,0.8,6.3,0.1V210.3z"></path>			<path class="st3" d="M91.4,211.4l-31.6-18.2c-2.3-1.3-2.6-3.4-0.6-4.5L92,169.8c2-1.2,5.5-1,7.8,0.3l31.6,18.2    c2.3,1.3,2.6,3.4,0.6,4.5l-32.7,18.9C97.2,212.9,93.7,212.8,91.4,211.4z"></path>			<path class="st4" d="M58.3,189.6c-0.8,1.1-0.2,2.6,1.6,3.6l31.6,18.2c2.3,1.3,5.8,1.5,7.8,0.3l32.7-18.9c1.4-0.8,1.7-2,1-3.1    c-0.2,0.3-0.5,0.6-1,0.9l-32.7,18.9c-2,1.2-5.5,1-7.8-0.3L59.8,191C59.1,190.6,58.6,190.1,58.3,189.6z"></path>			<g>				<path class="st3" d="M71.3,204.3c0.7,0.4,1.3,1.4,1.3,2.3s-0.6,1.2-1.3,0.8s-1.3-1.4-1.3-2.3C69.9,204.2,70.5,203.9,71.3,204.3z     "></path>				<path class="st3" d="M67,201.8c0.7,0.4,1.3,1.4,1.3,2.3s-0.6,1.2-1.3,0.8s-1.3-1.4-1.3-2.3S66.3,201.4,67,201.8z"></path>				<path class="st3" d="M62.8,199.4c0.7,0.4,1.3,1.4,1.3,2.3s-0.6,1.2-1.3,0.8s-1.3-1.4-1.3-2.3C61.4,199.3,62,198.9,62.8,199.4z"></path>			</g>			<g>				<path class="st2" d="M93.6,199.9l-14.8-8.5c-1.1-0.6-1.2-1.6-0.3-2.1l15.3-8.8c0.9-0.5,2.6-0.5,3.7,0.1l14.8,8.5     c1.1,0.6,1.2,1.6,0.3,2.1L97.3,200C96.4,200.6,94.7,200.5,93.6,199.9z"></path>				<path class="st3" d="M95.3,192.6l-2-1.2c-0.1-0.1-0.2-0.2,0-0.3l2.1-1.2c0.1-0.1,0.4-0.1,0.5,0l2,1.2c0.1,0.1,0.2,0.2,0,0.3     l-2.1,1.2C95.7,192.7,95.5,192.7,95.3,192.6z"></path>				<path class="st1" d="M112.4,189.1l-14.8-8.5c-1.1-0.6-2.7-0.7-3.7-0.1l-15.3,8.8c-0.9,0.5-0.8,1.4,0,2l15.3-8.8     c0.9-0.5,2.6-0.5,3.7,0.1l14.8,8.5c0.1,0,0.1,0.1,0.2,0.1l0,0C113.6,190.7,113.4,189.7,112.4,189.1z"></path>			</g>		</g>	</g>	<g>		<g>			<g>				<path class="st0" d="M149.3,321.9l-32.5-18.8c-2.4-1.4-2.6-3.5-0.6-4.6l56.5-32.2c2.1-1.2,5.7-1.1,8.1,0.3l32.5,18.8     c2.4,1.4,2.6,3.5,0.6,4.6l-56.5,32.2C155.3,323.4,151.7,323.2,149.3,321.9z"></path>				<path class="st1" d="M113.3,290.6l34.9,20.1c2.6,1.5,6.4,1.6,8.6,0.4l52.3-39.5c1.1-0.6,1.5-1.5,1.5-2.3l8.3-127.3l-28,0l-9-5.2     c-2.6-1.5-6.4-1.6-8.6-0.4l-9.6,5.6l-52.4,13.7v131.8l0,0C111.1,288.6,111.8,289.7,113.3,290.6z"></path>				<path class="st3" d="M152.2,178.9l0.6,133c1.5,0,3-0.2,4-0.9l60.6-34.5c1.1-0.6,1.5-1.5,1.5-2.3V142l-28,0l-9-5.2     c-1.3-0.8-3-1.2-4.6-1.2L152.2,178.9z"></path>				<path class="st2" d="M156.3,177.4h-6.9v133.9c2.2,0.8,5,0.9,6.9,0.1V177.4z"></path>				<path class="st3" d="M148.2,178.6l-34.9-20.1c-2.6-1.5-2.8-3.7-0.6-5l60.6-34.5c2.2-1.3,6.1-1.1,8.6,0.4l34.9,20.1     c2.6,1.5,2.8,3.7,0.6,5l-60.6,34.5C154.6,180.2,150.7,180.1,148.2,178.6z"></path>				<path class="st5" d="M111.6,154.4c-0.9,1.3-0.3,2.9,1.7,4l34.9,20.1c2.6,1.5,6.4,1.6,8.6,0.4l60.6-34.5c1.5-0.9,1.9-2.2,1.1-3.4     c-0.2,0.4-0.6,0.7-1.1,1l-60.6,34.5c-2.2,1.3-6.1,1.1-8.6-0.4L113.3,156C112.5,155.5,111.9,155,111.6,154.4z"></path>				<g>					<path class="st6" d="M151.1,164.8l-16.3-9.4c-1.2-0.7-1.3-1.7-0.3-2.3l40.3-23.4c1-0.6,2.8-0.5,4,0.2l16.3,9.4      c1.2,0.7,1.3,1.7,0.3,2.3l-40.3,23.4C154.1,165.5,152.3,165.5,151.1,164.8z"></path>					<g>						<path class="st3" d="M176.3,142.6l-2.3-1.3c-0.2-0.1-0.2-0.2,0-0.3l2.3-1.4c0.1-0.1,0.4-0.1,0.6,0l2.3,1.3       c0.2,0.1,0.2,0.2,0,0.3l-2.3,1.4C176.7,142.7,176.5,142.7,176.3,142.6z"></path>						<path class="st3" d="M168.5,147.1l-2.3-1.3c-0.2-0.1-0.2-0.2,0-0.3l2.3-1.4c0.1-0.1,0.4-0.1,0.6,0l2.3,1.3       c0.2,0.1,0.2,0.2,0,0.3l-2.3,1.4C168.9,147.2,168.7,147.2,168.5,147.1z"></path>						<path class="st3" d="M160.7,151.6l-2.3-1.3c-0.2-0.1-0.2-0.2,0-0.3l2.3-1.4c0.1-0.1,0.4-0.1,0.6,0l2.3,1.3       c0.2,0.1,0.2,0.2,0,0.3l-2.3,1.4C161.1,151.7,160.9,151.7,160.7,151.6z"></path>						<path class="st3" d="M152.9,156.1l-2.3-1.3c-0.2-0.1-0.2-0.2,0-0.3l2.3-1.4c0.1-0.1,0.4-0.1,0.6,0l2.3,1.3       c0.2,0.1,0.2,0.2,0,0.3l-2.3,1.4C153.3,156.2,153.1,156.2,152.9,156.1z"></path>					</g>					<path class="st2" d="M195.1,139.2l-16.3-9.4c-1.2-0.7-3-0.8-4-0.2L134.5,153c-1,0.6-0.9,1.5,0,2.2l40.3-23.4      c1-0.6,2.8-0.5,4,0.2l16.3,9.4c0.1,0.1,0.2,0.1,0.2,0.2l0,0C196.5,141,196.3,139.9,195.1,139.2z"></path>				</g>			</g>			<g>				<path class="st6" d="M143.7,203.3v-8.2c0-1.7-1-3.7-2.3-4.5l-22.9-13.1c-1.3-0.7-2.3,0.1-2.3,1.8v8.2c0,1.7,1,3.7,2.3,4.5     l22.9,13.1C142.7,205.8,143.7,205,143.7,203.3z"></path>				<path class="st4" d="M116.1,179.3v8.2c0,1.7,1,3.7,2.3,4.5l22.9,13.1c0.7,0.4,1.3,0.3,1.8-0.1c-0.3,0.1-0.7,0-1.1-0.2L119,191.6     c-1.3-0.7-2.3-2.7-2.3-4.5V179c0-0.8,0.2-1.4,0.6-1.7C116.6,177.4,116.1,178.1,116.1,179.3z"></path>				<g>					<path class="st1" d="M135,195.8v-2.2c0-0.4-0.2-0.8-0.5-1l-2.1-1.2c-0.3-0.2-0.5,0-0.5,0.4v2.2c0,0.4,0.2,0.8,0.5,1l2.1,1.2      C134.7,196.3,135,196.1,135,195.8z"></path>					<path class="st4" d="M127.9,191.7v-2.2c0-0.4-0.2-0.8-0.5-1l-2.1-1.2c-0.3-0.2-0.5,0-0.5,0.4v2.2c0,0.4,0.2,0.8,0.5,1l2.1,1.2      C127.7,192.3,127.9,192.1,127.9,191.7z"></path>				</g>			</g>			<g>				<path class="st6" d="M143.7,262.5v-8.2c0-1.7-1-3.7-2.3-4.5l-22.9-13.1c-1.3-0.7-2.3,0.1-2.3,1.8v8.2c0,1.7,1,3.7,2.3,4.5     l22.9,13.1C142.7,265.1,143.7,264.3,143.7,262.5z"></path>				<path class="st4" d="M116.1,238.5v8.2c0,1.7,1,3.7,2.3,4.5l22.9,13.1c0.7,0.4,1.3,0.3,1.8-0.1c-0.3,0-0.7,0-1.1-0.2L119,250.9     c-1.3-0.7-2.3-2.7-2.3-4.5v-8.2c0-0.8,0.2-1.4,0.6-1.7C116.6,236.6,116.1,237.4,116.1,238.5z"></path>				<g>					<path class="st1" d="M135,255v-2.2c0-0.4-0.2-0.8-0.5-1l-2.1-1.2c-0.3-0.2-0.5,0-0.5,0.4v2.2c0,0.4,0.2,0.8,0.5,1l2.1,1.2      C134.7,255.6,135,255.4,135,255z"></path>					<path class="st1" d="M127.9,251v-2.2c0-0.4-0.2-0.8-0.5-1l-2.1-1.2c-0.3-0.2-0.5,0-0.5,0.4v2.2c0,0.4,0.2,0.8,0.5,1l2.1,1.2      C127.7,251.5,127.9,251.3,127.9,251z"></path>				</g>			</g>			<g>				<path class="st6" d="M143.7,292.2V284c0-1.7-1-3.7-2.3-4.5l-22.9-13.1c-1.3-0.7-2.3,0-2.3,1.8v8.2c0,1.7,1,3.7,2.3,4.5     l22.9,13.1C142.7,294.7,143.7,293.9,143.7,292.2z"></path>				<path class="st4" d="M116.1,268.2v8.2c0,1.7,1,3.7,2.3,4.5l22.9,13.1c0.7,0.4,1.3,0.3,1.8-0.1c-0.3,0-0.7,0-1.1-0.2L119,280.5     c-1.3-0.7-2.3-2.7-2.3-4.5v-8.2c0-0.8,0.2-1.4,0.6-1.7C116.6,266.3,116.1,267,116.1,268.2z"></path>				<g>					<path class="st4" d="M135,284.7v-2.2c0-0.4-0.2-0.8-0.5-1l-2.1-1.2c-0.3-0.2-0.5,0-0.5,0.4v2.2c0,0.4,0.2,0.8,0.5,1l2.1,1.2      C134.7,285.2,135,285,135,284.7z"></path>					<path class="st1" d="M127.9,280.6v-2.2c0-0.4-0.2-0.8-0.5-1l-2.1-1.2c-0.3-0.2-0.5,0-0.5,0.4v2.2c0,0.4,0.2,0.8,0.5,1l2.1,1.2      C127.7,281.1,127.9,281,127.9,280.6z"></path>				</g>			</g>			<g>				<path class="st6" d="M143.7,232.9v-8.2c0-1.7-1-3.7-2.3-4.5l-22.9-13.1c-1.3-0.7-2.3,0.1-2.3,1.8v8.2c0,1.7,1,3.7,2.3,4.5     l22.9,13.1C142.7,235.4,143.7,234.6,143.7,232.9z"></path>				<path class="st4" d="M116.1,208.9v8.2c0,1.7,1,3.7,2.3,4.5l22.9,13.1c0.7,0.4,1.3,0.3,1.8-0.1c-0.3,0.1-0.7,0-1.1-0.2L119,221.3     c-1.3-0.7-2.3-2.7-2.3-4.5v-8.2c0-0.8,0.2-1.4,0.6-1.7C116.6,207,116.1,207.7,116.1,208.9z"></path>				<g>					<path class="st4" d="M135,225.4v-2.2c0-0.4-0.2-0.8-0.5-1l-2.1-1.2c-0.3-0.2-0.5,0-0.5,0.4v2.2c0,0.4,0.2,0.8,0.5,1l2.1,1.2      C134.7,225.9,135,225.8,135,225.4z"></path>					<path class="st4" d="M127.9,221.3v-2.2c0-0.4-0.2-0.8-0.5-1l-2.1-1.2c-0.3-0.2-0.5,0-0.5,0.4v2.2c0,0.4,0.2,0.8,0.5,1l2.1,1.2      C127.7,221.9,127.9,221.7,127.9,221.3z"></path>				</g>			</g>		</g>		<g>			<path class="st2" d="M159.1,195V185c0-1.6,1-3.4,2.1-4.1l52.9-30.6c1.2-0.7,2.1,0,2.1,1.6V162c0,1.6-1,3.4-2.1,4.1l-52.9,30.6    C160,197.3,159.1,196.6,159.1,195z"></path>			<path class="st7" d="M161.7,192.3v-7.6c0-0.8,0.5-1.7,1.1-2.1l49.9-28.8c0.6-0.3,1.1,0,1.1,0.8v7.6c0,0.8-0.5,1.7-1.1,2.1    l-49.9,28.8C162.1,193.5,161.7,193.1,161.7,192.3z"></path>			<path class="st3" d="M201.2,165.7L201.2,165.7c0-0.8,0.5-1.7,1.1-2l7.4-4.3c0.6-0.3,1.1,0,1.1,0.8l0,0c0,0.8-0.5,1.7-1.1,2    l-7.4,4.3C201.6,166.8,201.2,166.5,201.2,165.7z"></path>			<path class="st6" d="M197.1,166.6c0.7-0.4,1.2-0.1,1.2,0.7s-0.5,1.7-1.2,2.1s-1.2,0.1-1.2-0.7S196.4,167,197.1,166.6z"></path>			<path class="st6" d="M192.8,169.1c0.7-0.4,1.2-0.1,1.2,0.7s-0.5,1.7-1.2,2.1s-1.2,0.1-1.2-0.7    C191.6,170.5,192.1,169.5,192.8,169.1z"></path>			<path class="st3" d="M188.5,171.6c0.7-0.4,1.2-0.1,1.2,0.7s-0.5,1.7-1.2,2.1s-1.2,0.1-1.2-0.7S187.8,172,188.5,171.6z"></path>			<path class="st6" d="M184.2,174.1c0.7-0.4,1.2-0.1,1.2,0.7s-0.5,1.7-1.2,2.1s-1.2,0.1-1.2-0.7S183.5,174.5,184.2,174.1z"></path>			<path class="st6" d="M164.2,188.4v-2.6c0-0.5,0.3-1.1,0.7-1.3l2.5-1.4c0.4-0.2,0.7,0,0.7,0.5v2.6c0,0.5-0.3,1.1-0.7,1.3l-2.5,1.4    C164.5,189.1,164.2,188.9,164.2,188.4z"></path>		</g>		<g>			<path class="st2" d="M159.1,212.8v-10.1c0-1.6,1-3.4,2.1-4.1l52.9-30.6c1.2-0.7,2.1,0,2.1,1.6v10.1c0,1.6-1,3.4-2.1,4.1    l-52.9,30.6C160,215.1,159.1,214.4,159.1,212.8z"></path>			<path class="st7" d="M161.7,210.1v-7.6c0-0.8,0.5-1.7,1.1-2.1l49.9-28.8c0.6-0.3,1.1,0,1.1,0.8v7.6c0,0.8-0.5,1.7-1.1,2.1    l-49.9,28.8C162.1,211.3,161.7,210.9,161.7,210.1z"></path>			<path class="st3" d="M201.2,183.5L201.2,183.5c0-0.8,0.5-1.7,1.1-2l7.4-4.3c0.6-0.3,1.1,0,1.1,0.8l0,0c0,0.8-0.5,1.7-1.1,2    l-7.4,4.3C201.6,184.6,201.2,184.3,201.2,183.5z"></path>			<path class="st4" d="M197.1,184.4c0.7-0.4,1.2-0.1,1.2,0.7s-0.5,1.7-1.2,2.1s-1.2,0.1-1.2-0.7S196.4,184.8,197.1,184.4z"></path>			<path class="st6" d="M192.8,186.9c0.7-0.4,1.2-0.1,1.2,0.7s-0.5,1.7-1.2,2.1s-1.2,0.1-1.2-0.7    C191.6,188.3,192.1,187.3,192.8,186.9z"></path>			<path class="st3" d="M188.5,189.4c0.7-0.4,1.2-0.1,1.2,0.7s-0.5,1.7-1.2,2.1s-1.2,0.1-1.2-0.7S187.8,189.8,188.5,189.4z"></path>			<path class="st6" d="M184.2,191.9c0.7-0.4,1.2-0.1,1.2,0.7s-0.5,1.7-1.2,2.1s-1.2,0.1-1.2-0.7S183.5,192.3,184.2,191.9z"></path>			<path class="st6" d="M164.2,206.2v-2.6c0-0.5,0.3-1.1,0.7-1.3l2.5-1.4c0.4-0.2,0.7,0,0.7,0.5v2.6c0,0.5-0.3,1.1-0.7,1.3l-2.5,1.4    C164.5,206.9,164.2,206.7,164.2,206.2z"></path>		</g>		<g>			<path class="st2" d="M159.1,230.6v-10.1c0-1.6,1-3.4,2.1-4.1l52.9-30.6c1.2-0.7,2.1,0,2.1,1.6v10.1c0,1.6-1,3.4-2.1,4.1    l-52.9,30.6C160,232.9,159.1,232.2,159.1,230.6z"></path>			<path class="st7" d="M161.7,227.9v-7.6c0-0.8,0.5-1.7,1.1-2.1l49.9-28.8c0.6-0.3,1.1,0,1.1,0.8v7.6c0,0.8-0.5,1.7-1.1,2.1    l-49.9,28.8C162.1,229.1,161.7,228.7,161.7,227.9z"></path>			<path class="st3" d="M201.2,201.3L201.2,201.3c0-0.8,0.5-1.7,1.1-2l7.4-4.3c0.6-0.3,1.1,0,1.1,0.8l0,0c0,0.8-0.5,1.7-1.1,2    l-7.4,4.3C201.6,202.4,201.2,202.1,201.2,201.3z"></path>			<path class="st4" d="M197.1,202.2c0.7-0.4,1.2-0.1,1.2,0.7s-0.5,1.7-1.2,2.1s-1.2,0.1-1.2-0.7S196.4,202.6,197.1,202.2z"></path>			<path class="st6" d="M192.8,204.7c0.7-0.4,1.2-0.1,1.2,0.7s-0.5,1.7-1.2,2.1s-1.2,0.1-1.2-0.7C191.6,206,192.1,205.1,192.8,204.7    z"></path>			<path class="st3" d="M188.5,207.2c0.7-0.4,1.2-0.1,1.2,0.7s-0.5,1.7-1.2,2.1s-1.2,0.1-1.2-0.7S187.8,207.6,188.5,207.2z"></path>			<path class="st6" d="M184.2,209.7c0.7-0.4,1.2-0.1,1.2,0.7s-0.5,1.7-1.2,2.1s-1.2,0.1-1.2-0.7S183.5,210.1,184.2,209.7z"></path>			<path class="st6" d="M164.2,224v-2.6c0-0.5,0.3-1.1,0.7-1.3l2.5-1.4c0.4-0.2,0.7,0,0.7,0.5v2.6c0,0.5-0.3,1.1-0.7,1.3l-2.5,1.4    C164.5,224.7,164.2,224.5,164.2,224z"></path>		</g>		<g>			<path class="st2" d="M159.1,248.4v-10.1c0-1.6,1-3.4,2.1-4.1l52.9-30.6c1.2-0.7,2.1,0,2.1,1.6v10.1c0,1.6-1,3.4-2.1,4.1    L161.2,250C160,250.7,159.1,250,159.1,248.4z"></path>			<path class="st7" d="M161.7,245.7v-7.6c0-0.8,0.5-1.7,1.1-2.1l49.9-28.8c0.6-0.3,1.1,0,1.1,0.8v7.6c0,0.8-0.5,1.7-1.1,2.1    l-49.9,28.8C162.1,246.8,161.7,246.5,161.7,245.7z"></path>			<path class="st3" d="M201.2,219.1L201.2,219.1c0-0.8,0.5-1.7,1.1-2l7.4-4.3c0.6-0.3,1.1,0,1.1,0.8l0,0c0,0.8-0.5,1.7-1.1,2    l-7.4,4.3C201.6,220.2,201.2,219.9,201.2,219.1z"></path>			<path class="st6" d="M197.1,220c0.7-0.4,1.2-0.1,1.2,0.7s-0.5,1.7-1.2,2.1s-1.2,0.1-1.2-0.7S196.4,220.4,197.1,220z"></path>			<path class="st6" d="M192.8,222.5c0.7-0.4,1.2-0.1,1.2,0.7s-0.5,1.7-1.2,2.1s-1.2,0.1-1.2-0.7    C191.6,223.8,192.1,222.9,192.8,222.5z"></path>			<path class="st3" d="M188.5,225c0.7-0.4,1.2-0.1,1.2,0.7s-0.5,1.7-1.2,2.1s-1.2,0.1-1.2-0.7S187.8,225.4,188.5,225z"></path>			<path class="st6" d="M184.2,227.5c0.7-0.4,1.2-0.1,1.2,0.7s-0.5,1.7-1.2,2.1s-1.2,0.1-1.2-0.7S183.5,227.9,184.2,227.5z"></path>			<path class="st3" d="M164.2,241.8v-2.6c0-0.5,0.3-1.1,0.7-1.3l2.5-1.4c0.4-0.2,0.7,0,0.7,0.5v2.6c0,0.5-0.3,1.1-0.7,1.3l-2.5,1.4    C164.5,242.5,164.2,242.3,164.2,241.8z"></path>		</g>		<g>			<path class="st2" d="M159.1,266.2v-10.1c0-1.6,1-3.4,2.1-4.1l52.9-30.6c1.2-0.7,2.1,0,2.1,1.6v10.1c0,1.6-1,3.4-2.1,4.1    l-52.9,30.6C160,268.5,159.1,267.8,159.1,266.2z"></path>			<path class="st7" d="M161.7,263.5v-7.6c0-0.8,0.5-1.7,1.1-2.1l49.9-28.8c0.6-0.3,1.1,0,1.1,0.8v7.6c0,0.8-0.5,1.7-1.1,2.1    l-49.9,28.8C162.1,264.6,161.7,264.3,161.7,263.5z"></path>			<path class="st3" d="M201.2,236.9L201.2,236.9c0-0.8,0.5-1.7,1.1-2l7.4-4.3c0.6-0.3,1.1,0,1.1,0.8l0,0c0,0.8-0.5,1.7-1.1,2    l-7.4,4.3C201.6,238,201.2,237.6,201.2,236.9z"></path>			<path class="st6" d="M197.1,237.8c0.7-0.4,1.2-0.1,1.2,0.7s-0.5,1.7-1.2,2.1s-1.2,0.1-1.2-0.7S196.4,238.2,197.1,237.8z"></path>			<path class="st4" d="M192.8,240.3c0.7-0.4,1.2-0.1,1.2,0.7s-0.5,1.7-1.2,2.1s-1.2,0.1-1.2-0.7    C191.6,241.6,192.1,240.7,192.8,240.3z"></path>			<path class="st3" d="M188.5,242.8c0.7-0.4,1.2-0.1,1.2,0.7s-0.5,1.7-1.2,2.1s-1.2,0.1-1.2-0.7S187.8,243.2,188.5,242.8z"></path>			<path class="st4" d="M184.2,245.3c0.7-0.4,1.2-0.1,1.2,0.7s-0.5,1.7-1.2,2.1s-1.2,0.1-1.2-0.7S183.5,245.6,184.2,245.3z"></path>			<path class="st3" d="M164.2,259.6v-2.6c0-0.5,0.3-1.1,0.7-1.3l2.5-1.4c0.4-0.2,0.7,0,0.7,0.5v2.6c0,0.5-0.3,1.1-0.7,1.3l-2.5,1.4    C164.5,260.3,164.2,260,164.2,259.6z"></path>		</g>		<g>			<path class="st2" d="M159.1,284v-10.1c0-1.6,1-3.4,2.1-4.1l52.9-30.6c1.2-0.7,2.1,0,2.1,1.6V251c0,1.6-1,3.4-2.1,4.1l-52.9,30.6    C160,286.3,159.1,285.6,159.1,284z"></path>			<path class="st7" d="M161.7,281.3v-7.6c0-0.8,0.5-1.7,1.1-2.1l49.9-28.8c0.6-0.3,1.1,0,1.1,0.8v7.6c0,0.8-0.5,1.7-1.1,2.1    l-49.9,28.8C162.1,282.4,161.7,282.1,161.7,281.3z"></path>			<path class="st3" d="M201.2,254.7L201.2,254.7c0-0.8,0.5-1.7,1.1-2l7.4-4.3c0.6-0.3,1.1,0,1.1,0.8l0,0c0,0.8-0.5,1.7-1.1,2    l-7.4,4.3C201.6,255.8,201.2,255.4,201.2,254.7z"></path>			<path class="st6" d="M197.1,255.6c0.7-0.4,1.2-0.1,1.2,0.7s-0.5,1.7-1.2,2.1c-0.7,0.4-1.2,0.1-1.2-0.7S196.4,256,197.1,255.6z"></path>			<path class="st6" d="M192.8,258.1c0.7-0.4,1.2-0.1,1.2,0.7s-0.5,1.7-1.2,2.1c-0.7,0.4-1.2,0.1-1.2-0.7    C191.6,259.4,192.1,258.5,192.8,258.1z"></path>			<path class="st3" d="M188.5,260.6c0.7-0.4,1.2-0.1,1.2,0.7s-0.5,1.7-1.2,2.1c-0.7,0.4-1.2,0.1-1.2-0.7S187.8,260.9,188.5,260.6z"></path>			<path class="st6" d="M184.2,263c0.7-0.4,1.2-0.1,1.2,0.7s-0.5,1.7-1.2,2.1c-0.7,0.4-1.2,0.1-1.2-0.7S183.5,263.4,184.2,263z"></path>			<path class="st6" d="M164.2,277.3v-2.6c0-0.5,0.3-1.1,0.7-1.3l2.5-1.5c0.4-0.2,0.7,0,0.7,0.5v2.6c0,0.5-0.3,1.1-0.7,1.3l-2.5,1.5    C164.5,278.1,164.2,277.8,164.2,277.3z"></path>		</g>		<g>			<path class="st2" d="M159.1,301.8v-10.1c0-1.6,1-3.4,2.1-4.1l52.9-30.5c1.2-0.7,2.1,0,2.1,1.6v10.1c0,1.6-1,3.4-2.1,4.1    l-52.9,30.5C160,304.1,159.1,303.4,159.1,301.8z"></path>			<path class="st7" d="M161.7,299v-7.6c0-0.8,0.5-1.7,1.1-2.1l49.9-28.8c0.6-0.3,1.1,0,1.1,0.8v7.6c0,0.8-0.5,1.7-1.1,2.1    l-49.9,28.8C162.1,300.2,161.7,299.8,161.7,299z"></path>			<path class="st3" d="M201.2,272.4L201.2,272.4c0-0.8,0.5-1.7,1.1-2l7.4-4.3c0.6-0.3,1.1,0,1.1,0.8l0,0c0,0.8-0.5,1.7-1.1,2    l-7.4,4.3C201.6,273.6,201.2,273.2,201.2,272.4z"></path>			<path class="st4" d="M197.1,273.4c0.7-0.4,1.2-0.1,1.2,0.7s-0.5,1.7-1.2,2.1c-0.7,0.4-1.2,0.1-1.2-0.7S196.4,273.8,197.1,273.4z"></path>			<path class="st6" d="M192.8,275.9c0.7-0.4,1.2-0.1,1.2,0.7s-0.5,1.7-1.2,2.1c-0.7,0.4-1.2,0.1-1.2-0.7    C191.6,277.2,192.1,276.3,192.8,275.9z"></path>			<path class="st3" d="M188.5,278.4c0.7-0.4,1.2-0.1,1.2,0.7s-0.5,1.7-1.2,2.1c-0.7,0.4-1.2,0.1-1.2-0.7S187.8,278.7,188.5,278.4z"></path>			<path class="st6" d="M184.2,280.8c0.7-0.4,1.2-0.1,1.2,0.7s-0.5,1.7-1.2,2.1c-0.7,0.4-1.2,0.1-1.2-0.7S183.5,281.2,184.2,280.8z"></path>			<path class="st3" d="M164.2,295.1v-2.6c0-0.5,0.3-1.1,0.7-1.3l2.5-1.5c0.4-0.2,0.7,0,0.7,0.5v2.6c0,0.5-0.3,1.1-0.7,1.3l-2.5,1.5    C164.5,295.9,164.2,295.6,164.2,295.1z"></path>		</g>	</g>	<g>		<path class="st2" d="M175.8,140.6v-32.9c0-0.4,0.4-0.8,0.8-0.8s0.8,0.4,0.8,0.8v32.9c0,0.4-0.4,0.8-0.8,0.8S175.8,141,175.8,140.6   z"></path>		<g>			<g>				<rect x="173.8" y="105.6" class="st2" width="5.7" height="12.3"></rect>				<path class="st2" d="M174.6,116.8c1.1-0.6,2.9-0.6,4,0s1.1,1.7,0,2.3s-2.9,0.6-4,0C173.5,118.5,173.5,117.4,174.6,116.8z"></path>			</g>			<g>				<rect x="172" y="88.4" class="st2" width="9.3" height="19.3"></rect>				<path class="st1" d="M173.8,107.6v4.2c1.7,0.8,4,0.8,5.7,0v-4.2C177.8,106.9,175.4,106.9,173.8,107.6z"></path>				<path class="st2" d="M173.3,105.9c1.8-1,4.7-1,6.5,0s1.8,2.7,0,3.8s-4.7,1-6.5,0C171.5,108.6,171.5,106.9,173.3,105.9z"></path>			</g>		</g>	</g>	<g>		<path class="st2" d="M168,145.2v-32.9c0-0.4,0.4-0.8,0.8-0.8s0.8,0.4,0.8,0.8v32.9c0,0.4-0.4,0.8-0.8,0.8S168,145.7,168,145.2z"></path>		<g>			<g>				<rect x="166" y="110.3" class="st2" width="5.7" height="12.3"></rect>				<path class="st2" d="M166.8,121.4c1.1-0.6,2.9-0.6,4,0s1.1,1.7,0,2.3s-2.9,0.6-4,0C165.7,123.1,165.7,122.1,166.8,121.4z"></path>			</g>			<g>				<rect x="164.2" y="93.1" class="st2" width="9.3" height="19.3"></rect>				<path class="st1" d="M166,112.3v4.2c1.7,0.8,4,0.8,5.7,0v-4.2C170,111.5,167.6,111.5,166,112.3z"></path>				<path class="st2" d="M165.5,110.5c1.8-1,4.7-1,6.5,0s1.8,2.7,0,3.8s-4.7,1-6.5,0S163.7,111.6,165.5,110.5z"></path>			</g>		</g>	</g>	<g>		<path class="st2" d="M160.2,149.9V117c0-0.4,0.4-0.8,0.8-0.8s0.8,0.4,0.8,0.8v32.9c0,0.4-0.4,0.8-0.8,0.8S160.2,150.3,160.2,149.9   z"></path>		<g>			<g>				<rect x="158.1" y="114.9" class="st2" width="5.7" height="12.3"></rect>				<path class="st2" d="M159,126.1c1.1-0.6,2.9-0.6,4,0s1.1,1.7,0,2.3s-2.9,0.6-4,0C157.9,127.8,157.9,126.7,159,126.1z"></path>			</g>			<g>				<rect x="156.4" y="97.7" class="st2" width="9.3" height="19.3"></rect>				<path class="st1" d="M158.1,117v4.2c1.7,0.8,4,0.8,5.7,0V117C162.2,116.2,159.8,116.2,158.1,117z"></path>				<path class="st2" d="M157.7,115.2c1.8-1,4.7-1,6.5,0s1.8,2.7,0,3.8s-4.7,1-6.5,0C155.9,117.9,155.9,116.2,157.7,115.2z"></path>			</g>		</g>	</g>	<g>		<path class="st2" d="M152.4,154.5v-32.9c0-0.4,0.4-0.8,0.8-0.8s0.8,0.4,0.8,0.8v32.9c0,0.4-0.4,0.8-0.8,0.8   C152.7,155.3,152.4,155,152.4,154.5z"></path>		<g>			<g>				<rect x="150.3" y="119.6" class="st2" width="5.7" height="12.3"></rect>				<path class="st2" d="M151.2,130.8c1.1-0.6,2.9-0.6,4,0s1.1,1.7,0,2.3s-2.9,0.6-4,0S150.1,131.4,151.2,130.8z"></path>			</g>			<g>				<rect x="148.6" y="102.4" class="st2" width="9.3" height="19.3"></rect>				<path class="st1" d="M150.3,121.6v4.2c1.7,0.8,4,0.8,5.7,0v-4.2C154.4,120.9,152,120.9,150.3,121.6z"></path>				<path class="st2" d="M149.9,119.9c1.8-1,4.7-1,6.5,0s1.8,2.7,0,3.8s-4.7,1-6.5,0C148.1,122.6,148.1,120.9,149.9,119.9z"></path>			</g>		</g>	</g>	<g>		<g>			<polygon class="st2" points="119.4,120.8 116.3,115.7 104.5,130.4 116.9,137.8    "></polygon>			<path class="st2" d="M199.4,60.3c0,0-11.4-3.5-11.4-3.5s-0.8-11.4-0.8-11.4L207,56.8L199.4,60.3z"></path>			<path class="st2" d="M100.9,122.4c0,8,5.6,11.2,12.5,7.2l62.2-44.4c9.2-5.3,16.7-18.3,16.7-28.9c0-5.8-2.2-9.7-5.7-11.2l3.9-3.1    l-11.7-6.9c-0.1,0-0.2-0.1-0.3-0.2l-0.2-0.1v0c-3.8-2-8.9-1.6-14.5,1.6c-10.7,6.2-19.6,20.7-20.8,33.4c-2.3,0.2-4.8,1-7.4,2.5    c-8.7,5-16,16.2-18,26.7c-1.3,0.2-2.8,0.7-4.3,1.6C106.5,104.7,100.9,114.4,100.9,122.4z"></path>			<path class="st2" d="M186.6,45.1l3.9-3.1l-11.7-6.9c-0.1,0-0.2-0.1-0.3-0.2l-0.2-0.1v0c-3.5-1.9-8.2-1.6-13.4,1.1l26.8,15.7    C190.9,48.4,189.1,46.2,186.6,45.1z"></path>			<path class="st2" d="M162.6,85.9l-24.9-14.6c-0.6,0.3-1.3,0.6-2,1c-5.1,3-9.7,8-13.1,13.8l19.6,11.5L162.6,85.9z"></path>			<path class="st3" d="M169.5,34.2c-1.8,0.5-3.6,1.2-5.6,2.3c-1.2,0.7-2.4,1.5-3.6,2.4l16,9.4l8.7-5L169.5,34.2z"></path>			<path class="st3" d="M120.8,89.7l14.2,8.4l5.4-6.1l-15.6-9.2C123.3,85,121.9,87.3,120.8,89.7z"></path>			<path class="st3" d="M113.2,129.6c0,8,5.6,11.2,12.5,7.2l69.7-40.2c9.2-5.3,16.7-18.3,16.7-28.9c0-10-6.6-14.4-15-10.5    c0-0.5,0-0.9,0-1.4c0-13.3-9.4-18.8-20.9-12.1c-10.7,6.2-19.6,20.7-20.8,33.4c-2.3,0.2-4.8,1-7.4,2.5c-8.7,5-16,16.2-18,26.7    c-1.3,0.2-2.8,0.7-4.3,1.6C118.8,111.9,113.2,121.6,113.2,129.6z"></path>			<g>				<path class="st4" d="M208.3,57.6c-2.5-2.9-6.5-3.7-11.2-1.9c0,0,0,0,0,0.1c0,0.5,0,0.9,0,1.4C201.6,55.1,205.6,55.4,208.3,57.6z     "></path>				<path class="st4" d="M112.1,128.6c0,3.6,1.1,6.2,3,7.7c-1.3-1.5-2-3.8-2-6.7c0-8,5.6-17.7,12.5-21.7c1.5-0.9,3-1.4,4.3-1.6     c2-10.5,9.3-21.7,18-26.7c2.6-1.5,5.1-2.3,7.4-2.5c1.2-12.7,10-27.2,20.8-33.4c6.6-3.8,12.5-3.7,16.3-0.4     c-3.8-4.2-10.1-4.8-17.3-0.6c-10.7,6.2-19.6,20.7-20.8,33.4c-2.3,0.2-4.8,1-7.4,2.5c-8.7,5-16,16.2-18,26.7     c-1.3,0.2-2.8,0.7-4.3,1.6C117.8,110.9,112.2,120.6,112.1,128.6z"></path>			</g>			<g>				<path class="st1" d="M202.9,59.3c1.1,0,2,0.2,2.8,0.7c1.9,1.2,3,4,3,7.7c0,9.4-6.9,21.2-15,25.9L124,133.8     c-2.2,1.3-4.1,1.6-5.4,0.9c-1.2-0.7-1.9-2.6-1.9-5.1c0-6.7,4.9-15.3,10.8-18.7c1.1-0.6,2.1-1,3.1-1.2l2.4-0.4l0.5-2.4     c1.8-9.7,8.7-19.9,16.3-24.3c2.1-1.2,4.1-1.9,5.9-2l2.9-0.2l0.3-2.9c1.1-11.7,9.5-25.1,19-30.7c4.5-2.6,8.5-3.1,11.3-1.5     c2.8,1.6,4.4,5.4,4.4,10.5c0,0.4,0,0.8,0,1.2l-0.3,5.8l5.2-2.4C200.1,59.6,201.6,59.3,202.9,59.3z"></path>			</g>		</g>		<g>			<polygon class="st2" points="163.7,101.7 161.9,103.1 163.8,104    "></polygon>			<polygon class="st2" points="167.5,79.2 167.5,78.3 169.3,79.2    "></polygon>			<polygon class="st2" points="160.2,93.9 156.6,97.3 158.5,98.2    "></polygon>			<g>				<path class="st2" d="M161.7,102.5l0-10.1l10.3-6.1l0,10.1c0,0.5-0.4,1.2-0.8,1.5l-8.7,5.1C162,103.3,161.7,103.1,161.7,102.5z"></path>				<path class="st2" d="M166,79.2l-9.3,17.1c-0.4,0.7-0.1,1.3,0.5,0.9l9.6-5.7l9.6-5.7c0.6-0.4,0.9-1.3,0.5-1.6l-9.4-6.1     C167.1,78,166.4,78.5,166,79.2z"></path>			</g>			<g>				<path class="st3" d="M163.5,103.5l0-10.1l10.3-6.1l0,10.1c0,0.5-0.4,1.2-0.8,1.5l-8.7,5.1C163.9,104.2,163.5,104,163.5,103.5z"></path>				<path class="st3" d="M167.8,80.1l-9.3,17.1c-0.4,0.7-0.1,1.3,0.5,0.9l9.6-5.7l9.6-5.7c0.6-0.4,0.9-1.3,0.5-1.6l-9.4-6.1     C169,79,168.2,79.4,167.8,80.1z"></path>			</g>		</g>	</g>	<polygon class="st4" points="132.9,223.7 125.8,219.6 125.8,189.7 126.9,189.7 126.9,219 133.9,223.1 133.9,282.6 132.9,282.6  "></polygon>	<g>		<path class="st0" d="M300,294.9l-8.2-5.3l0.9-1.3l8.2,5.3c0.6,0.4,1.5,0.4,2.1,0.1l19.4-11c0.1-0.1,0.1-0.2,0.1-0.2   c0-0.1,0-0.2-0.1-0.2l-48.5-28c-2.3-1.3-5.1-1.3-7.4,0l-55.4,32l-0.8-1.4l55.4-32c2.8-1.6,6.2-1.6,9,0l48.5,28   c0.6,0.3,0.9,0.9,0.9,1.6c0,0.7-0.4,1.3-1,1.6l-19.4,11c-0.6,0.3-1.2,0.5-1.8,0.5C301.3,295.5,300.6,295.3,300,294.9z"></path>	</g>	<g>		<path class="st0" d="M270.4,299.5l-25.2-14.6c-1.9-1.1-2.1-2.7-0.5-3.6l26.1-15.1c1.6-0.9,4.4-0.8,6.3,0.3l25.2,14.6   c1.9,1.1,2.1,2.7,0.5,3.6l-26.1,15.1C275.1,300.7,272.3,300.6,270.4,299.5z"></path>		<g>			<path class="st1" d="M238,272.5l31.6,18.2c2.3,1.3,5.8,1.5,7.8,0.3l32.7-18.9c1-0.6,1.4-1.3,1.4-2.1v-11.6l-25.3,0l-8.2-4.7    c-2.3-1.3-5.8-1.5-7.8-0.3l-8.8,5.1l-25.3,0v11.3l0,0C236,270.8,236.6,271.8,238,272.5z"></path>			<path class="st1" d="M273.8,252.7v39.2c1.4,0,2.7-0.2,3.6-0.8l32.7-18.9c1-0.6,1.4-1.3,1.4-2.1v-11.6l-25.3,0l-8.2-4.7    C276.8,253.1,275.2,252.7,273.8,252.7L273.8,252.7z"></path>			<path class="st2" d="M308.6,273.1l1.5-0.9c1-0.6,1.4-1.3,1.4-2.1v-11.6h-2.9V273.1z"></path>			<path class="st2" d="M276.9,278.1h-6.3v13.2c2,0.8,4.5,0.8,6.3,0.1V278.1z"></path>			<path class="st3" d="M269.6,279.2L238,261c-2.3-1.3-2.6-3.4-0.6-4.5l32.7-18.9c2-1.2,5.5-1,7.8,0.3l31.6,18.2    c2.3,1.3,2.6,3.4,0.6,4.5l-32.7,18.9C275.4,280.7,271.9,280.5,269.6,279.2z"></path>			<path class="st2" d="M270.2,275.9l-26.5-15.3c-1.9-1.1-2.1-2.8-0.5-3.8l27.4-15.8c1.7-1,4.6-0.8,6.6,0.3l26.5,15.3    c1.9,1.1,2.1,2.8,0.5,3.8l-27.4,15.8C275.1,277.1,272.2,277,270.2,275.9z"></path>			<g>				<path class="st3" d="M249.4,272c0.7,0.4,1.3,1.5,1.3,2.3s-0.6,1.2-1.3,0.8s-1.3-1.5-1.3-2.3S248.7,271.6,249.4,272z"></path>				<path class="st3" d="M245.2,269.6c0.7,0.4,1.3,1.5,1.3,2.3s-0.6,1.2-1.3,0.8s-1.3-1.5-1.3-2.3     C243.9,269.5,244.4,269.2,245.2,269.6z"></path>				<path class="st3" d="M240.9,267.1c0.7,0.4,1.3,1.5,1.3,2.3s-0.6,1.2-1.3,0.8s-1.3-1.5-1.3-2.3S240.2,266.7,240.9,267.1z"></path>			</g>		</g>		<g>			<path class="st1" d="M238,254.5l31.6,18.2c2.3,1.3,5.8,1.5,7.8,0.3l32.7-18.9c1-0.6,1.4-1.3,1.4-2.1v-11.6l-25.3,0l-8.2-4.7    c-2.3-1.3-5.8-1.5-7.8-0.3l-8.8,5.1l-25.3,0v11.3l0,0C236,252.7,236.6,253.7,238,254.5z"></path>			<path class="st1" d="M273.8,234.7v39.2c1.4,0,2.7-0.2,3.6-0.8l32.7-18.9c1-0.6,1.4-1.3,1.4-2.1v-11.6l-25.3,0l-8.2-4.7    C276.8,235.1,275.2,234.7,273.8,234.7L273.8,234.7z"></path>			<path class="st2" d="M308.6,255l1.5-0.9c1-0.6,1.4-1.3,1.4-2.1v-11.6h-2.9V255z"></path>			<path class="st2" d="M276.9,260h-6.3v13.2c2,0.8,4.5,0.8,6.3,0.1V260z"></path>			<path class="st3" d="M269.6,261.2L238,242.9c-2.3-1.3-2.6-3.4-0.6-4.5l32.7-18.9c2-1.2,5.5-1,7.8,0.3l31.6,18.2    c2.3,1.3,2.6,3.4,0.6,4.5l-32.7,18.9C275.4,262.6,271.9,262.5,269.6,261.2z"></path>			<path class="st2" d="M270.2,257.8l-26.5-15.3c-1.9-1.1-2.1-2.8-0.5-3.8l27.4-15.8c1.7-1,4.6-0.8,6.6,0.3l26.5,15.3    c1.9,1.1,2.1,2.8,0.5,3.8l-27.4,15.8C275.1,259.1,272.2,258.9,270.2,257.8z"></path>			<g>				<path class="st3" d="M249.4,254c0.7,0.4,1.3,1.4,1.3,2.3s-0.6,1.2-1.3,0.8c-0.7-0.4-1.3-1.4-1.3-2.3S248.7,253.6,249.4,254z"></path>				<path class="st3" d="M245.2,251.5c0.7,0.4,1.3,1.4,1.3,2.3s-0.6,1.2-1.3,0.8s-1.3-1.4-1.3-2.3S244.4,251.1,245.2,251.5z"></path>				<path class="st3" d="M240.9,249.1c0.7,0.4,1.3,1.4,1.3,2.3s-0.6,1.2-1.3,0.8s-1.3-1.4-1.3-2.3     C239.6,249,240.2,248.7,240.9,249.1z"></path>			</g>		</g>		<g>			<path class="st1" d="M238,236.5l31.6,18.2c2.3,1.3,5.8,1.5,7.8,0.3l32.7-18.9c1-0.6,1.4-1.3,1.4-2.1v-11.6l-25.3,0l-8.2-4.7    c-2.3-1.3-5.8-1.5-7.8-0.3l-8.8,5.1l-25.3,0v11.3l0,0C236,234.7,236.6,235.7,238,236.5z"></path>			<path class="st1" d="M273.8,216.6v39.2c1.4,0,2.7-0.2,3.6-0.8l32.7-18.9c1-0.6,1.4-1.3,1.4-2.1v-11.6l-25.3,0l-8.2-4.7    C276.8,217,275.2,216.7,273.8,216.6L273.8,216.6z"></path>			<path class="st2" d="M308.6,237l1.5-0.9c1-0.6,1.4-1.3,1.4-2.1v-11.6h-2.9V237z"></path>			<path class="st2" d="M276.9,242h-6.3v13.2c2,0.8,4.5,0.8,6.3,0.1V242z"></path>			<path class="st3" d="M269.6,243.1L238,224.9c-2.3-1.3-2.6-3.4-0.6-4.5l32.7-18.9c2-1.2,5.5-1,7.8,0.3l31.6,18.2    c2.3,1.3,2.6,3.4,0.6,4.5l-32.7,18.9C275.4,244.6,271.9,244.5,269.6,243.1z"></path>			<path class="st4" d="M236.4,221.2c-0.8,1.1-0.2,2.6,1.6,3.6l31.6,18.2c2.3,1.3,5.8,1.5,7.8,0.3l32.7-18.9c1.4-0.8,1.7-2,1-3.1    c-0.2,0.3-0.5,0.6-1,0.9l-32.7,18.9c-2,1.2-5.5,1-7.8-0.3L238,222.7C237.3,222.2,236.7,221.8,236.4,221.2z"></path>			<g>				<path class="st3" d="M249.4,236c0.7,0.4,1.3,1.4,1.3,2.3s-0.6,1.2-1.3,0.8s-1.3-1.4-1.3-2.3C248.1,235.9,248.7,235.5,249.4,236z     "></path>				<path class="st3" d="M245.2,233.5c0.7,0.4,1.3,1.4,1.3,2.3s-0.6,1.2-1.3,0.8s-1.3-1.4-1.3-2.3S244.4,233.1,245.2,233.5z"></path>				<path class="st3" d="M240.9,231.1c0.7,0.4,1.3,1.4,1.3,2.3s-0.6,1.2-1.3,0.8s-1.3-1.4-1.3-2.3     C239.6,231,240.2,230.6,240.9,231.1z"></path>			</g>			<g>				<path class="st2" d="M271.8,231.6L257,223c-1.1-0.6-1.2-1.6-0.3-2.1l15.3-8.8c0.9-0.5,2.6-0.5,3.7,0.1l14.8,8.5     c1.1,0.6,1.2,1.6,0.3,2.1l-15.3,8.8C274.5,232.3,272.9,232.2,271.8,231.6z"></path>				<path class="st3" d="M273.5,224.3l-2-1.2c-0.1-0.1-0.2-0.2,0-0.3l2.1-1.2c0.1-0.1,0.4-0.1,0.5,0l2,1.2c0.1,0.1,0.2,0.2,0,0.3     l-2.1,1.2C273.9,224.4,273.6,224.4,273.5,224.3z"></path>				<path class="st1" d="M290.5,220.8l-14.8-8.5c-1.1-0.6-2.7-0.7-3.7-0.1l-15.3,8.8c-0.9,0.5-0.8,1.4,0,2l15.3-8.8     c0.9-0.5,2.6-0.5,3.7,0.1l14.8,8.5c0.1,0,0.1,0.1,0.2,0.1l0,0C291.7,222.3,291.6,221.4,290.5,220.8z"></path>			</g>		</g>		<g>			<path class="st3" d="M280.4,245.2c0.5-0.3,0.9-0.1,0.9,0.5c0,0.6-0.4,1.3-0.9,1.5c-0.5,0.3-0.9,0.1-0.9-0.5    S279.9,245.5,280.4,245.2z"></path>			<path class="st3" d="M283.2,243.6c0.5-0.3,0.9-0.1,0.9,0.5c0,0.6-0.4,1.3-0.9,1.5c-0.5,0.3-0.9,0.1-0.9-0.5    C282.3,244.6,282.7,243.9,283.2,243.6z"></path>			<path class="st3" d="M280.4,248.5c0.5-0.3,0.9-0.1,0.9,0.5c0,0.6-0.4,1.3-0.9,1.5c-0.5,0.3-0.9,0.1-0.9-0.5    C279.5,249.5,279.9,248.8,280.4,248.5z"></path>			<path class="st3" d="M283.2,246.9c0.5-0.3,0.9-0.1,0.9,0.5s-0.4,1.3-0.9,1.5c-0.5,0.3-0.9,0.1-0.9-0.5    C282.3,247.9,282.7,247.2,283.2,246.9z"></path>		</g>		<g>			<path class="st3" d="M280.4,263.2c0.5-0.3,0.9-0.1,0.9,0.5s-0.4,1.3-0.9,1.5c-0.5,0.3-0.9,0.1-0.9-0.5    C279.5,264.1,279.9,263.4,280.4,263.2z"></path>			<path class="st3" d="M283.2,261.6c0.5-0.3,0.9-0.1,0.9,0.5s-0.4,1.3-0.9,1.5c-0.5,0.3-0.9,0.1-0.9-0.5S282.7,261.9,283.2,261.6z"></path>			<path class="st3" d="M280.4,266.5c0.5-0.3,0.9-0.1,0.9,0.5s-0.4,1.3-0.9,1.5c-0.5,0.3-0.9,0.1-0.9-0.5S279.9,266.8,280.4,266.5z"></path>			<path class="st3" d="M283.2,264.9c0.5-0.3,0.9-0.1,0.9,0.5s-0.4,1.3-0.9,1.5c-0.5,0.3-0.9,0.1-0.9-0.5    C282.3,265.9,282.7,265.2,283.2,264.9z"></path>		</g>		<g>			<path class="st3" d="M280.4,281.1c0.5-0.3,0.9-0.1,0.9,0.5s-0.4,1.3-0.9,1.5c-0.5,0.3-0.9,0.1-0.9-0.5S279.9,281.4,280.4,281.1z"></path>			<path class="st3" d="M283.2,279.5c0.5-0.3,0.9-0.1,0.9,0.5s-0.4,1.3-0.9,1.5c-0.5,0.3-0.9,0.1-0.9-0.5S282.7,279.8,283.2,279.5z"></path>			<path class="st3" d="M280.4,284.4c0.5-0.3,0.9-0.1,0.9,0.5s-0.4,1.3-0.9,1.5c-0.5,0.3-0.9,0.1-0.9-0.5    C279.5,285.4,279.9,284.7,280.4,284.4z"></path>			<path class="st3" d="M283.2,282.9c0.5-0.3,0.9-0.1,0.9,0.5s-0.4,1.3-0.9,1.5c-0.5,0.3-0.9,0.1-0.9-0.5S282.7,283.1,283.2,282.9z"></path>		</g>	</g>	<path class="st0" d="M270.7,312.5l-32.3-18.4c-1.2-0.7-2.6-0.7-3.8,0l-27,15.6c-1.7,1-3.7,1-5.4,0l-13-7.5l0.8-1.4l13,7.5  c1.2,0.7,2.6,0.7,3.8,0l27-15.6c1.7-1,3.7-1,5.4,0l32.3,18.4c1.2,0.7,2.6,0.7,3.8,0l16.5-9.6c0.1-0.1,0.1-0.1,0.1-0.2  c0-0.1,0-0.1-0.1-0.2l-10.8-6.3l0.8-1.4l10.8,6.3c0.6,0.3,0.9,0.9,0.9,1.5s-0.3,1.2-0.9,1.5l-16.5,9.6c-0.8,0.5-1.8,0.7-2.7,0.7  C272.4,313.2,271.5,312.9,270.7,312.5z"></path>	<g>		<path class="st0" d="M123.9,373.8l-25.2-14.6c-1.9-1.1-2.1-2.7-0.5-3.6l26.1-15.1c1.6-0.9,4.4-0.8,6.3,0.3l25.2,14.6   c1.9,1.1,2.1,2.7,0.5,3.6l-26.1,15.1C128.5,375,125.7,374.9,123.9,373.8z"></path>		<g>			<path class="st1" d="M91.4,346.8l31.6,18.2c2.3,1.3,5.8,1.5,7.8,0.3l32.7-18.9c1-0.6,1.4-1.3,1.4-2.1v-11.6l-25.3,0l-8.2-4.7    c-2.3-1.3-5.8-1.5-7.8-0.3l-8.8,5l-25.3,0v11.3l0,0C89.4,345.1,90.1,346.1,91.4,346.8z"></path>			<path class="st1" d="M127.2,327v39.2c1.4,0,2.7-0.2,3.6-0.8l32.7-18.9c1-0.6,1.4-1.3,1.4-2.1v-11.6l-25.3,0l-8.2-4.7    C130.2,327.4,128.7,327,127.2,327L127.2,327z"></path>			<path class="st2" d="M162,347.4l1.5-0.9c1-0.6,1.4-1.3,1.4-2.1v-11.6H162V347.4z"></path>			<path class="st2" d="M130.3,352.4h-6.3v13.2c2,0.8,4.5,0.8,6.3,0.1V352.4z"></path>			<path class="st3" d="M123,353.5l-31.6-18.2c-2.3-1.3-2.6-3.4-0.6-4.5l32.7-18.9c2-1.2,5.5-1,7.8,0.3l31.6,18.2    c2.3,1.3,2.6,3.4,0.6,4.5l-32.7,18.9C128.8,355,125.3,354.8,123,353.5z"></path>			<path class="st2" d="M123.7,350.2l-26.5-15.3c-1.9-1.1-2.1-2.8-0.5-3.8l27.4-15.8c1.7-1,4.6-0.9,6.6,0.3l26.5,15.3    c1.9,1.1,2.1,2.8,0.5,3.8l-27.4,15.8C128.6,351.4,125.6,351.3,123.7,350.2z"></path>			<g>				<path class="st3" d="M102.9,346.3c0.7,0.4,1.3,1.5,1.3,2.3s-0.6,1.2-1.3,0.8s-1.3-1.5-1.3-2.3S102.1,345.9,102.9,346.3z"></path>				<path class="st3" d="M98.6,343.9c0.7,0.4,1.3,1.5,1.3,2.3s-0.6,1.2-1.3,0.8s-1.3-1.5-1.3-2.3S97.9,343.5,98.6,343.9z"></path>				<path class="st3" d="M94.4,341.4c0.7,0.4,1.3,1.5,1.3,2.3s-0.6,1.2-1.3,0.8S93,343,93,342.2S93.6,341,94.4,341.4z"></path>			</g>		</g>		<g>			<path class="st1" d="M91.4,328.8L123,347c2.3,1.3,5.8,1.5,7.8,0.3l32.7-18.9c1-0.6,1.4-1.3,1.4-2.1v-11.6l-25.3,0l-8.2-4.7    c-2.3-1.3-5.8-1.5-7.8-0.3l-8.8,5l-25.3,0v11.3l0,0C89.4,327,90.1,328,91.4,328.8z"></path>			<path class="st1" d="M127.2,309v39.2c1.4,0,2.7-0.2,3.6-0.8l32.7-18.9c1-0.6,1.4-1.3,1.4-2.1v-11.6l-25.3,0l-8.2-4.7    C130.2,309.4,128.7,309,127.2,309L127.2,309z"></path>			<path class="st2" d="M162,329.3l1.5-0.9c1-0.6,1.4-1.3,1.4-2.1v-11.6H162V329.3z"></path>			<path class="st2" d="M130.3,334.3h-6.3v13.2c2,0.8,4.5,0.8,6.3,0.1V334.3z"></path>			<path class="st3" d="M123,335.5l-31.6-18.2c-2.3-1.3-2.6-3.4-0.6-4.5l32.7-18.9c2-1.2,5.5-1,7.8,0.3l31.6,18.2    c2.3,1.3,2.6,3.4,0.6,4.5l-32.7,18.9C128.8,336.9,125.3,336.8,123,335.5z"></path>			<path class="st2" d="M123.7,332.1l-26.5-15.3c-1.9-1.1-2.1-2.8-0.5-3.8l27.4-15.8c1.7-1,4.6-0.9,6.6,0.3l26.5,15.3    c1.9,1.1,2.1,2.8,0.5,3.8l-27.4,15.8C128.6,333.4,125.6,333.2,123.7,332.1z"></path>			<g>				<path class="st3" d="M102.9,328.3c0.7,0.4,1.3,1.5,1.3,2.3s-0.6,1.2-1.3,0.8s-1.3-1.5-1.3-2.3     C101.5,328.2,102.1,327.9,102.9,328.3z"></path>				<path class="st3" d="M98.6,325.8c0.7,0.4,1.3,1.5,1.3,2.3s-0.6,1.2-1.3,0.8s-1.3-1.5-1.3-2.3S97.9,325.4,98.6,325.8z"></path>				<path class="st3" d="M94.4,323.4c0.7,0.4,1.3,1.5,1.3,2.3s-0.6,1.2-1.3,0.8S93,325,93,324.2S93.6,323,94.4,323.4z"></path>			</g>		</g>		<g>			<path class="st1" d="M91.4,310.8L123,329c2.3,1.3,5.8,1.5,7.8,0.3l32.7-18.9c1-0.6,1.4-1.3,1.4-2.1v-11.6l-25.3,0l-8.2-4.7    c-2.3-1.3-5.8-1.5-7.8-0.3l-8.8,5l-25.3,0V308l0,0C89.4,309,90.1,310,91.4,310.8z"></path>			<path class="st1" d="M127.2,290.9v39.2c1.4,0,2.7-0.2,3.6-0.8l32.7-18.9c1-0.6,1.4-1.3,1.4-2.1v-11.6l-25.3,0l-8.2-4.7    C130.2,291.3,128.7,291,127.2,290.9L127.2,290.9z"></path>			<path class="st2" d="M162,311.3l1.5-0.9c1-0.6,1.4-1.3,1.4-2.1v-11.6H162V311.3z"></path>			<path class="st2" d="M130.3,316.3h-6.3v13.2c2,0.8,4.5,0.8,6.3,0.1V316.3z"></path>			<path class="st3" d="M123,317.4l-31.6-18.2c-2.3-1.3-2.6-3.4-0.6-4.5l32.7-18.9c2-1.2,5.5-1,7.8,0.3l31.6,18.2    c2.3,1.3,2.6,3.4,0.6,4.5l-32.7,18.9C128.8,318.9,125.3,318.8,123,317.4z"></path>			<path class="st4" d="M89.9,295.5c-0.8,1.1-0.2,2.6,1.6,3.6l31.6,18.2c2.3,1.3,5.8,1.5,7.8,0.3l32.7-18.9c1.4-0.8,1.7-2,1-3.1    c-0.2,0.3-0.5,0.6-1,0.9l-32.7,18.9c-2,1.2-5.5,1-7.8-0.3L91.4,297C90.7,296.5,90.2,296,89.9,295.5z"></path>			<g>				<path class="st3" d="M102.9,310.3c0.7,0.4,1.3,1.5,1.3,2.3s-0.6,1.2-1.3,0.8s-1.3-1.5-1.3-2.3     C101.5,310.2,102.1,309.8,102.9,310.3z"></path>				<path class="st3" d="M98.6,307.8c0.7,0.4,1.3,1.5,1.3,2.3s-0.6,1.2-1.3,0.8s-1.3-1.5-1.3-2.3C97.3,307.7,97.9,307.4,98.6,307.8z     "></path>				<path class="st3" d="M94.4,305.4c0.7,0.4,1.3,1.5,1.3,2.3s-0.6,1.2-1.3,0.8S93,307,93,306.1C93,305.3,93.6,304.9,94.4,305.4z"></path>			</g>			<g>				<path class="st2" d="M125.2,305.9l-14.8-8.5c-1.1-0.6-1.2-1.6-0.3-2.1l15.3-8.8c0.9-0.5,2.6-0.5,3.7,0.1l14.8,8.5     c1.1,0.6,1.2,1.6,0.3,2.1l-15.3,8.8C128,306.6,126.3,306.5,125.2,305.9z"></path>				<path class="st3" d="M126.9,298.6l-2-1.2c-0.1-0.1-0.2-0.2,0-0.3l2.1-1.2c0.1-0.1,0.4-0.1,0.5,0l2,1.2c0.1,0.1,0.2,0.2,0,0.3     l-2.1,1.2C127.3,298.7,127.1,298.7,126.9,298.6z"></path>				<path class="st1" d="M144,295.1l-14.8-8.5c-1.1-0.6-2.7-0.7-3.7-0.1l-15.3,8.8c-0.9,0.5-0.8,1.4,0,2l15.3-8.8     c0.9-0.5,2.6-0.5,3.7,0.1l14.8,8.5c0.1,0,0.1,0.1,0.2,0.1l0,0C145.2,296.6,145,295.7,144,295.1z"></path>			</g>		</g>	</g>	<path class="st3" d="M178.4,114.3c0.5-0.3,0.9-0.1,0.9,0.5s-0.4,1.3-0.9,1.5c-0.5,0.3-0.9,0.1-0.9-0.5S177.9,114.5,178.4,114.3z"></path>	<path class="st3" d="M170.5,119c0.5-0.3,0.9-0.1,0.9,0.5s-0.4,1.3-0.9,1.5c-0.5,0.3-0.9,0.1-0.9-0.5S170.1,119.3,170.5,119z"></path>	<path class="st3" d="M162.7,123.8c0.5-0.3,0.9-0.1,0.9,0.5s-0.4,1.3-0.9,1.5c-0.5,0.3-0.9,0.1-0.9-0.5S162.2,124,162.7,123.8z"></path>	<path class="st3" d="M154.9,128.5c0.5-0.3,0.9-0.1,0.9,0.5c0,0.6-0.4,1.3-0.9,1.5c-0.5,0.3-0.9,0.1-0.9-0.5  C154,129.5,154.4,128.8,154.9,128.5z"></path></g><path class="st3" d="M428.1,118.4c0,0.4-0.4,0.8-0.8,0.8s-0.8-0.4-0.8-0.8s0.4-0.8,0.8-0.8C427.8,117.6,428.1,117.9,428.1,118.4z"></path><path class="st3" d="M435.5,122.8c0,0.4-0.4,0.8-0.8,0.8s-0.8-0.4-0.8-0.8s0.4-0.8,0.8-0.8C435.1,121.9,435.5,122.3,435.5,122.8z"></path><circle class="st3" cx="442" cy="127.1" r="0.8"></circle><path class="st3" d="M450,131.3c0,0.4-0.4,0.8-0.8,0.8s-0.8-0.4-0.8-0.8s0.4-0.8,0.8-0.8S450,130.9,450,131.3z"></path></svg>