<svg xmlns="http://www.w3.org/2000/svg" xmlns:xlink="http://www.w3.org/1999/xlink" id="Calque_1" x="0px" y="0px" viewBox="0 0 841.9 595.3" style="enable-background:new 0 0 841.9 595.3;" xml:space="preserve"><style type="text/css">	.st0{fill:#B2D3EA;}	.st1{fill:#396CAA;}	.st2{fill:#5793CE;}	.st3{fill:#D4ECFF;}	.st4{fill:#FFFFFF;}	.st5{fill:#FAFDFF;}	.st6{fill:#173D7A;}	.st7{opacity:0.4;fill:#D4ECFF;enable-background:new    ;}</style><g>	<path class="st0" d="M303.4,353.3l-22.1-12.9c-0.9-0.5-1.4-1.4-1.3-2.4s0.5-1.9,1.4-2.3l29.5-15.8l0.8,1.4L282.1,337  c-0.4,0.2-0.6,0.5-0.6,1s0.2,0.8,0.5,1l22.1,12.9c0.9,0.5,2,0.5,2.9,0l13.6-8.1l0.8,1.4l-13.6,8.1c-0.7,0.4-1.5,0.6-2.3,0.6  C304.8,353.9,304,353.7,303.4,353.3z"></path>	<path class="st0" d="M357.5,475.3l-20.6-12.7c-0.6-0.4-1-1-1-1.7s0.4-1.3,1-1.7l14.9-9.1l0.8,1.4l-14.9,9.1  c-0.2,0.1-0.2,0.3-0.2,0.3c0,0.1,0,0.2,0.2,0.3l20.6,12.7c1.3,0.8,2.9,0.8,4.1,0.1l54.2-30.2c0.4-0.2,0.5-0.6,0.5-0.8  s0-0.5-0.5-0.8l-24.5-13.8c-0.8-0.4-1.2-1.2-1.2-2.1s0.5-1.7,1.2-2.1l27.3-15.7c0.4-0.2,0.4-0.6,0.4-0.7c0-0.1,0-0.5-0.4-0.7  l-11.1-7.1l0.9-1.4l11.1,7.1c0.7,0.5,1.2,1.2,1.1,2.1c0,0.9-0.5,1.6-1.2,2.1L393,425.6c-0.4,0.2-0.4,0.6-0.4,0.7s0,0.5,0.4,0.7  l24.5,13.8c0.8,0.4,1.3,1.3,1.3,2.2c0,0.9-0.5,1.7-1.3,2.2l-54.2,30.2c-0.9,0.5-1.8,0.7-2.8,0.7  C359.5,476.2,358.4,475.9,357.5,475.3z"></path>	<g>		<path class="st0" d="M330.8,354.4l-25.2-14.6c-1.9-1.1-2-2.7-0.5-3.6l26.1-15.1c1.6-0.9,4.4-0.8,6.3,0.3l25.2,14.6   c1.9,1.1,2.1,2.7,0.5,3.6l-26.1,15.1C335.5,355.6,332.7,355.5,330.8,354.4z"></path>		<g>			<path class="st1" d="M298.4,327.5l31.6,18.2c2.3,1.3,5.8,1.5,7.8,0.3l32.7-18.9c1-0.6,1.4-1.3,1.4-2.1v-11.6l-25.3,0l-8.2-4.7    c-2.3-1.3-5.8-1.5-7.8-0.3l-8.8,5.1l-25.3,0v11.3l0,0C296.4,325.7,297.1,326.7,298.4,327.5z"></path>			<path class="st1" d="M334.2,307.6v39.2c1.4,0,2.7-0.2,3.6-0.8l32.7-18.9c1-0.6,1.4-1.3,1.4-2.1v-11.6l-25.3,0l-8.2-4.7    C337.2,308,335.7,307.7,334.2,307.6L334.2,307.6z"></path>			<path class="st2" d="M369,328l1.5-0.9c1-0.6,1.4-1.3,1.4-2.1v-11.6H369V328z"></path>			<path class="st2" d="M337.3,333h-6.3v13.2c2,0.8,4.5,0.8,6.3,0.1V333z"></path>			<path class="st3" d="M330,334.1l-31.6-18.2c-2.3-1.3-2.6-3.4-0.6-4.5l32.7-18.9c2-1.2,5.5-1,7.8,0.3L370,311    c2.3,1.3,2.6,3.4,0.6,4.5l-32.7,18.9C335.8,335.6,332.3,335.5,330,334.1z"></path>			<path class="st2" d="M330.7,330.8l-26.5-15.3c-1.9-1.1-2.1-2.8-0.5-3.8l27.4-15.8c1.7-1,4.6-0.8,6.6,0.3l26.5,15.3    c1.9,1.1,2.1,2.8,0.5,3.8l-27.4,15.8C335.6,332,332.6,331.9,330.7,330.8z"></path>			<g>				<path class="st3" d="M309.8,327c0.7,0.4,1.3,1.4,1.3,2.3s-0.6,1.2-1.3,0.8c-0.7-0.4-1.3-1.5-1.3-2.3S309.1,326.6,309.8,327z"></path>				<path class="st3" d="M305.6,324.5c0.7,0.4,1.3,1.4,1.3,2.3s-0.6,1.2-1.3,0.8c-0.7-0.4-1.3-1.5-1.3-2.3S304.9,324.1,305.6,324.5z     "></path>				<path class="st3" d="M301.3,322.1c0.7,0.4,1.3,1.5,1.3,2.3s-0.6,1.2-1.3,0.8c-0.7-0.4-1.3-1.4-1.3-2.3     C300,322,300.6,321.6,301.3,322.1z"></path>			</g>		</g>		<g>			<path class="st1" d="M298.4,309.4l31.6,18.2c2.3,1.3,5.8,1.5,7.8,0.3l32.7-18.9c1-0.6,1.4-1.3,1.4-2.1v-11.6l-25.3,0l-8.2-4.7    c-2.3-1.3-5.8-1.5-7.8-0.3l-8.8,5l-25.3,0v11.3l0,0C296.4,307.6,297.1,308.6,298.4,309.4z"></path>			<path class="st1" d="M334.2,289.6v39.2c1.4,0,2.7-0.2,3.6-0.8l32.7-18.9c1-0.6,1.4-1.3,1.4-2.1v-11.6l-25.3,0l-8.2-4.7    C337.2,290,335.7,289.6,334.2,289.6L334.2,289.6z"></path>			<path class="st2" d="M369,310l1.5-0.9c1-0.6,1.4-1.3,1.4-2.1v-11.6H369V310z"></path>			<path class="st2" d="M337.3,315h-6.3v13.2c2,0.8,4.5,0.8,6.3,0.1V315z"></path>			<path class="st3" d="M330,316.1l-31.6-18.2c-2.3-1.3-2.6-3.4-0.6-4.5l32.7-18.9c2-1.2,5.5-1,7.8,0.3L370,293    c2.3,1.3,2.6,3.4,0.6,4.5l-32.7,18.9C335.8,317.6,332.3,317.4,330,316.1z"></path>			<path class="st2" d="M330.7,312.7l-26.5-15.3c-1.9-1.1-2.1-2.8-0.5-3.8l27.4-15.8c1.7-1,4.6-0.8,6.6,0.3l26.5,15.3    c1.9,1.1,2.1,2.8,0.5,3.8L337.2,313C335.6,314,332.6,313.9,330.7,312.7z"></path>			<g>				<path class="st3" d="M309.8,308.9c0.7,0.4,1.3,1.5,1.3,2.3s-0.6,1.2-1.3,0.8c-0.7-0.4-1.3-1.4-1.3-2.3     C308.5,308.8,309.1,308.5,309.8,308.9z"></path>				<path class="st3" d="M305.6,306.5c0.7,0.4,1.3,1.4,1.3,2.3s-0.6,1.2-1.3,0.8c-0.7-0.4-1.3-1.5-1.3-2.3S304.9,306.1,305.6,306.5z     "></path>				<path class="st3" d="M301.3,304c0.7,0.4,1.3,1.5,1.3,2.3s-0.6,1.2-1.3,0.8c-0.7-0.4-1.3-1.4-1.3-2.3     C300,303.9,300.6,303.6,301.3,304z"></path>			</g>		</g>		<g>			<path class="st1" d="M298.4,291.4l31.6,18.2c2.3,1.3,5.8,1.5,7.8,0.3l32.7-18.9c1-0.6,1.4-1.3,1.4-2.1v-11.6l-25.3,0l-8.2-4.7    c-2.3-1.3-5.8-1.5-7.8-0.3l-8.8,5l-25.3,0v11.3l0,0C296.4,289.6,297.1,290.6,298.4,291.4z"></path>			<path class="st1" d="M334.2,271.5v39.2c1.4,0,2.7-0.2,3.6-0.8l32.7-18.9c1-0.6,1.4-1.3,1.4-2.1v-11.6l-25.3,0l-8.2-4.7    C337.2,271.9,335.7,271.6,334.2,271.5L334.2,271.5z"></path>			<path class="st2" d="M369,291.9l1.5-0.9c1-0.6,1.4-1.3,1.4-2.1v-11.6H369V291.9z"></path>			<path class="st2" d="M337.3,296.9h-6.3v13.2c2,0.8,4.5,0.8,6.3,0.1V296.9z"></path>			<path class="st3" d="M330,298.1l-31.6-18.2c-2.3-1.3-2.6-3.4-0.6-4.5l32.7-18.9c2-1.2,5.5-1,7.8,0.3L370,275    c2.3,1.3,2.6,3.4,0.6,4.5l-32.7,18.9C335.8,299.5,332.3,299.4,330,298.1z"></path>			<path class="st4" d="M296.8,276.2c-0.8,1.1-0.2,2.6,1.6,3.6L330,298c2.3,1.3,5.8,1.5,7.8,0.3l32.7-18.9c1.4-0.8,1.7-2,1-3.1    c-0.2,0.3-0.5,0.6-1,0.9l-32.7,18.9c-2,1.2-5.5,1-7.8-0.3l-31.6-18.2C297.7,277.2,297.2,276.7,296.8,276.2z"></path>			<g>				<path class="st3" d="M309.8,290.9c0.7,0.4,1.3,1.5,1.3,2.3s-0.6,1.2-1.3,0.8c-0.7-0.4-1.3-1.4-1.3-2.3     C308.5,290.8,309.1,290.5,309.8,290.9z"></path>				<path class="st3" d="M305.6,288.4c0.7,0.4,1.3,1.5,1.3,2.3s-0.6,1.2-1.3,0.8c-0.7-0.4-1.3-1.4-1.3-2.3S304.9,288,305.6,288.4z"></path>				<path class="st3" d="M301.3,286c0.7,0.4,1.3,1.4,1.3,2.3s-0.6,1.2-1.3,0.8c-0.7-0.4-1.3-1.5-1.3-2.3     C300,285.9,300.6,285.6,301.3,286z"></path>			</g>			<g>				<path class="st2" d="M332.2,286.5l-14.8-8.5c-1.1-0.6-1.2-1.6-0.3-2.1l15.3-8.8c0.9-0.5,2.6-0.5,3.7,0.1l14.8,8.5     c1.1,0.6,1.2,1.6,0.3,2.1l-15.3,8.8C335,287.2,333.3,287.1,332.2,286.5z"></path>				<path class="st3" d="M333.9,279.2l-2-1.2c-0.1-0.1-0.2-0.2,0-0.3l2.1-1.2c0.1-0.1,0.4-0.1,0.5,0l2,1.2c0.1,0.1,0.2,0.2,0,0.3     l-2.1,1.2C334.3,279.3,334.1,279.3,333.9,279.2z"></path>				<path class="st1" d="M350.9,275.7l-14.8-8.5c-1.1-0.6-2.7-0.7-3.7-0.1l-15.3,8.8c-0.9,0.5-0.8,1.4,0,2l15.3-8.8     c0.9-0.5,2.6-0.5,3.7,0.1l14.8,8.5c0.1,0,0.1,0.1,0.2,0.1l0,0C352.1,277.3,352,276.3,350.9,275.7z"></path>			</g>		</g>	</g>	<g>		<g>			<g>				<path class="st0" d="M387.9,408.5l-32.5-18.8c-2.4-1.4-2.6-3.5-0.6-4.6l56.5-32.2c2.1-1.2,5.7-1.1,8.1,0.3l32.5,18.8     c2.4,1.4,2.6,3.5,0.6,4.6L396,408.8C393.9,410,390.3,409.9,387.9,408.5z"></path>				<path class="st1" d="M351.9,377.2l34.9,20.1c2.6,1.5,6.4,1.6,8.6,0.4l52.3-39.5c1.1-0.6,1.5-1.5,1.5-2.3l8.3-127.3l-28,0l-9-5.2     c-2.6-1.5-6.4-1.6-8.6-0.4l-9.6,5.6l-52.4,13.7v131.8l0,0C349.7,375.3,350.4,376.4,351.9,377.2z"></path>				<path class="st3" d="M390.8,265.5l0.6,133c1.5,0,3-0.2,4-0.9l60.6-34.5c1.1-0.6,1.5-1.5,1.5-2.3V228.6l-28,0l-9-5.2     c-1.3-0.8-3-1.2-4.6-1.2L390.8,265.5z"></path>				<path class="st2" d="M394.8,264h-6.9v133.9c2.2,0.8,5,0.9,6.9,0.1V264z"></path>				<path class="st3" d="M386.8,265.2l-34.9-20.1c-2.6-1.5-2.8-3.7-0.6-5l60.6-34.5c2.2-1.3,6.1-1.1,8.6,0.4l34.9,20.1     c2.6,1.5,2.8,3.7,0.6,5l-60.6,34.5C393.2,266.8,389.3,266.7,386.8,265.2z"></path>				<path class="st5" d="M350.2,241.1c-0.9,1.3-0.3,2.9,1.7,4l34.9,20.1c2.6,1.5,6.4,1.6,8.6,0.4L456,231c1.5-0.9,1.9-2.2,1.1-3.4     c-0.2,0.4-0.6,0.7-1.1,1l-60.6,34.5c-2.2,1.3-6.1,1.1-8.6-0.4l-34.9-20.1C351.1,242.2,350.5,241.6,350.2,241.1z"></path>				<g>					<path class="st6" d="M389.6,251.4l-16.3-9.4c-1.2-0.7-1.3-1.7-0.3-2.3l40.3-23.4c1-0.6,2.8-0.5,4,0.2l16.3,9.4      c1.2,0.7,1.3,1.7,0.3,2.3l-40.3,23.4C392.6,252.1,390.8,252.1,389.6,251.4z"></path>					<g>						<path class="st3" d="M414.9,229.2l-2.3-1.3c-0.2-0.1-0.2-0.2,0-0.3l2.3-1.4c0.1-0.1,0.4-0.1,0.6,0l2.3,1.3       c0.2,0.1,0.2,0.2,0,0.3l-2.3,1.4C415.3,229.3,415.1,229.3,414.9,229.2z"></path>						<path class="st3" d="M407.1,233.7l-2.3-1.3c-0.2-0.1-0.2-0.2,0-0.3l2.3-1.4c0.1-0.1,0.4-0.1,0.6,0l2.3,1.3       c0.2,0.1,0.2,0.2,0,0.3l-2.3,1.4C407.5,233.8,407.3,233.8,407.1,233.7z"></path>						<path class="st3" d="M399.3,238.2l-2.3-1.3c-0.2-0.1-0.2-0.2,0-0.3l2.3-1.4c0.1-0.1,0.4-0.1,0.6,0l2.3,1.3       c0.2,0.1,0.2,0.2,0,0.3l-2.3,1.4C399.7,238.3,399.4,238.3,399.3,238.2z"></path>						<path class="st3" d="M391.5,242.7l-2.3-1.3c-0.2-0.1-0.2-0.2,0-0.3l2.3-1.4c0.1-0.1,0.4-0.1,0.6,0l2.3,1.3       c0.2,0.1,0.2,0.2,0,0.3l-2.3,1.4C391.9,242.8,391.6,242.8,391.5,242.7z"></path>					</g>					<path class="st2" d="M433.7,225.8l-16.3-9.4c-1.2-0.7-3-0.8-4-0.2L373,239.6c-1,0.6-0.9,1.5,0,2.2l40.3-23.4      c1-0.6,2.8-0.5,4,0.2l16.3,9.4c0.1,0.1,0.2,0.1,0.2,0.2l0,0C435.1,227.6,434.9,226.5,433.7,225.8z"></path>				</g>			</g>			<g>				<path class="st6" d="M382.3,289.9v-8.2c0-1.7-1-3.7-2.3-4.5L357,264.1c-1.3-0.7-2.3,0.1-2.3,1.8v8.2c0,1.7,1,3.7,2.3,4.5     l22.9,13.1C381.2,292.4,382.3,291.6,382.3,289.9z"></path>				<path class="st4" d="M354.7,265.9v8.2c0,1.7,1,3.7,2.3,4.5l22.9,13.1c0.7,0.4,1.3,0.3,1.8-0.1c-0.3,0-0.7,0-1.1-0.2l-22.9-13.1     c-1.3-0.7-2.3-2.7-2.3-4.5v-8.2c0-0.8,0.2-1.4,0.6-1.7C355.2,264,354.7,264.7,354.7,265.9z"></path>				<g>					<path class="st1" d="M373.6,282.4v-2.2c0-0.4-0.2-0.8-0.5-1l-2.1-1.2c-0.3-0.2-0.5,0-0.5,0.4v2.2c0,0.4,0.2,0.8,0.5,1l2.1,1.2      C373.3,282.9,373.6,282.8,373.6,282.4z"></path>					<path class="st4" d="M366.5,278.3v-2.2c0-0.4-0.2-0.8-0.5-1l-2.1-1.2c-0.3-0.2-0.5,0-0.5,0.4v2.2c0,0.4,0.2,0.8,0.5,1l2.1,1.2      C366.3,278.9,366.5,278.7,366.5,278.3z"></path>				</g>			</g>			<g>				<path class="st6" d="M382.3,349.2V341c0-1.7-1-3.7-2.3-4.5L357,323.4c-1.3-0.7-2.3,0.1-2.3,1.8v8.2c0,1.7,1,3.7,2.3,4.5     l22.9,13.1C381.2,351.7,382.3,350.9,382.3,349.2z"></path>				<path class="st4" d="M354.7,325.1v8.2c0,1.7,1,3.7,2.3,4.5l22.9,13.1c0.7,0.4,1.3,0.3,1.8-0.1c-0.3,0-0.7,0-1.1-0.2l-22.9-13.1     c-1.3-0.7-2.3-2.7-2.3-4.5v-8.2c0-0.8,0.2-1.4,0.6-1.7C355.2,323.2,354.7,324,354.7,325.1z"></path>				<g>					<path class="st1" d="M373.6,341.6v-2.2c0-0.4-0.2-0.8-0.5-1l-2.1-1.2c-0.3-0.2-0.5,0-0.5,0.4v2.2c0,0.4,0.2,0.8,0.5,1l2.1,1.2      C373.3,342.2,373.6,342,373.6,341.6z"></path>					<path class="st1" d="M366.5,337.6v-2.2c0-0.4-0.2-0.8-0.5-1l-2.1-1.2c-0.3-0.2-0.5,0-0.5,0.4v2.2c0,0.4,0.2,0.8,0.5,1l2.1,1.2      C366.3,338.1,366.5,337.9,366.5,337.6z"></path>				</g>			</g>			<g>				<path class="st6" d="M382.3,378.8v-8.2c0-1.7-1-3.7-2.3-4.5L357,353c-1.3-0.7-2.3,0-2.3,1.8v8.2c0,1.7,1,3.7,2.3,4.5l22.9,13.1     C381.2,381.3,382.3,380.5,382.3,378.8z"></path>				<path class="st4" d="M354.7,354.8v8.2c0,1.7,1,3.7,2.3,4.5l22.9,13.1c0.7,0.4,1.3,0.3,1.8-0.1c-0.3,0-0.7,0-1.1-0.2l-22.9-13.1     c-1.3-0.7-2.3-2.7-2.3-4.5v-8.2c0-0.8,0.2-1.4,0.6-1.7C355.2,352.9,354.7,353.6,354.7,354.8z"></path>				<g>					<path class="st4" d="M373.6,371.3V369c0-0.4-0.2-0.8-0.5-1l-2.1-1.2c-0.3-0.2-0.5,0-0.5,0.4v2.2c0,0.4,0.2,0.8,0.5,1l2.1,1.2      C373.3,371.8,373.6,371.6,373.6,371.3z"></path>					<path class="st1" d="M366.5,367.2v-2.2c0-0.4-0.2-0.8-0.5-1l-2.1-1.2c-0.3-0.2-0.5,0-0.5,0.4v2.2c0,0.4,0.2,0.8,0.5,1l2.1,1.2      C366.3,367.8,366.5,367.6,366.5,367.2z"></path>				</g>			</g>			<g>				<path class="st6" d="M382.3,319.5v-8.2c0-1.7-1-3.7-2.3-4.5L357,293.7c-1.3-0.7-2.3,0.1-2.3,1.8v8.2c0,1.7,1,3.7,2.3,4.5     l22.9,13.1C381.2,322,382.3,321.3,382.3,319.5z"></path>				<path class="st4" d="M354.7,295.5v8.2c0,1.7,1,3.7,2.3,4.5l22.9,13.1c0.7,0.4,1.3,0.3,1.8-0.1c-0.3,0-0.7,0-1.1-0.2l-22.9-13.1     c-1.3-0.7-2.3-2.7-2.3-4.5v-8.2c0-0.8,0.2-1.4,0.6-1.7C355.2,293.6,354.7,294.3,354.7,295.5z"></path>				<g>					<path class="st4" d="M373.6,312v-2.2c0-0.4-0.2-0.8-0.5-1l-2.1-1.2c-0.3-0.2-0.5,0-0.5,0.4v2.2c0,0.4,0.2,0.8,0.5,1l2.1,1.2      C373.3,312.6,373.6,312.4,373.6,312z"></path>					<path class="st4" d="M366.5,307.9v-2.2c0-0.4-0.2-0.8-0.5-1l-2.1-1.2c-0.3-0.2-0.5,0-0.5,0.4v2.2c0,0.4,0.2,0.8,0.5,1l2.1,1.2      C366.3,308.5,366.5,308.3,366.5,307.9z"></path>				</g>			</g>		</g>		<g>			<path class="st2" d="M397.7,281.7v-10.1c0-1.6,1-3.4,2.1-4.1l52.9-30.6c1.2-0.7,2.1,0,2.1,1.6v10.1c0,1.6-1,3.4-2.1,4.1    l-52.9,30.6C398.6,284,397.7,283.2,397.7,281.7z"></path>			<path class="st7" d="M400.2,278.9v-7.6c0-0.8,0.5-1.7,1.1-2.1l49.9-28.8c0.6-0.3,1.1,0,1.1,0.8v7.6c0,0.8-0.5,1.7-1.1,2.1    l-49.9,28.8C400.7,280.1,400.2,279.7,400.2,278.9z"></path>			<path class="st3" d="M439.7,252.3L439.7,252.3c0-0.8,0.5-1.7,1.1-2l7.4-4.3c0.6-0.3,1.1,0,1.1,0.8l0,0c0,0.8-0.5,1.7-1.1,2    l-7.4,4.3C440.2,253.4,439.7,253.1,439.7,252.3z"></path>			<path class="st6" d="M435.7,253.3c0.7-0.4,1.2-0.1,1.2,0.7s-0.5,1.7-1.2,2.1c-0.7,0.4-1.2,0.1-1.2-0.7S435,253.6,435.7,253.3z"></path>			<path class="st6" d="M431.4,255.7c0.7-0.4,1.2-0.1,1.2,0.7c0,0.8-0.5,1.7-1.2,2.1c-0.7,0.4-1.2,0.1-1.2-0.7    C430.2,257.1,430.7,256.1,431.4,255.7z"></path>			<path class="st3" d="M427.1,258.2c0.7-0.4,1.2-0.1,1.2,0.7s-0.5,1.7-1.2,2.1c-0.7,0.4-1.2,0.1-1.2-0.7S426.4,258.6,427.1,258.2z"></path>			<path class="st6" d="M422.8,260.7c0.7-0.4,1.2-0.1,1.2,0.7s-0.5,1.7-1.2,2.1c-0.7,0.4-1.2,0.1-1.2-0.7S422.1,261.1,422.8,260.7z"></path>			<path class="st6" d="M402.7,275v-2.6c0-0.5,0.3-1.1,0.7-1.3l2.5-1.4c0.4-0.2,0.7,0,0.7,0.5v2.6c0,0.5-0.3,1.1-0.7,1.3l-2.5,1.4    C403,275.7,402.7,275.5,402.7,275z"></path>		</g>		<g>			<path class="st2" d="M397.7,299.4v-10.1c0-1.6,1-3.4,2.1-4.1l52.9-30.6c1.2-0.7,2.1,0,2.1,1.6v10.1c0,1.6-1,3.4-2.1,4.1    l-52.9,30.6C398.6,301.7,397.7,301,397.7,299.4z"></path>			<path class="st7" d="M400.2,296.7v-7.6c0-0.8,0.5-1.7,1.1-2.1l49.9-28.8c0.6-0.4,1.1,0,1.1,0.8v7.6c0,0.8-0.5,1.7-1.1,2.1    l-49.9,28.8C400.7,297.9,400.2,297.5,400.2,296.7z"></path>			<path class="st3" d="M439.7,270.1L439.7,270.1c0-0.8,0.5-1.7,1.1-2l7.4-4.3c0.6-0.3,1.1,0,1.1,0.8l0,0c0,0.8-0.5,1.7-1.1,2    l-7.4,4.3C440.2,271.2,439.7,270.9,439.7,270.1z"></path>			<path class="st4" d="M435.7,271c0.7-0.4,1.2-0.1,1.2,0.7s-0.5,1.7-1.2,2.1c-0.7,0.4-1.2,0.1-1.2-0.7S435,271.4,435.7,271z"></path>			<path class="st6" d="M431.4,273.5c0.7-0.4,1.2-0.1,1.2,0.7s-0.5,1.7-1.2,2.1c-0.7,0.4-1.2,0.1-1.2-0.7    C430.2,274.9,430.7,273.9,431.4,273.5z"></path>			<path class="st3" d="M427.1,276c0.7-0.4,1.2-0.1,1.2,0.7s-0.5,1.7-1.2,2.1c-0.7,0.4-1.2,0.1-1.2-0.7S426.4,276.4,427.1,276z"></path>			<path class="st6" d="M422.8,278.5c0.7-0.4,1.2-0.1,1.2,0.7s-0.5,1.7-1.2,2.1c-0.7,0.4-1.2,0.1-1.2-0.7S422.1,278.9,422.8,278.5z"></path>			<path class="st6" d="M402.7,292.8v-2.6c0-0.5,0.3-1.1,0.7-1.3l2.5-1.4c0.4-0.2,0.7,0,0.7,0.5v2.6c0,0.5-0.3,1.1-0.7,1.3l-2.5,1.4    C403,293.5,402.7,293.3,402.7,292.8z"></path>		</g>		<g>			<path class="st2" d="M397.7,317.2v-10.1c0-1.6,1-3.4,2.1-4.1l52.9-30.6c1.2-0.7,2.1,0,2.1,1.6v10.1c0,1.6-1,3.4-2.1,4.1    l-52.9,30.6C398.6,319.5,397.7,318.8,397.7,317.2z"></path>			<path class="st7" d="M400.2,314.5v-7.6c0-0.8,0.5-1.7,1.1-2.1l49.9-28.8c0.6-0.4,1.1,0,1.1,0.8v7.6c0,0.8-0.5,1.7-1.1,2.1    l-49.9,28.8C400.7,315.7,400.2,315.3,400.2,314.5z"></path>			<path class="st3" d="M439.7,287.9L439.7,287.9c0-0.8,0.5-1.7,1.1-2l7.4-4.3c0.6-0.3,1.1,0,1.1,0.8l0,0c0,0.8-0.5,1.7-1.1,2    l-7.4,4.3C440.2,289,439.7,288.7,439.7,287.9z"></path>			<path class="st4" d="M435.7,288.8c0.7-0.4,1.2-0.1,1.2,0.7s-0.5,1.7-1.2,2.1c-0.7,0.4-1.2,0.1-1.2-0.7S435,289.2,435.7,288.8z"></path>			<path class="st6" d="M431.4,291.3c0.7-0.4,1.2-0.1,1.2,0.7s-0.5,1.7-1.2,2.1c-0.7,0.4-1.2,0.1-1.2-0.7    C430.2,292.7,430.7,291.7,431.4,291.3z"></path>			<path class="st3" d="M427.1,293.8c0.7-0.4,1.2-0.1,1.2,0.7s-0.5,1.7-1.2,2.1c-0.7,0.4-1.2,0.1-1.2-0.7S426.4,294.2,427.1,293.8z"></path>			<path class="st6" d="M422.8,296.3c0.7-0.4,1.2-0.1,1.2,0.7s-0.5,1.7-1.2,2.1c-0.7,0.4-1.2,0.1-1.2-0.7S422.1,296.7,422.8,296.3z"></path>			<path class="st6" d="M402.7,310.6v-2.6c0-0.5,0.3-1.1,0.7-1.3l2.5-1.5c0.4-0.2,0.7,0,0.7,0.5v2.6c0,0.5-0.3,1.1-0.7,1.3l-2.5,1.5    C403,311.3,402.7,311.1,402.7,310.6z"></path>		</g>		<g>			<path class="st2" d="M397.7,335v-10.1c0-1.6,1-3.4,2.1-4.1l52.9-30.5c1.2-0.7,2.1,0,2.1,1.6V302c0,1.6-1,3.4-2.1,4.1l-52.9,30.5    C398.6,337.3,397.7,336.6,397.7,335z"></path>			<path class="st7" d="M400.2,332.3v-7.6c0-0.8,0.5-1.7,1.1-2.1l49.9-28.8c0.6-0.4,1.1,0,1.1,0.8v7.6c0,0.8-0.5,1.7-1.1,2.1    l-49.9,28.8C400.7,333.5,400.2,333.1,400.2,332.3z"></path>			<path class="st3" d="M439.7,305.7L439.7,305.7c0-0.8,0.5-1.7,1.1-2l7.4-4.3c0.6-0.3,1.1,0,1.1,0.8l0,0c0,0.8-0.5,1.7-1.1,2    l-7.4,4.3C440.2,306.8,439.7,306.5,439.7,305.7z"></path>			<path class="st6" d="M435.7,306.6c0.7-0.4,1.2-0.1,1.2,0.7s-0.5,1.7-1.2,2.1c-0.7,0.4-1.2,0.1-1.2-0.7S435,307,435.7,306.6z"></path>			<path class="st6" d="M431.4,309.1c0.7-0.4,1.2-0.1,1.2,0.7s-0.5,1.7-1.2,2.1c-0.7,0.4-1.2,0.1-1.2-0.7    C430.2,310.4,430.7,309.5,431.4,309.1z"></path>			<path class="st3" d="M427.1,311.6c0.7-0.4,1.2-0.1,1.2,0.7s-0.5,1.7-1.2,2.1c-0.7,0.4-1.2,0.1-1.2-0.7S426.4,312,427.1,311.6z"></path>			<path class="st6" d="M422.8,314.1c0.7-0.4,1.2-0.1,1.2,0.7s-0.5,1.7-1.2,2.1c-0.7,0.4-1.2,0.1-1.2-0.7S422.1,314.5,422.8,314.1z"></path>			<path class="st3" d="M402.7,328.4v-2.6c0-0.5,0.3-1.1,0.7-1.3l2.5-1.5c0.4-0.2,0.7,0,0.7,0.5v2.6c0,0.5-0.3,1.1-0.7,1.3l-2.5,1.5    C403,329.1,402.7,328.9,402.7,328.4z"></path>		</g>		<g>			<path class="st2" d="M397.7,352.8v-10.1c0-1.6,1-3.4,2.1-4.1l52.9-30.6c1.2-0.7,2.1,0,2.1,1.6v10.1c0,1.6-1,3.4-2.1,4.1    l-52.9,30.6C398.6,355.1,397.7,354.4,397.7,352.8z"></path>			<path class="st7" d="M400.2,350.1v-7.6c0-0.8,0.5-1.7,1.1-2.1l49.9-28.8c0.6-0.4,1.1,0,1.1,0.8v7.6c0,0.8-0.5,1.7-1.1,2.1    l-49.9,28.8C400.7,351.2,400.2,350.9,400.2,350.1z"></path>			<path class="st3" d="M439.7,323.5L439.7,323.5c0-0.8,0.5-1.7,1.1-2l7.4-4.3c0.6-0.3,1.1,0,1.1,0.8l0,0c0,0.8-0.5,1.7-1.1,2    l-7.4,4.3C440.2,324.6,439.7,324.2,439.7,323.5z"></path>			<path class="st6" d="M435.7,324.4c0.7-0.4,1.2-0.1,1.2,0.7s-0.5,1.7-1.2,2.1c-0.7,0.4-1.2,0.1-1.2-0.7S435,324.8,435.7,324.4z"></path>			<path class="st4" d="M431.4,326.9c0.7-0.4,1.2-0.1,1.2,0.7s-0.5,1.7-1.2,2.1c-0.7,0.4-1.2,0.1-1.2-0.7    C430.2,328.2,430.7,327.3,431.4,326.9z"></path>			<path class="st3" d="M427.1,329.4c0.7-0.4,1.2-0.1,1.2,0.7s-0.5,1.7-1.2,2.1c-0.7,0.4-1.2,0.1-1.2-0.7S426.4,329.8,427.1,329.4z"></path>			<path class="st4" d="M422.8,331.9c0.7-0.4,1.2-0.1,1.2,0.7s-0.5,1.7-1.2,2.1c-0.7,0.4-1.2,0.1-1.2-0.7S422.1,332.3,422.8,331.9z"></path>			<path class="st3" d="M402.7,346.2v-2.6c0-0.5,0.3-1.1,0.7-1.3l2.5-1.4c0.4-0.2,0.7,0,0.7,0.5v2.6c0,0.5-0.3,1.1-0.7,1.3l-2.5,1.4    C403,346.9,402.7,346.7,402.7,346.2z"></path>		</g>		<g>			<path class="st2" d="M397.7,370.6v-10.1c0-1.6,1-3.4,2.1-4.1l52.9-30.6c1.2-0.7,2.1,0,2.1,1.6v10.1c0,1.6-1,3.4-2.1,4.1    l-52.9,30.6C398.6,372.9,397.7,372.2,397.7,370.6z"></path>			<path class="st7" d="M400.2,367.9v-7.6c0-0.8,0.5-1.7,1.1-2.1l49.9-28.8c0.6-0.4,1.1,0,1.1,0.8v7.6c0,0.8-0.5,1.7-1.1,2.1    l-49.9,28.8C400.7,369,400.2,368.7,400.2,367.9z"></path>			<path class="st3" d="M439.7,341.3L439.7,341.3c0-0.8,0.5-1.7,1.1-2l7.4-4.3c0.6-0.3,1.1,0,1.1,0.8l0,0c0,0.8-0.5,1.7-1.1,2    l-7.4,4.3C440.2,342.4,439.7,342,439.7,341.3z"></path>			<path class="st6" d="M435.7,342.2c0.7-0.4,1.2-0.1,1.2,0.7s-0.5,1.7-1.2,2.1c-0.7,0.4-1.2,0.1-1.2-0.7S435,342.6,435.7,342.2z"></path>			<path class="st6" d="M431.4,344.7c0.7-0.4,1.2-0.1,1.2,0.7s-0.5,1.7-1.2,2.1c-0.7,0.4-1.2,0.1-1.2-0.7    C430.2,346,430.7,345.1,431.4,344.7z"></path>			<path class="st3" d="M427.1,347.2c0.7-0.4,1.2-0.1,1.2,0.7s-0.5,1.7-1.2,2.1c-0.7,0.4-1.2,0.1-1.2-0.7S426.4,347.6,427.1,347.2z"></path>			<path class="st6" d="M422.8,349.7c0.7-0.4,1.2-0.1,1.2,0.7s-0.5,1.7-1.2,2.1c-0.7,0.4-1.2,0.1-1.2-0.7S422.1,350,422.8,349.7z"></path>			<path class="st6" d="M402.7,364v-2.6c0-0.5,0.3-1.1,0.7-1.3l2.5-1.5c0.4-0.2,0.7,0,0.7,0.5v2.6c0,0.5-0.3,1.1-0.7,1.3l-2.5,1.5    C403,364.7,402.7,364.4,402.7,364z"></path>		</g>		<g>			<path class="st2" d="M397.7,388.4v-10.1c0-1.6,1-3.4,2.1-4.1l52.9-30.5c1.2-0.7,2.1,0,2.1,1.6v10.1c0,1.6-1,3.4-2.1,4.1    L399.8,390C398.6,390.7,397.7,390,397.7,388.4z"></path>			<path class="st7" d="M400.2,385.7v-7.6c0-0.8,0.5-1.7,1.1-2.1l49.9-28.8c0.6-0.3,1.1,0,1.1,0.8v7.6c0,0.8-0.5,1.7-1.1,2.1    l-49.9,28.8C400.7,386.8,400.2,386.5,400.2,385.7z"></path>			<path class="st3" d="M439.7,359.1L439.7,359.1c0-0.8,0.5-1.7,1.1-2l7.4-4.3c0.6-0.3,1.1,0,1.1,0.8l0,0c0,0.8-0.5,1.7-1.1,2    l-7.4,4.3C440.2,360.2,439.7,359.8,439.7,359.1z"></path>			<path class="st4" d="M435.7,360c0.7-0.4,1.2-0.1,1.2,0.7s-0.5,1.7-1.2,2.1c-0.7,0.4-1.2,0.1-1.2-0.7S435,360.4,435.7,360z"></path>			<path class="st6" d="M431.4,362.5c0.7-0.4,1.2-0.1,1.2,0.7s-0.5,1.7-1.2,2.1c-0.7,0.4-1.2,0.1-1.2-0.7    C430.2,363.8,430.7,362.9,431.4,362.5z"></path>			<path class="st3" d="M427.1,365c0.7-0.4,1.2-0.1,1.2,0.7s-0.5,1.7-1.2,2.1c-0.7,0.4-1.2,0.1-1.2-0.7S426.4,365.3,427.1,365z"></path>			<path class="st6" d="M422.8,367.4c0.7-0.4,1.2-0.1,1.2,0.7s-0.5,1.7-1.2,2.1c-0.7,0.4-1.2,0.1-1.2-0.7S422.1,367.8,422.8,367.4z"></path>			<path class="st3" d="M402.7,381.7v-2.6c0-0.5,0.3-1.1,0.7-1.3l2.5-1.5c0.4-0.2,0.7,0,0.7,0.5v2.6c0,0.5-0.3,1.1-0.7,1.3l-2.5,1.5    C403,382.5,402.7,382.2,402.7,381.7z"></path>		</g>	</g>	<g>		<path class="st2" d="M414.4,227.2v-32.9c0-0.4,0.4-0.8,0.8-0.8s0.8,0.4,0.8,0.8v32.9c0,0.4-0.4,0.8-0.8,0.8   S414.4,227.6,414.4,227.2z"></path>		<g>			<g>				<rect x="412.3" y="192.2" class="st2" width="5.7" height="12.3"></rect>				<path class="st2" d="M413.2,203.4c1.1-0.6,2.9-0.6,4,0s1.1,1.7,0,2.3s-2.9,0.6-4,0C412.1,205.1,412.1,204,413.2,203.4z"></path>			</g>			<g>				<rect x="410.6" y="175" class="st2" width="9.3" height="19.3"></rect>				<path class="st1" d="M412.3,194.2v4.2c1.7,0.8,4,0.8,5.7,0v-4.2C416.4,193.5,414,193.5,412.3,194.2z"></path>				<path class="st2" d="M411.9,192.5c1.8-1,4.7-1,6.5,0c1.8,1,1.8,2.7,0,3.8c-1.8,1-4.7,1-6.5,0     C410.1,195.2,410.1,193.5,411.9,192.5z"></path>			</g>		</g>	</g>	<g>		<path class="st2" d="M406.6,231.8v-32.9c0-0.4,0.4-0.8,0.8-0.8s0.8,0.4,0.8,0.8v32.9c0,0.4-0.4,0.8-0.8,0.8   S406.6,232.3,406.6,231.8z"></path>		<g>			<g>				<rect x="404.5" y="196.9" class="st2" width="5.7" height="12.3"></rect>				<path class="st2" d="M405.4,208c1.1-0.6,2.9-0.6,4,0s1.1,1.7,0,2.3s-2.9,0.6-4,0C404.3,209.7,404.3,208.7,405.4,208z"></path>			</g>			<g>				<rect x="402.8" y="179.7" class="st2" width="9.3" height="19.3"></rect>				<path class="st1" d="M404.5,198.9v4.2c1.7,0.8,4,0.8,5.7,0v-4.2C408.6,198.1,406.2,198.1,404.5,198.9z"></path>				<path class="st2" d="M404.1,197.1c1.8-1,4.7-1,6.5,0c1.8,1,1.8,2.7,0,3.8c-1.8,1-4.7,1-6.5,0     C402.3,199.9,402.3,198.2,404.1,197.1z"></path>			</g>		</g>	</g>	<g>		<path class="st2" d="M398.8,236.5v-32.9c0-0.4,0.4-0.8,0.8-0.8s0.8,0.4,0.8,0.8v32.9c0,0.4-0.4,0.8-0.8,0.8   S398.8,236.9,398.8,236.5z"></path>		<g>			<g>				<rect x="396.7" y="201.5" class="st2" width="5.7" height="12.3"></rect>				<path class="st2" d="M397.6,212.7c1.1-0.6,2.9-0.6,4,0s1.1,1.7,0,2.3s-2.9,0.6-4,0C396.4,214.4,396.4,213.3,397.6,212.7z"></path>			</g>			<g>				<rect x="394.9" y="184.4" class="st2" width="9.3" height="19.3"></rect>				<path class="st1" d="M396.7,203.6v4.2c1.7,0.8,4,0.8,5.7,0v-4.2C400.8,202.8,398.4,202.8,396.7,203.6z"></path>				<path class="st2" d="M396.3,201.8c1.8-1,4.7-1,6.5,0c1.8,1,1.8,2.7,0,3.8c-1.8,1-4.7,1-6.5,0     C394.5,204.5,394.5,202.8,396.3,201.8z"></path>			</g>		</g>	</g>	<g>		<path class="st2" d="M391,241.2v-32.9c0-0.4,0.4-0.8,0.8-0.8s0.8,0.4,0.8,0.8v32.9c0,0.4-0.4,0.8-0.8,0.8   C391.3,242,391,241.6,391,241.2z"></path>		<g>			<g>				<rect x="388.9" y="206.2" class="st2" width="5.7" height="12.3"></rect>				<path class="st2" d="M389.8,217.4c1.1-0.6,2.9-0.6,4,0s1.1,1.7,0,2.3s-2.9,0.6-4,0S388.6,218,389.8,217.4z"></path>			</g>			<g>				<rect x="387.1" y="189" class="st2" width="9.3" height="19.3"></rect>				<path class="st1" d="M388.9,208.2v4.2c1.7,0.8,4,0.8,5.7,0v-4.2C393,207.5,390.6,207.5,388.9,208.2z"></path>				<path class="st2" d="M388.5,206.5c1.8-1,4.7-1,6.5,0c1.8,1,1.8,2.7,0,3.8c-1.8,1-4.7,1-6.5,0     C386.7,209.2,386.7,207.5,388.5,206.5z"></path>			</g>		</g>	</g>	<g>		<g>			<polygon class="st2" points="358,207.4 354.9,202.3 343.1,217.1 355.5,224.4    "></polygon>			<path class="st2" d="M437.9,146.9c0,0-11.4-3.5-11.4-3.5c0,0-0.8-11.4-0.8-11.4l19.8,11.4L437.9,146.9z"></path>			<path class="st2" d="M339.5,209c0,8,5.6,11.2,12.5,7.2l62.2-44.4c9.2-5.3,16.7-18.3,16.7-28.9c0-5.8-2.2-9.7-5.7-11.2l3.9-3.1    l-11.7-6.9c-0.1,0-0.2-0.1-0.3-0.2l-0.2-0.1v0c-3.8-2-8.9-1.6-14.5,1.6c-10.7,6.2-19.6,20.7-20.8,33.4c-2.3,0.2-4.8,1-7.4,2.5    c-8.7,5-16,16.2-18,26.7c-1.3,0.2-2.8,0.7-4.3,1.6C345.1,191.3,339.5,201,339.5,209z"></path>			<path class="st2" d="M425.2,131.7l3.9-3.1l-11.7-6.9c-0.1-0.1-0.2-0.1-0.3-0.2l-0.2-0.1v0c-3.5-1.9-8.2-1.6-13.4,1.1l26.8,15.7    C429.5,135,427.6,132.8,425.2,131.7z"></path>			<path class="st2" d="M401.2,172.5L376.3,158c-0.6,0.3-1.3,0.6-2,1c-5.1,3-9.7,8-13.1,13.8l19.6,11.5L401.2,172.5z"></path>			<path class="st3" d="M408.1,120.8c-1.8,0.5-3.6,1.2-5.6,2.3c-1.2,0.7-2.4,1.5-3.6,2.4l16,9.4l8.7-5L408.1,120.8z"></path>			<path class="st3" d="M359.4,176.3l14.2,8.4l5.4-6.1l-15.6-9.2C361.9,171.6,360.5,173.9,359.4,176.3z"></path>			<path class="st3" d="M351.7,216.2c0,8,5.6,11.2,12.5,7.2l69.7-40.2c9.2-5.3,16.7-18.3,16.7-28.9c0-10-6.6-14.4-15-10.5    c0-0.5,0-0.9,0-1.4c0-13.3-9.4-18.8-20.9-12.1c-10.7,6.2-19.6,20.7-20.8,33.4c-2.3,0.2-4.8,1-7.4,2.5c-8.7,5-16,16.2-18,26.7    c-1.3,0.2-2.8,0.7-4.3,1.6C357.4,198.5,351.8,208.2,351.7,216.2z"></path>			<g>				<path class="st4" d="M446.9,144.2c-2.5-2.9-6.5-3.7-11.2-1.9c0,0,0,0,0,0.1c0,0.4,0,0.9,0,1.4     C440.2,141.7,444.1,142,446.9,144.2z"></path>				<path class="st4" d="M350.7,215.2c0,3.6,1.1,6.2,3,7.7c-1.3-1.5-2-3.8-2-6.7c0-8,5.6-17.7,12.5-21.7c1.5-0.9,3-1.4,4.3-1.6     c2-10.5,9.3-21.7,18-26.7c2.6-1.5,5.1-2.3,7.4-2.5c1.2-12.7,10-27.2,20.8-33.4c6.6-3.8,12.5-3.7,16.3-0.4     c-3.8-4.2-10.1-4.8-17.3-0.6c-10.7,6.2-19.6,20.7-20.8,33.4c-2.3,0.2-4.8,1-7.4,2.5c-8.7,5-16,16.2-18,26.7     c-1.3,0.2-2.8,0.7-4.3,1.6C356.3,197.5,350.7,207.2,350.7,215.2z"></path>			</g>			<g>				<path class="st1" d="M441.4,145.9c1.1,0,2,0.2,2.8,0.7c1.9,1.2,3,4,3,7.7c0,9.4-6.9,21.2-15,25.9l-69.7,40.2     c-2.2,1.3-4.1,1.6-5.4,0.9c-1.2-0.7-1.9-2.6-1.9-5.1c0-6.8,4.9-15.3,10.8-18.7c1.1-0.6,2.1-1,3.1-1.2l2.4-0.4l0.5-2.4     c1.8-9.7,8.7-19.9,16.3-24.3c2.1-1.2,4.1-1.9,5.9-2l2.9-0.2l0.3-2.9c1.1-11.7,9.5-25.1,19-30.7c4.5-2.6,8.5-3.1,11.3-1.5     c2.8,1.6,4.4,5.4,4.4,10.5c0,0.4,0,0.8,0,1.2l-0.3,5.8l5.2-2.4C438.7,146.2,440.1,145.9,441.4,145.9z"></path>			</g>		</g>		<g>			<polygon class="st2" points="402.3,188.3 400.5,189.7 402.3,190.6    "></polygon>			<polygon class="st2" points="406,165.8 406.1,164.9 407.9,165.8    "></polygon>			<polygon class="st2" points="398.8,180.5 395.2,183.9 397.1,184.8    "></polygon>			<g>				<path class="st2" d="M400.2,189.1l0-10.1l10.3-6.1l0,10.1c0,0.5-0.4,1.2-0.8,1.5l-8.7,5.1C400.6,189.9,400.2,189.7,400.2,189.1z     "></path>				<path class="st2" d="M404.5,165.8l-9.3,17.1c-0.4,0.7-0.1,1.3,0.5,0.9l9.6-5.7l9.6-5.6c0.6-0.4,0.9-1.3,0.5-1.6l-9.4-6.1     C405.7,164.7,405,165.1,404.5,165.8z"></path>			</g>			<g>				<path class="st3" d="M402.1,190.1l0-10.1l10.3-6.1l0,10.1c0,0.5-0.4,1.2-0.8,1.5l-8.7,5.1C402.5,190.9,402.1,190.6,402.1,190.1z     "></path>				<path class="st3" d="M406.4,166.8l-9.3,17.1c-0.4,0.7-0.1,1.3,0.5,0.9l9.6-5.6l9.6-5.7c0.6-0.4,0.9-1.3,0.5-1.6l-9.4-6.1     C407.5,165.6,406.8,166,406.4,166.8z"></path>			</g>		</g>	</g>	<polygon class="st4" points="371.5,310.3 364.4,306.2 364.4,276.3 365.5,276.3 365.5,305.6 372.5,309.7 372.5,369.2 371.5,369.2    "></polygon>	<g>		<path class="st0" d="M538.6,381.5l-8.2-5.3l0.9-1.3l8.2,5.3c0.6,0.4,1.5,0.4,2.1,0.1l19.4-11c0.1-0.1,0.1-0.2,0.1-0.2   c0-0.1,0-0.2-0.1-0.2l-48.5-28c-2.3-1.3-5.1-1.3-7.4,0l-55.4,32l-0.8-1.4l55.4-32c2.8-1.6,6.2-1.6,9,0l48.5,28   c0.6,0.3,0.9,0.9,0.9,1.6c0,0.7-0.4,1.3-1,1.6l-19.4,11c-0.6,0.3-1.2,0.5-1.8,0.5C539.9,382.1,539.2,381.9,538.6,381.5z"></path>	</g>	<g>		<path class="st0" d="M509,386.1l-25.2-14.6c-1.9-1.1-2.1-2.7-0.5-3.6l26.1-15.1c1.6-0.9,4.4-0.8,6.3,0.3l25.2,14.6   c1.9,1.1,2.1,2.7,0.5,3.6l-26.1,15.1C513.6,387.3,510.8,387.2,509,386.1z"></path>		<g>			<path class="st1" d="M476.5,359.1l31.6,18.2c2.3,1.3,5.8,1.5,7.8,0.3l32.7-18.9c1-0.6,1.4-1.3,1.4-2.1v-11.6l-25.3,0l-8.2-4.7    c-2.3-1.3-5.8-1.5-7.8-0.3l-8.8,5.1l-25.3,0v11.3l0,0C474.6,357.4,475.2,358.4,476.5,359.1z"></path>			<path class="st1" d="M512.3,339.3v39.2c1.4,0,2.7-0.2,3.6-0.8l32.7-18.9c1-0.6,1.4-1.3,1.4-2.1v-11.6l-25.3,0l-8.2-4.7    C515.3,339.7,513.8,339.3,512.3,339.3L512.3,339.3z"></path>			<path class="st2" d="M547.2,359.7l1.5-0.9c1-0.6,1.4-1.3,1.3-2.1v-11.6h-2.9V359.7z"></path>			<path class="st2" d="M515.5,364.7h-6.3v13.2c2,0.8,4.5,0.8,6.3,0.1V364.7z"></path>			<path class="st3" d="M508.2,365.8l-31.6-18.2c-2.3-1.3-2.6-3.4-0.6-4.5l32.7-18.9c2-1.2,5.5-1,7.8,0.3l31.6,18.2    c2.3,1.3,2.6,3.4,0.6,4.5L516,366.1C514,367.3,510.5,367.1,508.2,365.8z"></path>			<path class="st2" d="M508.8,362.5l-26.5-15.3c-1.9-1.1-2.1-2.8-0.5-3.8l27.4-15.8c1.7-1,4.6-0.9,6.6,0.3l26.5,15.3    c1.9,1.1,2.2,2.8,0.5,3.8l-27.4,15.8C513.7,363.7,510.8,363.6,508.8,362.5z"></path>			<g>				<path class="st3" d="M488,358.7c0.7,0.4,1.3,1.5,1.3,2.3s-0.6,1.2-1.3,0.8s-1.3-1.5-1.3-2.3S487.3,358.2,488,358.7z"></path>				<path class="st3" d="M483.8,356.2c0.7,0.4,1.3,1.5,1.3,2.3s-0.6,1.2-1.3,0.8s-1.3-1.5-1.3-2.3     C482.4,356.1,483,355.8,483.8,356.2z"></path>				<path class="st3" d="M479.5,353.7c0.7,0.4,1.3,1.5,1.3,2.3s-0.6,1.2-1.3,0.8s-1.3-1.5-1.3-2.3S478.8,353.3,479.5,353.7z"></path>			</g>		</g>		<g>			<path class="st1" d="M476.5,341.1l31.6,18.2c2.3,1.3,5.8,1.5,7.8,0.3l32.7-18.9c1-0.6,1.4-1.3,1.4-2.1v-11.6l-25.3,0l-8.2-4.7    c-2.3-1.3-5.8-1.5-7.8-0.3l-8.8,5l-25.3,0v11.3l0,0C474.6,339.3,475.2,340.3,476.5,341.1z"></path>			<path class="st1" d="M512.3,321.3v39.2c1.4,0,2.7-0.2,3.6-0.8l32.7-18.9c1-0.6,1.4-1.3,1.4-2.1v-11.6l-25.3,0l-8.2-4.7    C515.3,321.7,513.8,321.3,512.3,321.3L512.3,321.3z"></path>			<path class="st2" d="M547.2,341.7l1.5-0.9c1-0.6,1.4-1.3,1.3-2.1v-11.6h-2.9V341.7z"></path>			<path class="st2" d="M515.5,346.7h-6.3v13.2c2,0.8,4.5,0.8,6.3,0.1V346.7z"></path>			<path class="st3" d="M508.2,347.8l-31.6-18.2c-2.3-1.3-2.6-3.4-0.6-4.5l32.7-18.9c2-1.2,5.5-1,7.8,0.3l31.6,18.2    c2.3,1.3,2.6,3.4,0.6,4.5L516,348.1C514,349.3,510.5,349.1,508.2,347.8z"></path>			<path class="st2" d="M508.8,344.4l-26.5-15.3c-1.9-1.1-2.1-2.8-0.5-3.8l27.4-15.8c1.7-1,4.6-0.9,6.6,0.3l26.5,15.3    c1.9,1.1,2.2,2.8,0.5,3.8l-27.4,15.8C513.7,345.7,510.8,345.5,508.8,344.4z"></path>			<g>				<path class="st3" d="M488,340.6c0.7,0.4,1.3,1.5,1.3,2.3s-0.6,1.2-1.3,0.8c-0.7-0.4-1.3-1.4-1.3-2.3S487.3,340.2,488,340.6z"></path>				<path class="st3" d="M483.8,338.2c0.7,0.4,1.3,1.5,1.3,2.3s-0.6,1.2-1.3,0.8c-0.7-0.4-1.3-1.4-1.3-2.3S483,337.7,483.8,338.2z"></path>				<path class="st3" d="M479.5,335.7c0.7,0.4,1.3,1.4,1.3,2.3s-0.6,1.2-1.3,0.8c-0.7-0.4-1.3-1.5-1.3-2.3S478.8,335.3,479.5,335.7z     "></path>			</g>		</g>		<g>			<path class="st1" d="M476.5,323.1l31.6,18.2c2.3,1.3,5.8,1.5,7.8,0.3l32.7-18.9c1-0.6,1.4-1.3,1.4-2.1V309l-25.3,0l-8.2-4.7    c-2.3-1.3-5.8-1.5-7.8-0.3l-8.8,5.1l-25.3,0v11.3l0,0C474.6,321.3,475.2,322.3,476.5,323.1z"></path>			<path class="st1" d="M512.3,303.2v39.2c1.4,0,2.7-0.2,3.6-0.8l32.7-18.9c1-0.6,1.4-1.3,1.4-2.1V309l-25.3,0l-8.2-4.7    C515.3,303.6,513.8,303.3,512.3,303.2L512.3,303.2z"></path>			<path class="st2" d="M547.2,323.6l1.5-0.9c1-0.6,1.4-1.3,1.3-2.1V309h-2.9V323.6z"></path>			<path class="st2" d="M515.5,328.6h-6.3v13.2c2,0.8,4.5,0.8,6.3,0.1V328.6z"></path>			<path class="st3" d="M508.2,329.7l-31.6-18.2c-2.3-1.3-2.6-3.4-0.6-4.5l32.7-18.9c2-1.2,5.5-1,7.8,0.3l31.6,18.2    c2.3,1.3,2.6,3.4,0.6,4.5L516,330.1C514,331.2,510.5,331.1,508.2,329.7z"></path>			<path class="st4" d="M475,307.9c-0.8,1.1-0.2,2.6,1.6,3.6l31.6,18.2c2.3,1.3,5.8,1.5,7.8,0.3l32.7-18.9c1.4-0.8,1.7-2,1-3.1    c-0.2,0.3-0.5,0.6-1,0.9L516,327.8c-2,1.2-5.5,1-7.8-0.3l-31.6-18.2C475.8,308.8,475.3,308.4,475,307.9z"></path>			<g>				<path class="st3" d="M488,322.6c0.7,0.4,1.3,1.4,1.3,2.3s-0.6,1.2-1.3,0.8c-0.7-0.4-1.3-1.5-1.3-2.3     C486.7,322.5,487.3,322.2,488,322.6z"></path>				<path class="st3" d="M483.8,320.1c0.7,0.4,1.3,1.5,1.3,2.3s-0.6,1.2-1.3,0.8c-0.7-0.4-1.3-1.4-1.3-2.3S483,319.7,483.8,320.1z"></path>				<path class="st3" d="M479.5,317.7c0.7,0.4,1.3,1.4,1.3,2.3s-0.6,1.2-1.3,0.8c-0.7-0.4-1.3-1.5-1.3-2.3     C478.2,317.6,478.8,317.2,479.5,317.7z"></path>			</g>			<g>				<path class="st2" d="M510.4,318.2l-14.8-8.5c-1.1-0.6-1.2-1.6-0.3-2.1l15.3-8.8c0.9-0.5,2.6-0.5,3.7,0.1l14.8,8.5     c1.1,0.6,1.2,1.6,0.3,2.1l-15.3,8.8C513.1,318.9,511.5,318.8,510.4,318.2z"></path>				<path class="st3" d="M512.1,310.9l-2.1-1.2c-0.1-0.1-0.2-0.2,0-0.3l2.1-1.2c0.1-0.1,0.4-0.1,0.5,0l2,1.2c0.2,0.1,0.2,0.2,0,0.3     l-2.1,1.2C512.5,311,512.2,311,512.1,310.9z"></path>				<path class="st1" d="M529.1,307.4l-14.8-8.5c-1.1-0.6-2.7-0.7-3.7-0.1l-15.3,8.8c-0.9,0.5-0.8,1.4,0,2l15.3-8.8     c0.9-0.5,2.6-0.5,3.7,0.1l14.8,8.5c0.1,0,0.1,0.1,0.2,0.1l0,0C530.3,309,530.2,308,529.1,307.4z"></path>			</g>		</g>		<g>			<path class="st3" d="M519,331.8c0.5-0.3,0.9-0.1,0.9,0.5c0,0.6-0.4,1.3-0.9,1.5c-0.5,0.3-0.9,0.1-0.9-0.5S518.5,332.1,519,331.8z    "></path>			<path class="st3" d="M521.7,330.2c0.5-0.3,0.9-0.1,0.9,0.5s-0.4,1.3-0.9,1.5c-0.5,0.3-0.9,0.1-0.9-0.5    C520.9,331.2,521.2,330.5,521.7,330.2z"></path>			<path class="st3" d="M519,335.1c0.5-0.3,0.9-0.1,0.9,0.5c0,0.6-0.4,1.3-0.9,1.5c-0.5,0.3-0.9,0.1-0.9-0.5S518.5,335.4,519,335.1z    "></path>			<path class="st3" d="M521.7,333.6c0.5-0.3,0.9-0.1,0.9,0.5c0,0.6-0.4,1.3-0.9,1.5c-0.5,0.3-0.9,0.1-0.9-0.5    C520.9,334.5,521.2,333.8,521.7,333.6z"></path>		</g>		<g>			<path class="st3" d="M519,349.8c0.5-0.3,0.9-0.1,0.9,0.5s-0.4,1.3-0.9,1.5c-0.5,0.3-0.9,0.1-0.9-0.5    C518.1,350.7,518.5,350,519,349.8z"></path>			<path class="st3" d="M521.7,348.2c0.5-0.3,0.9-0.1,0.9,0.5s-0.4,1.3-0.9,1.5c-0.5,0.3-0.9,0.1-0.9-0.5S521.2,348.5,521.7,348.2z"></path>			<path class="st3" d="M519,353.1c0.5-0.3,0.9-0.1,0.9,0.5s-0.4,1.3-0.9,1.5c-0.5,0.3-0.9,0.1-0.9-0.5S518.5,353.4,519,353.1z"></path>			<path class="st3" d="M521.7,351.5c0.5-0.3,0.9-0.1,0.9,0.5s-0.4,1.3-0.9,1.5c-0.5,0.3-0.9,0.1-0.9-0.5    C520.9,352.5,521.2,351.8,521.7,351.5z"></path>		</g>		<g>			<path class="st3" d="M519,367.7c0.5-0.3,0.9-0.1,0.9,0.5s-0.4,1.3-0.9,1.5c-0.5,0.3-0.9,0.1-0.9-0.5S518.5,368,519,367.7z"></path>			<path class="st3" d="M521.7,366.1c0.5-0.3,0.9-0.1,0.9,0.5s-0.4,1.3-0.9,1.5c-0.5,0.3-0.9,0.1-0.9-0.5S521.2,366.4,521.7,366.1z"></path>			<path class="st3" d="M519,371c0.5-0.3,0.9-0.1,0.9,0.5s-0.4,1.3-0.9,1.5c-0.5,0.3-0.9,0.1-0.9-0.5C518.1,372,518.5,371.3,519,371    z"></path>			<path class="st3" d="M521.7,369.5c0.5-0.3,0.9-0.1,0.9,0.5s-0.4,1.3-0.9,1.5c-0.5,0.3-0.9,0.1-0.9-0.5S521.2,369.7,521.7,369.5z"></path>		</g>	</g>	<path class="st0" d="M509.3,399.1L477,380.7c-1.2-0.7-2.6-0.7-3.8,0l-27,15.6c-1.7,1-3.7,1-5.4,0l-13-7.5l0.8-1.4l13,7.5  c1.2,0.7,2.6,0.7,3.8,0l27-15.6c1.7-1,3.7-1,5.4,0l32.3,18.4c1.2,0.7,2.6,0.7,3.8,0l16.5-9.6c0.1-0.1,0.1-0.1,0.1-0.2  c0-0.1,0-0.1-0.1-0.2l-10.8-6.3l0.8-1.4l10.8,6.3c0.6,0.3,0.9,0.9,0.9,1.5s-0.3,1.2-0.9,1.5l-16.5,9.6c-0.8,0.5-1.8,0.7-2.7,0.7  C511,399.8,510.1,399.6,509.3,399.1z"></path>	<g>		<path class="st0" d="M362.4,460.4l-25.2-14.6c-1.9-1.1-2.1-2.7-0.5-3.6l26.1-15.1c1.6-0.9,4.4-0.8,6.3,0.3l25.2,14.6   c1.9,1.1,2.1,2.7,0.5,3.6l-26.1,15.1C367.1,461.6,364.3,461.5,362.4,460.4z"></path>		<g>			<path class="st1" d="M330,433.4l31.6,18.2c2.3,1.3,5.8,1.5,7.8,0.3l32.7-18.9c1-0.6,1.4-1.3,1.4-2.1v-11.6l-25.3,0l-8.2-4.7    c-2.3-1.3-5.8-1.5-7.8-0.3l-8.8,5l-25.3,0v11.3l0,0C328,431.7,328.7,432.7,330,433.4z"></path>			<path class="st1" d="M365.8,413.6v39.2c1.4,0,2.7-0.2,3.6-0.8l32.7-18.9c1-0.6,1.4-1.3,1.4-2.1v-11.6l-25.3,0l-8.2-4.7    C368.8,414,367.3,413.6,365.8,413.6L365.8,413.6z"></path>			<path class="st2" d="M400.6,434l1.5-0.9c1-0.6,1.4-1.3,1.4-2.1v-11.6h-2.9V434z"></path>			<path class="st2" d="M368.9,439h-6.3v13.2c2,0.8,4.5,0.8,6.3,0.1V439z"></path>			<path class="st3" d="M361.6,440.1L330,421.9c-2.3-1.3-2.6-3.4-0.6-4.5l32.7-18.9c2-1.2,5.5-1,7.8,0.3l31.6,18.2    c2.3,1.3,2.6,3.4,0.6,4.5l-32.7,18.9C367.4,441.6,363.9,441.4,361.6,440.1z"></path>			<path class="st2" d="M362.3,436.8l-26.5-15.3c-1.9-1.1-2.1-2.8-0.5-3.8l27.4-15.8c1.7-1,4.6-0.9,6.6,0.3l26.5,15.3    c1.9,1.1,2.1,2.8,0.5,3.8L368.8,437C367.2,438,364.2,437.9,362.3,436.8z"></path>			<g>				<path class="st3" d="M341.4,433c0.7,0.4,1.3,1.5,1.3,2.3s-0.6,1.2-1.3,0.8s-1.3-1.5-1.3-2.3S340.7,432.5,341.4,433z"></path>				<path class="st3" d="M337.2,430.5c0.7,0.4,1.3,1.5,1.3,2.3s-0.6,1.2-1.3,0.8s-1.3-1.5-1.3-2.3S336.5,430.1,337.2,430.5z"></path>				<path class="st3" d="M332.9,428c0.7,0.4,1.3,1.5,1.3,2.3s-0.6,1.2-1.3,0.8s-1.3-1.5-1.3-2.3S332.2,427.6,332.9,428z"></path>			</g>		</g>		<g>			<path class="st1" d="M330,415.4l31.6,18.2c2.3,1.3,5.8,1.5,7.8,0.3l32.7-18.9c1-0.6,1.4-1.3,1.4-2.1v-11.6l-25.3,0l-8.2-4.7    c-2.3-1.3-5.8-1.5-7.8-0.3l-8.8,5l-25.3,0v11.3l0,0C328,413.6,328.7,414.6,330,415.4z"></path>			<path class="st1" d="M365.8,395.6v39.2c1.4,0,2.7-0.2,3.6-0.8l32.7-18.9c1-0.6,1.4-1.3,1.4-2.1v-11.6l-25.3,0l-8.2-4.7    C368.8,396,367.3,395.6,365.8,395.6L365.8,395.6z"></path>			<path class="st2" d="M400.6,416l1.5-0.9c1-0.6,1.4-1.3,1.4-2.1v-11.6h-2.9V416z"></path>			<path class="st2" d="M368.9,421h-6.3v13.2c2,0.8,4.5,0.8,6.3,0.1V421z"></path>			<path class="st3" d="M361.6,422.1L330,403.8c-2.3-1.3-2.6-3.4-0.6-4.5l32.7-18.9c2-1.2,5.5-1,7.8,0.3l31.6,18.2    c2.3,1.3,2.6,3.4,0.6,4.5l-32.7,18.9C367.4,423.6,363.9,423.4,361.6,422.1z"></path>			<path class="st2" d="M362.3,418.7l-26.5-15.3c-1.9-1.1-2.1-2.8-0.5-3.8l27.4-15.8c1.7-1,4.6-0.9,6.6,0.3l26.5,15.3    c1.9,1.1,2.1,2.8,0.5,3.8L368.8,419C367.2,420,364.2,419.8,362.3,418.7z"></path>			<g>				<path class="st3" d="M341.4,414.9c0.7,0.4,1.3,1.5,1.3,2.3s-0.6,1.2-1.3,0.8s-1.3-1.5-1.3-2.3     C340.1,414.8,340.7,414.5,341.4,414.9z"></path>				<path class="st3" d="M337.2,412.5c0.7,0.4,1.3,1.5,1.3,2.3s-0.6,1.2-1.3,0.8s-1.3-1.5-1.3-2.3S336.5,412,337.2,412.5z"></path>				<path class="st3" d="M332.9,410c0.7,0.4,1.3,1.5,1.3,2.3s-0.6,1.2-1.3,0.8s-1.3-1.5-1.3-2.3S332.2,409.6,332.9,410z"></path>			</g>		</g>		<g>			<path class="st1" d="M330,397.4l31.6,18.2c2.3,1.3,5.8,1.5,7.8,0.3l32.7-18.9c1-0.6,1.4-1.3,1.4-2.1v-11.6l-25.3,0l-8.2-4.7    c-2.3-1.3-5.8-1.5-7.8-0.3l-8.8,5l-25.3,0v11.3l0,0C328,395.6,328.7,396.6,330,397.4z"></path>			<path class="st1" d="M365.8,377.5v39.2c1.4,0,2.7-0.2,3.6-0.8l32.7-18.9c1-0.6,1.4-1.3,1.4-2.1v-11.6l-25.3,0l-8.2-4.7    C368.8,377.9,367.3,377.6,365.8,377.5L365.8,377.5z"></path>			<path class="st2" d="M400.6,397.9l1.5-0.9c1-0.6,1.4-1.3,1.4-2.1v-11.6h-2.9V397.9z"></path>			<path class="st2" d="M368.9,402.9h-6.3v13.2c2,0.8,4.5,0.8,6.3,0.1V402.9z"></path>			<path class="st3" d="M361.6,404L330,385.8c-2.3-1.3-2.6-3.4-0.6-4.5l32.7-18.9c2-1.2,5.5-1,7.8,0.3l31.6,18.2    c2.3,1.3,2.6,3.4,0.6,4.5l-32.7,18.9C367.4,405.5,363.9,405.4,361.6,404z"></path>			<path class="st4" d="M328.4,382.2c-0.8,1.1-0.2,2.6,1.6,3.6l31.6,18.2c2.3,1.3,5.8,1.5,7.8,0.3l32.7-18.9c1.4-0.8,1.7-2,1-3.1    c-0.2,0.3-0.5,0.6-1,0.9l-32.7,18.9c-2,1.2-5.5,1-7.8-0.3L330,383.6C329.3,383.1,328.8,382.7,328.4,382.2z"></path>			<g>				<path class="st3" d="M341.4,396.9c0.7,0.4,1.3,1.5,1.3,2.3s-0.6,1.2-1.3,0.8s-1.3-1.5-1.3-2.3     C340.1,396.8,340.7,396.4,341.4,396.9z"></path>				<path class="st3" d="M337.2,394.4c0.7,0.4,1.3,1.5,1.3,2.3s-0.6,1.2-1.3,0.8s-1.3-1.5-1.3-2.3     C335.9,394.3,336.5,394,337.2,394.4z"></path>				<path class="st3" d="M332.9,392c0.7,0.4,1.3,1.5,1.3,2.3s-0.6,1.2-1.3,0.8s-1.3-1.5-1.3-2.3C331.6,391.9,332.2,391.5,332.9,392z     "></path>			</g>			<g>				<path class="st2" d="M363.8,392.5L349,384c-1.1-0.6-1.2-1.6-0.3-2.1l15.3-8.8c0.9-0.5,2.6-0.5,3.7,0.1l14.8,8.5     c1.1,0.6,1.2,1.6,0.3,2.1l-15.3,8.8C366.6,393.2,364.9,393.1,363.8,392.5z"></path>				<path class="st3" d="M365.5,385.2l-2-1.2c-0.1-0.1-0.2-0.2,0-0.3l2.1-1.2c0.1-0.1,0.4-0.1,0.5,0l2,1.2c0.1,0.1,0.2,0.2,0,0.3     l-2.1,1.2C365.9,385.3,365.7,385.3,365.5,385.2z"></path>				<path class="st1" d="M382.5,381.7l-14.8-8.5c-1.1-0.6-2.7-0.7-3.7-0.1l-15.3,8.8c-0.9,0.5-0.8,1.4,0,2l15.3-8.8     c0.9-0.5,2.6-0.5,3.7,0.1l14.8,8.5c0.1,0,0.1,0.1,0.2,0.1l0,0C383.7,383.3,383.6,382.3,382.5,381.7z"></path>			</g>		</g>	</g>	<path class="st3" d="M417,200.9c0.5-0.3,0.9-0.1,0.9,0.5c0,0.6-0.4,1.3-0.9,1.5c-0.5,0.3-0.9,0.1-0.9-0.5  C416.1,201.8,416.5,201.1,417,200.9z"></path>	<path class="st3" d="M409.1,205.6c0.5-0.3,0.9-0.1,0.9,0.5c0,0.6-0.4,1.3-0.9,1.5c-0.5,0.3-0.9,0.1-0.9-0.5  C408.2,206.6,408.6,205.9,409.1,205.6z"></path>	<path class="st3" d="M401.3,210.4c0.5-0.3,0.9-0.1,0.9,0.5c0,0.6-0.4,1.3-0.9,1.5c-0.5,0.3-0.9,0.1-0.9-0.5  C400.4,211.3,400.8,210.6,401.3,210.4z"></path>	<path class="st3" d="M393.5,215.1c0.5-0.3,0.9-0.1,0.9,0.5c0,0.6-0.4,1.3-0.9,1.5c-0.5,0.3-0.9,0.1-0.9-0.5  C392.6,216.1,393,215.4,393.5,215.1z"></path></g></svg>