<svg xmlns="http://www.w3.org/2000/svg" viewBox="0 0 4603.55 4153.2"><defs><style>.d{fill:#f7f7f7;}.e{fill:#f9f9f7;}.f{fill:#6a79bb;}.g{fill:#020202;}.h{fill:#eb9f3f;}.i{fill:#fcfcfc;}.j{fill:#fff;}.k{fill:#fffffd;}.l{fill:#ff0c00;}.m{fill:#30353b;}.n{fill:#cf9e76;}.o{fill:#b08874;}.p{fill:#e01d2f;}.q{fill:#e2dfb4;}.r{fill:#13885c;}.s{fill:#1e1e1e;}.t{fill:#191919;}.u{fill:#15d9fd;}.v{fill:#3f3f3f;}.w{fill:#2d2d2d;}.x{fill:#4f575e;}</style></defs><g id="a"></g><g id="b"><path class="v" d="M2815.74,2327.48h-467.56s-7.23,237.77-160.64,336.59c0,0,111.88,72.95,394.62,63.84,282.74,9.11,394.42-63.84,394.42-63.84-153.42-98.81-160.84-336.59-160.84-336.59Z"></path><path class="s" d="M639.31,2270.61c-36.09-5.8-65.61-40.46-65.61-77.01V66.45c0-36.55,29.9-66.45,66.45-66.45h3896.94c36.55,0,66.45,29.9,66.45,66.45V2193.6c0,36.55-29.59,70.75-65.76,76,0,0-675.48,98.1-1949.16,98.1-1345.67,0-1949.31-97.1-1949.31-97.1Z"></path><circle class="q" cx="2588.93" cy="2222.27" r="56.63" transform="translate(-653.36 1159.9) rotate(-22.5)"></circle><g><g><path class="s" d="M2588.95,2262.26c-.45,0-.91,0-1.36-.03-9.19-.36-17.63-4.21-23.75-10.84-5.83-6.32-8.86-14.47-8.5-22.94,.43-10.43,6.08-20.09,15.1-25.85,.32-.21,.75-.11,.96,.21,.21,.32,.11,.75-.21,.96-8.64,5.51-14.05,14.76-14.46,24.73-.34,8.1,2.55,15.89,8.14,21.94,5.87,6.36,13.96,10.05,22.78,10.4,17.75,.69,32.79-12.7,33.5-29.84,.46-11.13-5.34-21.72-15.13-27.64-.33-.2-.43-.63-.24-.95,.2-.33,.63-.43,.95-.24,10.23,6.18,16.28,17.25,15.8,28.89-.72,17.47-15.66,31.2-33.58,31.2Z"></path><path class="s" d="M2588.95,2265.38h0c-.49,0-.99,0-1.49-.03-10.02-.39-19.23-4.59-25.92-11.84-6.4-6.94-9.71-15.88-9.33-25.18,.47-11.45,6.66-22.04,16.54-28.35,.86-.55,1.88-.73,2.88-.51,1,.22,1.85,.82,2.39,1.68,.55,.85,.73,1.88,.51,2.87-.22,1-.81,1.85-1.67,2.4-7.78,4.96-12.65,13.27-13.02,22.23-.3,7.26,2.3,14.26,7.31,19.69,5.31,5.75,12.62,9.08,20.61,9.39,16.06,.6,29.62-11.43,30.26-26.85,.41-9.99-4.81-19.51-13.63-24.84-1.8-1.09-2.38-3.44-1.29-5.24,1.09-1.8,3.44-2.38,5.24-1.3,11.21,6.77,17.84,18.91,17.31,31.69-.79,19.17-16.92,34.19-36.7,34.2Z"></path></g><g><path class="s" d="M2588.85,2224.25c-.38,0-.7-.31-.7-.69v-40.57c0-.38,.31-.7,.7-.7s.69,.31,.69,.7v40.57c0,.38-.31,.69-.69,.69Z"></path><path class="s" d="M2588.85,2227.37c-2.1,0-3.82-1.71-3.82-3.82v-40.57c0-2.1,1.71-3.82,3.82-3.82s3.82,1.71,3.82,3.82v40.57c0,2.1-1.71,3.82-3.82,3.82Z"></path></g></g><rect class="j" x="631.25" y="62.2" width="3914.75" height="2061.54"></rect><rect class="s" x="1632.35" y="2597.83" width="1899.42" height="130.87" rx="65.43" ry="65.43"></rect><rect class="u" x="631.25" y="62.2" width="3914.75" height="2061.54"></rect><polygon class="d" points="3002.81 1092.97 2490.17 1388.94 2490.17 797 3002.81 1092.97"></polygon><rect class="v" x="631.25" y="60.2" width="3914.75" height="199.7"></rect><rect class="v" x="631.25" y="1883.07" width="3914.75" height="241.64"></rect><path class="k" d="M2677.16,1607.83c-283.9,0-514.86-230.97-514.86-514.86s230.96-514.86,514.86-514.86,514.86,230.96,514.86,514.86-230.97,514.86-514.86,514.86Zm0-1003.03c-269.18,0-488.17,218.99-488.17,488.17s218.99,488.17,488.17,488.17,488.17-218.99,488.17-488.17-218.99-488.17-488.17-488.17Z"></path><rect class="l" x="1007.37" y="1981.12" width="1349.25" height="44.57"></rect><rect class="d" x="2394" y="1981.12" width="2072" height="44.57"></rect><g><rect class="j" x="771.96" y="1972.63" width="21.77" height="60.27"></rect><rect class="j" x="804.04" y="1972.63" width="21.77" height="60.27"></rect></g><rect class="d" x="2356.61" y="1951.65" width="37.39" height="103.5"></rect><path class="j" d="M4133.28,161.06c0,21.33-17.29,38.62-38.62,38.62s-38.62-17.29-38.62-38.62,17.29-38.62,38.62-38.62,38.62,17.29,38.62,38.62Z"></path><circle class="j" cx="4248.83" cy="161.06" r="38.62" transform="translate(-2.56 96.53) rotate(-1.3)"></circle><path class="j" d="M4441.62,161.06c0,21.33-17.29,38.62-38.62,38.62s-38.62-17.29-38.62-38.62,17.29-38.62,38.62-38.62,38.62,17.29,38.62,38.62Z"></path><polygon class="j" points="727.44 2002.77 675.01 2033.04 675.01 1972.49 727.44 2002.77"></polygon><rect class="j" x="881.56" y="1973.13" width="59.27" height="59.27"></rect></g><g id="c"><path class="o" d="M1020.79,2566.73s162.41,188.59,30.38,337.46c0,0,138.89,187.78,138.72,297.49,0,0,19.92-1.57,44.54-5.4,44.15-11.95,53.19-18.96,53.19-18.96,42.72-6.06,105.54-44.16,136.29-69.42l-50.82-78.32-212.66-322.61-37.08-353.84-102.57,213.59Z"></path><path class="n" d="M1088.47,2884.73c85.06-116.62-19.32-340.86-19.32-340.86l4.07-36.94-203.43-28.82c-10.65,46.22-12.46,74.3-12.46,74.3,3.95,68.52-42.79,153.85-42.79,153.85-21.26,56.82-285.22,371.42-285.22,371.42l419.14,317.19,85.8-110.08c12.35-16.86,107.77-72.06,107.77-72.06,40.85-9.31,64.89-12.76,64.89-12.76-4.86-239.44-118.45-315.24-118.45-315.24Z"></path><rect class="i" x="757.61" y="2786.27" width="128.42" height="639.64" transform="translate(-2150.77 1886.7) rotate(-52.88)"></rect><polygon class="m" points="1079.34 3366.7 483.96 4153.2 0 4153.2 0 3598.33 504.64 2931.7 790.21 3147.85 1079.34 3366.7"></polygon><polygon class="x" points="790.21 3147.85 29.15 4153.2 0 4153.2 0 3594.61 502.85 2930.35 504.64 2931.7 790.21 3147.85"></polygon><path class="w" d="M1301.48,3817.15l-114.95-21.41c-153.33-28.56-254.47-176.01-225.9-329.34l453.87-2436.34c13.19-70.81,81.29-117.52,152.1-104.33l413.77,77.08c70.81,13.19,117.52,81.29,104.33,152.1l-453.87,2436.34c-28.56,153.33-176.01,254.47-329.34,225.9Z"></path><path class="t" d="M1980.36,1002.81c70.81,13.19,117.52,81.29,104.33,152.1l-453.87,2436.34c-28.56,153.33-176.01,254.47-329.34,225.9l-114.95-21.41c-153.33-28.56-254.47-176.01-225.9-329.34l453.87-2436.34c13.19-70.81,81.29-117.52,152.1-104.33l413.77,77.08m3.33-17.88l-413.77-77.08c-19.71-3.67-39.57-3.37-59.01,.89-18.77,4.12-36.35,11.74-52.26,22.65-15.91,10.91-29.35,24.57-39.95,40.6-10.98,16.6-18.41,35.02-22.08,54.73l-453.87,2436.34c-7.43,39.88-6.82,80.04,1.8,119.35,8.33,37.96,23.75,73.53,45.82,105.72,22.08,32.19,49.71,59.38,82.13,80.82,33.57,22.2,70.82,37.23,110.7,44.66l114.95,21.41c39.88,7.43,80.04,6.82,119.35-1.8,37.96-8.33,73.53-23.75,105.72-45.82,32.19-22.08,59.38-49.71,80.82-82.13,22.2-33.57,37.23-70.81,44.66-110.7l453.87-2436.34c3.67-19.71,3.37-39.57-.89-59.01-4.12-18.77-11.74-36.35-22.65-52.26-10.91-15.91-24.57-29.35-40.6-39.95-16.6-10.98-35.02-18.41-54.73-22.08h0Z"></path><path class="j" d="M1551.43,1288.01l-67.62-12.6c-21.92-4.08-36.51-25.35-32.42-47.27h0c4.08-21.92,25.35-36.51,47.27-32.42l67.62,12.6c21.92,4.08,36.51,25.35,32.42,47.27h0c-4.08,21.92-25.35,36.51-47.27,32.42Z"></path><path class="j" d="M1744.95,1324.06l-67.62-12.6c-21.92-4.08-36.51-25.35-32.42-47.27h0c4.08-21.92,25.35-36.51,47.27-32.42l67.62,12.6c21.92,4.08,36.51,25.35,32.42,47.27h0c-4.08,21.92-25.35,36.51-47.27,32.42Z"></path><path class="j" d="M1938.47,1360.11l-67.62-12.6c-21.92-4.08-36.51-25.35-32.42-47.27h0c4.08-21.92,25.35-36.51,47.27-32.42l67.62,12.6c21.92,4.08,36.51,25.35,32.42,47.27h0c-4.08,21.92-25.35,36.51-47.27,32.42Z"></path><path class="p" d="M1575.93,1156.52l-67.62-12.6c-21.92-4.08-36.51-25.35-32.42-47.27h0c4.08-21.92,25.35-36.51,47.27-32.42l67.62,12.6c21.92,4.08,36.51,25.35,32.42,47.27h0c-4.08,21.92-25.35,36.51-47.27,32.42Z"></path><path class="j" d="M1527.1,1418.6l-67.62-12.6c-21.92-4.08-36.51-25.35-32.42-47.27h0c4.08-21.92,25.35-36.51,47.27-32.42l67.62,12.6c21.92,4.08,36.51,25.35,32.42,47.27h0c-4.08,21.92-25.35,36.51-47.27,32.42Z"></path><path class="j" d="M1720.62,1454.65l-67.62-12.6c-21.92-4.08-36.51-25.35-32.42-47.27h0c4.08-21.92,25.35-36.51,47.27-32.42l67.62,12.6c21.92,4.08,36.51,25.35,32.42,47.27h0c-4.08,21.92-25.35,36.51-47.27,32.42Z"></path><path class="j" d="M1914.14,1490.7l-67.62-12.6c-21.92-4.08-36.51-25.35-32.42-47.27h0c4.08-21.92,25.35-36.51,47.27-32.42l67.62,12.6c21.92,4.08,36.51,25.35,32.42,47.27h0c-4.08,21.92-25.35,36.51-47.27,32.42Z"></path><path class="j" d="M1502.59,1550.18l-67.62-12.6c-21.92-4.08-36.51-25.35-32.42-47.27h0c4.08-21.92,25.35-36.51,47.27-32.42l67.62,12.6c21.92,4.08,36.51,25.35,32.42,47.27h0c-4.08,21.92-25.35,36.51-47.27,32.42Z"></path><path class="j" d="M1696.11,1586.23l-67.62-12.6c-21.92-4.08-36.51-25.35-32.42-47.27h0c4.08-21.92,25.35-36.51,47.27-32.42l67.62,12.6c21.92,4.08,36.51,25.35,32.42,47.27h0c-4.08,21.92-25.35,36.51-47.27,32.42Z"></path><path class="j" d="M1889.63,1622.28l-67.62-12.6c-21.92-4.08-36.51-25.35-32.42-47.27h0c4.08-21.92,25.35-36.51,47.27-32.42l67.62,12.6c21.92,4.08,36.51,25.35,32.42,47.27h0c-4.08,21.92-25.35,36.51-47.27,32.42Z"></path><path class="j" d="M1478.54,1679.28l-67.62-12.6c-21.92-4.08-36.51-25.35-32.42-47.27h0c4.08-21.92,25.35-36.51,47.27-32.42l67.62,12.6c21.92,4.08,36.51,25.35,32.42,47.27h0c-4.08,21.92-25.35,36.51-47.27,32.42Z"></path><path class="j" d="M1672.06,1715.33l-67.62-12.6c-21.92-4.08-36.51-25.35-32.42-47.27h0c4.08-21.92,25.35-36.51,47.27-32.42l67.62,12.6c21.92,4.08,36.51,25.35,32.42,47.27h0c-4.08,21.92-25.35,36.51-47.27,32.42Z"></path><path class="j" d="M1865.58,1751.38l-67.62-12.6c-21.92-4.08-36.51-25.35-32.42-47.27h0c4.08-21.92,25.35-36.51,47.27-32.42l67.62,12.6c21.92,4.08,36.51,25.35,32.42,47.27h0c-4.08,21.92-25.35,36.51-47.27,32.42Z"></path><path class="j" d="M1454.49,1808.38l-67.62-12.6c-21.92-4.08-36.51-25.35-32.42-47.27h0c4.08-21.92,25.35-36.51,47.27-32.42l67.62,12.6c21.92,4.08,36.51,25.35,32.42,47.27h0c-4.08,21.92-25.35,36.51-47.27,32.42Z"></path><path class="e" d="M1291.47,2671.07l-67.62-12.6c-21.92-4.08-36.51-25.35-32.42-47.27h0c4.08-21.92,25.35-36.51,47.27-32.42l67.62,12.6c21.92,4.08,36.51,25.35,32.42,47.27h0c-4.08,21.92-25.35,36.51-47.27,32.42Z"></path><path class="e" d="M1675.79,2742.66l-67.62-12.6c-21.92-4.08-36.51-25.35-32.42-47.27h0c4.08-21.92,25.35-36.51,47.27-32.42l67.62,12.6c21.92,4.08,36.51,25.35,32.42,47.27h0c-4.08,21.92-25.35,36.51-47.27,32.42Z"></path><path class="p" d="M1400.05,1944.21l-56.34-10.5c-18.26-3.4-30.42-21.13-27.02-39.39h0c3.4-18.26,21.13-30.42,39.39-27.02l56.34,10.5c18.26,3.4,30.42,21.13,27.02,39.39h0c-3.4,18.26-21.13,30.42-39.39,27.02Z"></path><path class="r" d="M1552.49,1972.61l-56.34-10.5c-18.26-3.4-30.42-21.13-27.02-39.39h0c3.4-18.26,21.13-30.42,39.39-27.02l56.34,10.5c18.26,3.4,30.42,21.13,27.02,39.39h0c-3.4,18.26-21.13,30.42-39.39,27.02Z"></path><path class="h" d="M1702.66,2000.58l-56.34-10.5c-18.26-3.4-30.42-21.13-27.02-39.39h0c3.4-18.26,21.13-30.42,39.39-27.02l56.34,10.5c18.26,3.4,30.42,21.13,27.02,39.39h0c-3.4,18.26-21.13,30.42-39.39,27.02Z"></path><path class="f" d="M1852.83,2028.56l-56.34-10.5c-18.26-3.4-30.42-21.13-27.02-39.39h0c3.4-18.26,21.13-30.42,39.39-27.02l56.34,10.5c18.26,3.4,30.42,21.13,27.02,39.39h0c-3.4,18.26-21.13,30.42-39.39,27.02Z"></path><path class="e" d="M1154.89,3177.76l-56.34-10.5c-18.26-3.4-30.42-21.13-27.02-39.39h0c3.4-18.26,21.13-30.42,39.39-27.02l56.34,10.5c18.26,3.4,30.42,21.13,27.02,39.39h0c-3.4,18.26-21.13,30.42-39.39,27.02Z"></path><path class="e" d="M1307.33,3206.16l-56.34-10.5c-18.26-3.4-30.42-21.13-27.02-39.39h0c3.4-18.26,21.13-30.42,39.39-27.02l56.34,10.5c18.26,3.4,30.42,21.13,27.02,39.39h0c-3.4,18.26-21.13,30.42-39.39,27.02Z"></path><path class="e" d="M1293.21,3320.47l-56.34-10.5c-18.26-3.4-30.42-21.13-27.02-39.39h0c3.4-18.26,21.13-30.42,39.39-27.02l56.34,10.5c18.26,3.4,30.42,21.13,27.02,39.39h0c-3.4,18.26-21.13,30.42-39.39,27.02Z"></path><path class="e" d="M1457.5,3234.13l-56.34-10.5c-18.26-3.4-30.42-21.13-27.02-39.39h0c3.4-18.26,21.13-30.42,39.39-27.02l56.34,10.5c18.26,3.4,30.42,21.13,27.02,39.39h0c-3.4,18.26-21.13,30.42-39.39,27.02Z"></path><path class="e" d="M1607.67,3262.11l-56.34-10.5c-18.26-3.4-30.42-21.13-27.02-39.39h0c3.4-18.26,21.13-30.42,39.39-27.02l56.34,10.5c18.26,3.4,30.42,21.13,27.02,39.39h0c-3.4,18.26-21.13,30.42-39.39,27.02Z"></path><path class="e" d="M1135.89,3292.17l-51.05-9.51c-18.85-3.51-31.32-21.7-27.81-40.55,3.51-18.85,21.7-31.32,40.55-27.81l51.05,9.51c18.85,3.51,31.32,21.7,27.81,40.55-3.51,18.85-21.7,31.32-40.55,27.81Zm-39.84-69.67c-14.33-2.67-28.16,6.82-30.83,21.15s6.82,28.16,21.14,30.83l51.05,9.51c14.33,2.67,28.16-6.82,30.83-21.15,2.67-14.33-6.82-28.16-21.15-30.83l-51.05-9.51Z"></path><path class="e" d="M1413.89,3044.44l-51.05-9.51c-18.85-3.51-31.32-21.7-27.81-40.55,3.51-18.85,21.7-31.32,40.55-27.81l51.05,9.51c18.85,3.51,31.32,21.7,27.81,40.55-3.51,18.85-21.7,31.32-40.55,27.81Zm-39.84-69.67c-14.33-2.67-28.16,6.82-30.83,21.15-2.67,14.33,6.82,28.16,21.14,30.83l51.05,9.51c14.33,2.67,28.16-6.82,30.83-21.15,2.67-14.33-6.82-28.16-21.14-30.83l-51.05-9.51Z"></path><path class="e" d="M1462.42,2780.45l-51.05-9.51c-18.85-3.51-31.32-21.7-27.81-40.55s21.7-31.32,40.55-27.81l51.05,9.51c18.85,3.51,31.32,21.7,27.81,40.55s-21.7,31.32-40.55,27.81Zm-39.84-69.67c-14.33-2.67-28.16,6.82-30.83,21.15-2.67,14.33,6.82,28.16,21.14,30.83l51.05,9.51c14.33,2.67,28.16-6.82,30.83-21.15,2.67-14.33-6.82-28.16-21.15-30.83l-51.05-9.51Z"></path><path class="e" d="M1265.63,3431.09l-51.05-9.51c-18.85-3.51-31.32-21.7-27.81-40.55,3.51-18.85,21.7-31.32,40.55-27.81l51.05,9.51c18.85,3.51,31.32,21.7,27.81,40.55-3.51,18.85-21.7,31.32-40.55,27.81Zm-39.84-69.67c-14.33-2.67-28.16,6.82-30.83,21.15s6.82,28.16,21.15,30.83l51.05,9.51c14.33,2.67,28.16-6.82,30.83-21.15,2.67-14.33-6.82-28.16-21.14-30.83l-51.05-9.51Z"></path><path class="e" d="M1436.68,3348.21l-51.05-9.51c-18.85-3.51-31.32-21.7-27.81-40.55,3.51-18.85,21.7-31.32,40.55-27.81l51.05,9.51c18.85,3.51,31.32,21.7,27.81,40.55s-21.7,31.32-40.55,27.81Zm-39.84-69.67c-14.33-2.67-28.16,6.82-30.83,21.15-2.67,14.33,6.82,28.16,21.15,30.83l51.05,9.51c14.33,2.67,28.16-6.82,30.83-21.15,2.67-14.33-6.82-28.16-21.15-30.83l-51.05-9.51Z"></path><path class="e" d="M1587.08,3376.23l-51.05-9.51c-18.85-3.51-31.32-21.7-27.81-40.55,3.51-18.85,21.7-31.32,40.55-27.81l51.05,9.51c18.85,3.51,31.32,21.7,27.81,40.55-3.51,18.85-21.7,31.32-40.55,27.81Zm-39.84-69.67c-14.33-2.67-28.16,6.82-30.83,21.15-2.67,14.33,6.82,28.16,21.15,30.83l51.05,9.51c14.33,2.67,28.16-6.82,30.83-21.15,2.67-14.33-6.82-28.16-21.14-30.83l-51.05-9.51Z"></path><path class="e" d="M1115.23,3403.07l-51.05-9.51c-18.85-3.51-31.32-21.7-27.81-40.55,3.51-18.85,21.7-31.32,40.55-27.81l51.05,9.51c18.85,3.51,31.32,21.7,27.81,40.55-3.51,18.85-21.7,31.32-40.55,27.81Zm-39.84-69.67c-14.33-2.67-28.16,6.82-30.83,21.15-2.67,14.33,6.82,28.16,21.14,30.83l51.05,9.51c14.33,2.67,28.16-6.82,30.83-21.15,2.67-14.33-6.82-28.16-21.14-30.83l-51.05-9.51Z"></path><path class="e" d="M1416.02,3459.11l-51.05-9.51c-18.85-3.51-31.32-21.7-27.81-40.55,3.51-18.85,21.7-31.32,40.55-27.81l51.05,9.51c18.85,3.51,31.32,21.7,27.81,40.55-3.51,18.85-21.7,31.32-40.55,27.81Zm-39.84-69.67c-14.33-2.67-28.16,6.82-30.83,21.15-2.67,14.33,6.82,28.16,21.15,30.83l51.05,9.51c14.33,2.67,28.16-6.82,30.83-21.15s-6.82-28.16-21.14-30.83l-51.05-9.51Z"></path><path class="e" d="M1566.42,3487.12l-51.05-9.51c-18.85-3.51-31.32-21.7-27.81-40.55,3.51-18.85,21.7-31.32,40.55-27.81l51.05,9.51c18.85,3.51,31.32,21.7,27.81,40.55-3.51,18.85-21.7,31.32-40.55,27.81Zm-39.84-69.67c-14.33-2.67-28.16,6.82-30.83,21.15-2.67,14.33,6.82,28.16,21.15,30.83l51.05,9.51c14.33,2.67,28.16-6.82,30.83-21.15,2.67-14.33-6.82-28.16-21.14-30.83l-51.05-9.51Z"></path><path class="e" d="M1134.64,2927.58l29.27-157.12c6.42-34.46,39.87-57.41,74.34-50.99h0c34.46,6.42,57.41,39.87,50.99,74.34l-29.27,157.12c-6.42,34.46-39.87,57.41-74.34,50.99h0c-34.46-6.42-57.41-39.87-50.99-74.34Z"></path><path class="e" d="M1538.87,3002.88l29.27-157.12c6.42-34.46,39.87-57.41,74.34-50.99h0c34.46,6.42,57.41,39.87,50.99,74.34l-29.27,157.12c-6.42,34.46-39.87,57.41-74.34,50.99h0c-34.46-6.42-57.41-39.87-50.99-74.34Z"></path><path class="j" d="M1648.01,1844.43l-67.62-12.6c-21.92-4.08-36.51-25.35-32.42-47.27h0c4.08-21.92,25.35-36.51,47.27-32.42l67.62,12.6c21.92,4.08,36.51,25.35,32.42,47.27h0c-4.08,21.92-25.35,36.51-47.27,32.42Z"></path><path class="j" d="M1841.53,1880.48l-67.62-12.6c-21.92-4.08-36.51-25.35-32.42-47.27h0c4.08-21.92,25.35-36.51,47.27-32.42l67.62,12.6c21.92,4.08,36.51,25.35,32.42,47.27h0c-4.08,21.92-25.35,36.51-47.27,32.42Z"></path><path class="j" d="M1689.91,2121.93c-35.57-46.69-120.46-64.56-120.46-64.56,0,0-85.64-13.89-135.63,16.85-7.71,4.74-12.31,13.34-11.75,22.38,0,.14,.02,.28,.03,.43,.21,2.87,1.15,5.63,2.67,8.07l40.1,64.45c8.64,13.88,25.95,20,41.19,14.06,.42-.16,.83-.33,1.26-.51,6.96-2.96,14.4-4.62,21.96-4.52,5.43,.08,28.9,4.45,34,6.33,7.09,2.62,13.43,6.85,18.86,12.12,.33,.32,.66,.63,.99,.93,12.08,11.03,30.43,11.56,43.49,1.71l60.62-45.68c2.29-1.73,4.17-3.97,5.4-6.57,.06-.13,.12-.26,.18-.39,3.78-8.23,2.59-17.9-2.9-25.11Z"></path><path class="j" d="M1358.77,2477.08c35.57,46.69,120.46,64.56,120.46,64.56,0,0,85.64,13.89,135.63-16.85,7.71-4.74,12.31-13.34,11.75-22.38,0-.14-.02-.28-.03-.43-.21-2.87-1.15-5.63-2.67-8.07l-40.1-64.45c-8.64-13.88-25.95-20-41.19-14.06-.42,.16-.83,.33-1.26,.51-6.96,2.96-14.4,4.62-21.96,4.52-5.43-.08-28.9-4.45-34-6.33-7.09-2.62-13.44-6.85-18.86-12.12-.33-.32-.66-.63-.99-.93-12.08-11.03-30.43-11.56-43.49-1.71l-60.62,45.68c-2.29,1.73-4.17,3.97-5.4,6.57-.06,.13-.12,.26-.18,.39-3.78,8.23-2.59,17.9,2.9,25.11Z"></path><path class="j" d="M1345.97,2135.9c-46.69,35.57-64.56,120.46-64.56,120.46,0,0-13.89,85.64,16.85,135.63,4.74,7.71,13.34,12.31,22.38,11.75,.14,0,.28-.02,.43-.03,2.87-.21,5.63-1.15,8.07-2.67l64.45-40.1c13.88-8.64,20-25.95,14.06-41.19-.16-.42-.33-.83-.51-1.26-2.96-6.96-4.62-14.4-4.52-21.96,.08-5.43,4.45-28.9,6.33-34,2.62-7.09,6.85-13.43,12.12-18.86,.32-.33,.63-.66,.93-.99,11.03-12.08,11.56-30.43,1.71-43.49l-45.68-60.62c-1.73-2.29-3.97-4.17-6.57-5.4-.13-.06-.26-.12-.39-.18-8.23-3.78-17.9-2.59-25.11,2.9Z"></path><path class="j" d="M1704.4,2467.65c46.69-35.57,64.56-120.46,64.56-120.46,0,0,13.89-85.64-16.85-135.63-4.74-7.71-13.34-12.31-22.38-11.75-.14,0-.28,.02-.43,.03-2.87,.21-5.63,1.15-8.07,2.67l-64.45,40.1c-13.88,8.64-20,25.95-14.06,41.19,.16,.42,.33,.83,.51,1.26,2.96,6.96,4.62,14.4,4.52,21.96-.08,5.43-4.45,28.9-6.33,34-2.62,7.09-6.85,13.44-12.12,18.86-.32,.33-.63,.66-.93,.99-11.03,12.08-11.56,30.43-1.71,43.49l45.68,60.62c1.73,2.29,3.97,4.17,6.57,5.4,.13,.06,.26,.12,.39,.18,8.23,3.78,17.9,2.59,25.11-2.9Z"></path><circle class="p" cx="1525.87" cy="2301.9" r="67.75" transform="translate(-1180.78 1753.16) rotate(-45)"></circle><circle class="e" cx="1420.4" cy="2867.7" r="61.7" transform="translate(-1713.65 3514.99) rotate(-75.32)"></circle><g><path class="j" d="M1544.86,1135.58c-.3-.06-.61-.12-.91-.19-6.15-1.39-11.35-5.05-14.64-10.28-3.14-4.99-4.15-10.86-2.85-16.52,1.6-6.97,6.62-12.77,13.42-15.52,.24-.1,.52,.02,.62,.26,.1,.24-.02,.52-.26,.62-6.51,2.63-11.32,8.18-12.85,14.85-1.24,5.41-.27,11.02,2.73,15.8,3.16,5.02,8.14,8.53,14.04,9.86,11.87,2.69,23.68-4.44,26.32-15.9,1.71-7.44-.87-15.3-6.73-20.52-.2-.18-.21-.48-.04-.67,.17-.2,.48-.21,.67-.04,6.12,5.45,8.81,13.66,7.02,21.44-2.68,11.68-14.46,19.06-26.54,16.81Z"></path><path class="j" d="M1544.16,1139.3h0c-.35-.07-.71-.14-1.06-.22-7.13-1.62-13.17-5.86-17-11.96-3.68-5.85-4.86-12.73-3.34-19.38,1.88-8.18,7.74-14.97,15.69-18.18,2.19-.88,4.68,.18,5.55,2.36,.42,1.04,.42,2.2-.03,3.25-.44,1.05-1.27,1.87-2.33,2.29-5.37,2.17-9.32,6.72-10.57,12.18-1.02,4.42-.22,9.02,2.24,12.94,2.62,4.17,6.76,7.07,11.67,8.18,9.83,2.23,19.62-3.63,21.79-13.06,1.4-6.09-.73-12.55-5.55-16.84-1.75-1.57-1.91-4.26-.35-6.02,1.57-1.75,4.26-1.91,6.02-.35,7.15,6.37,10.29,16,8.2,25.12-3.14,13.68-16.73,22.33-30.93,19.68Z"></path></g><g><path class="j" d="M1549.62,1109.97c-.26-.05-.43-.3-.38-.56l5.09-27.33c.05-.26,.3-.43,.56-.38,.26,.05,.43,.3,.38,.56l-5.09,27.33c-.05,.26-.3,.43-.56,.38Z"></path><path class="j" d="M1548.92,1113.69c-2.31-.43-3.84-2.66-3.41-4.97l5.09-27.33c.43-2.31,2.66-3.84,4.97-3.41s3.84,2.66,3.41,4.97l-5.09,27.33c-.43,2.31-2.66,3.84-4.97,3.41Z"></path></g><circle class="p" cx="1271.22" cy="3282.02" r="13.26" transform="translate(-1193.73 769.72) rotate(-23.28)"></circle><polygon class="g" points="1526.27 2120.89 1559.82 2109.04 1586.85 2132.17 1526.27 2120.89"></polygon><polygon class="g" points="1349.68 2295.03 1337.84 2261.48 1360.97 2234.45 1349.68 2295.03"></polygon><polygon class="g" points="1700.01 2303.01 1711.85 2336.55 1688.72 2363.58 1700.01 2303.01"></polygon><polygon class="g" points="1522.76 2476.21 1489.21 2488.05 1462.18 2464.92 1522.76 2476.21"></polygon><path class="n" d="M1076.17,2480.12h0c36.85-131.22,130.91-198.47,130.91-198.47,140.03-146.32,38.14-270.61,38.14-270.61-32.99-59.29-100.75,42.61-100.75,42.61-43.14,76.99-115.85,128.58-115.85,128.58-69.19,57.54-92.86,111.7-92.86,111.7-35.66,73.02-57.49,141.29-67.16,189.4l203.94,29.72,3.63-32.92Z"></path></g></svg>